<?xml version="1.0" encoding="UTF-8"?>
<svg xmlns="http://www.w3.org/2000/svg" xmlns:xlink="http://www.w3.org/1999/xlink" width="382px" height="693px" viewBox="0 0 382 692" version="1.1">
<g id="surface1">
<path style=" stroke:none;fill-rule:nonzero;fill:rgb(0%,0%,0%);fill-opacity:1;" d="M 216.605469 3.90625 C 215.828125 4.203125 213.710938 4.59375 211.859375 4.769531 C 210.039062 4.980469 207.863281 5.308594 207.027344 5.546875 C 206.160156 5.785156 203.652344 6.382812 201.445312 6.886719 C 197.117188 7.871094 196.847656 7.871094 189.867188 7.1875 C 187.476562 6.949219 182.972656 6.859375 176.882812 6.949219 C 166.4375 7.097656 166.289062 7.097656 157.425781 9.929688 C 155.128906 10.675781 152.769531 11.359375 152.203125 11.480469 C 149.546875 12.015625 143.398438 15.980469 140.625 18.902344 C 138.207031 21.527344 135.164062 25.613281 133.519531 28.566406 C 132.65625 30.054688 131.820312 31.1875 131.34375 31.425781 C 130.179688 31.992188 127.878906 32.53125 125.164062 32.800781 C 122.417969 33.097656 121.644531 33.453125 121.136719 34.675781 C 120.660156 35.839844 120.746094 40.699219 121.285156 43.054688 C 121.554688 44.128906 122.480469 46.457031 123.34375 48.214844 C 125.761719 53.015625 128.328125 58.859375 128.328125 59.515625 C 128.328125 60.886719 127.34375 63.867188 125.96875 66.640625 C 125.164062 68.28125 124.210938 70.367188 123.851562 71.261719 C 123.523438 72.15625 122.6875 73.859375 122.03125 74.992188 C 120.957031 76.898438 120.6875 77.136719 119.375 77.613281 C 116.628906 78.597656 114.03125 81.191406 108.808594 88.230469 C 106.09375 91.898438 105.4375 93.121094 105.050781 95.175781 C 104.574219 97.679688 103.527344 99.023438 98.394531 103.675781 C 95.707031 106.121094 91.53125 109.90625 89.082031 112.113281 C 82.609375 117.988281 81.265625 119.65625 78.488281 125.382812 C 77.207031 128.003906 75.386719 132.089844 74.460938 134.476562 C 73.535156 136.832031 72.042969 140.199219 71.148438 141.929688 C 70.011719 144.078125 68.3125 148.519531 65.65625 156.242188 C 63.566406 162.386719 61 169.78125 60.015625 172.640625 C 57.835938 178.992188 57.449219 180.8125 56.851562 187.847656 C 56.34375 194.140625 55.835938 197.269531 54.613281 202.160156 C 54.136719 204.039062 53.539062 206.871094 53.300781 208.421875 C 53.03125 209.972656 52.433594 212.597656 51.957031 214.238281 C 50.167969 220.140625 44.765625 235.316406 42.4375 240.984375 C 41.09375 244.144531 39.542969 248.40625 38.945312 250.464844 C 38.347656 252.523438 36.589844 258.070312 35.035156 262.78125 C 33.484375 267.519531 31.695312 273.363281 31.066406 275.75 C 28.976562 283.503906 27.484375 288.988281 26.441406 292.65625 C 25.90625 294.625 24.859375 299.304688 24.171875 303.09375 C 23.097656 309.027344 20.234375 323.519531 19.398438 327.304688 C 19.25 327.960938 18.980469 332.730469 18.800781 337.890625 C 18.652344 343.019531 18.445312 347.699219 18.355469 348.265625 C 17.367188 355.273438 15.460938 373.195312 14.953125 380.46875 C 14.773438 382.855469 14.414062 389.832031 14.175781 395.972656 C 13.726562 407.421875 13.609375 409.363281 13.101562 414.011719 C 12.953125 415.472656 12.714844 419.230469 12.535156 422.363281 C 12.207031 428.535156 11.878906 431.070312 10.148438 440.550781 C 9.519531 443.980469 8.921875 447.738281 8.804688 448.898438 C 8.535156 451.671875 8.058594 453.460938 5.789062 460.46875 C 4.746094 463.6875 3.609375 467.65625 3.28125 469.265625 C 2.476562 472.960938 2.148438 479.222656 2.6875 480.832031 C 3.191406 482.414062 4.296875 483.816406 5.191406 484.054688 C 5.609375 484.144531 8.265625 485.304688 11.132812 486.589844 C 18.355469 489.867188 24.261719 491.984375 31.785156 494.074219 C 32.441406 494.25 34.917969 494.609375 37.304688 494.847656 C 46.40625 495.773438 53.808594 496.996094 58.554688 498.367188 C 70.191406 501.765625 86.25 507.730469 86.25 508.652344 C 86.25 508.832031 85.921875 511.574219 85.53125 514.734375 C 84.277344 524.605469 84.277344 524.992188 85.652344 556.988281 C 86.128906 568.019531 87.742188 585.046875 90.15625 604.84375 C 91.292969 614.324219 92.992188 621.511719 95.648438 628.25 L 97.289062 632.425781 L 97.289062 642.683594 C 97.289062 656.1875 98.007812 664.539062 99.796875 671.574219 C 100.691406 675.0625 101.347656 676.375 103.675781 679.207031 C 104.660156 680.460938 105.945312 682.160156 106.453125 682.996094 C 107.078125 683.949219 107.824219 684.695312 108.542969 685.023438 C 111.257812 686.304688 126.238281 686.425781 130.863281 685.171875 C 132.179688 684.8125 134.207031 684.277344 135.339844 683.949219 L 137.429688 683.414062 L 144.144531 684.875 C 156.800781 687.707031 158.261719 687.855469 175.183594 688.0625 C 189.539062 688.273438 192.3125 688.125 195.953125 686.871094 C 199.804688 685.589844 200.402344 685.140625 201.085938 683.203125 C 201.414062 682.25 201.832031 680.789062 202.042969 679.984375 C 202.667969 677.089844 202.847656 676.882812 205.472656 675.660156 C 208.25 674.378906 208.90625 673.664062 208.90625 671.933594 C 208.90625 668.355469 204.460938 663.671875 199.058594 661.554688 C 196.878906 660.722656 191.386719 659.410156 184.433594 658.097656 C 175.988281 656.488281 172.855469 655.085938 169.035156 651.300781 C 166.320312 648.617188 164.765625 646.351562 162.796875 642.144531 C 159.871094 635.972656 155.753906 624.195312 153.515625 615.726562 C 152.082031 610.242188 150.859375 600.550781 151.1875 597.300781 C 151.335938 596.109375 151.25 595.273438 150.917969 594.496094 C 150.503906 593.484375 150.503906 593.304688 150.917969 592.46875 C 151.308594 591.664062 151.367188 590.054688 151.21875 580.601562 C 151.128906 573.386719 150.890625 567.871094 150.5625 564.441406 C 150.085938 559.761719 150.085938 558.210938 150.382812 549.53125 C 151.070312 530.597656 151.875 523.113281 154.144531 515.242188 C 154.53125 513.839844 154.949219 512.082031 155.039062 511.367188 C 155.394531 508.863281 155.484375 508.652344 156.472656 508.234375 C 157.007812 508.027344 160.140625 507.550781 163.425781 507.222656 C 166.707031 506.894531 172.289062 506.207031 175.808594 505.730469 C 183.539062 504.65625 188.613281 504.0625 195.328125 503.464844 C 205.355469 502.570312 213.679688 500.601562 215.441406 498.722656 C 216.605469 497.472656 216.785156 491.925781 215.769531 488.140625 C 215.382812 486.648438 214.933594 478 214.578125 464.851562 C 214.277344 454.207031 213.859375 445.351562 213.53125 443.085938 C 213.441406 442.519531 213.113281 438.492188 212.785156 434.140625 C 212.160156 425.792969 211.621094 420.871094 210.695312 414.757812 C 210.367188 412.703125 209.980469 408.46875 209.800781 405.367188 C 208.816406 387.445312 208.519531 384.40625 207.445312 379.871094 C 205.980469 373.820312 205.773438 370.242188 205.800781 351.546875 C 205.832031 341.945312 205.980469 331.925781 206.128906 329.242188 C 206.429688 324.472656 206.429688 324.382812 207.292969 323.488281 C 209.292969 321.371094 216.398438 317.316406 218.335938 317.167969 C 219.144531 317.105469 219.203125 317.167969 219.382812 318.597656 C 219.472656 319.402344 219.648438 332.761719 219.769531 348.265625 C 219.976562 377.992188 220.1875 391.769531 221.140625 435.035156 C 222.128906 479.460938 223.441406 572.761719 224.066406 641.398438 C 224.246094 659.351562 224.367188 663.433594 224.695312 663.824219 C 225.230469 664.480469 225.796875 664.480469 226.097656 663.792969 C 226.753906 662.390625 226.574219 629.382812 225.617188 571 C 225.261719 549.175781 224.871094 518.523438 224.125 453.074219 C 223.320312 383.03125 222.933594 349.757812 222.664062 331.417969 C 222.515625 321.460938 222.542969 315.675781 222.753906 315.230469 C 223.082031 314.453125 225.351562 312.933594 231.289062 309.503906 C 233.675781 308.132812 239.257812 304.910156 243.675781 302.347656 C 248.121094 299.78125 253.761719 296.5625 256.207031 295.191406 C 263.339844 291.226562 274.859375 284.636719 278.203125 282.578125 C 279.90625 281.535156 283.902344 279.328125 287.097656 277.6875 L 292.917969 274.707031 L 324.847656 274.914062 C 358.691406 275.152344 368.601562 275.394531 369.316406 275.929688 C 369.585938 276.136719 369.882812 277.152344 370.0625 278.644531 C 370.660156 283.683594 371.316406 316.480469 371.851562 370.777344 C 372.03125 387.65625 372.300781 409.332031 372.449219 418.933594 C 373.464844 480.027344 373.703125 492.699219 374.242188 513.601562 C 374.867188 537.308594 375.136719 542.585938 375.761719 543.925781 C 376 544.523438 376 545.238281 375.734375 547.027344 C 375.226562 550.367188 374.988281 575.472656 375.40625 580.542969 C 375.582031 582.808594 375.882812 584.6875 376.121094 584.957031 C 376.390625 585.3125 376.539062 590.261719 376.6875 606.304688 C 376.808594 617.816406 377.015625 633.855469 377.195312 641.964844 C 377.375 650.078125 377.523438 658.15625 377.523438 659.886719 L 377.523438 663.078125 L 368.808594 663.257812 C 364.003906 663.34375 339.324219 663.644531 313.957031 663.882812 C 263.222656 664.390625 229.46875 664.867188 227.410156 665.105469 C 225.199219 665.375 224.722656 665.523438 224.722656 665.96875 C 224.722656 666.238281 225.230469 666.445312 226.15625 666.59375 C 227.589844 666.804688 265.667969 666.59375 310.226562 666.117188 C 341.652344 665.761719 374.570312 665.761719 376.269531 666.089844 C 376.984375 666.238281 377.730469 666.59375 377.972656 666.894531 C 378.476562 667.609375 379.34375 667.191406 379.640625 666.089844 C 379.96875 664.984375 379.941406 648.585938 379.613281 629.144531 C 378.566406 566.46875 373.433594 312.039062 372.71875 287.617188 C 372.570312 281.566406 372.539062 276.527344 372.660156 276.40625 C 372.777344 276.289062 373.792969 275.839844 374.898438 275.363281 C 378.65625 273.8125 379.613281 272.5 379.613281 268.804688 C 379.613281 265.523438 378.71875 263.644531 376.777344 262.839844 C 374.269531 261.765625 358.601562 260.632812 340.726562 260.1875 C 327.355469 259.859375 325.207031 259.738281 324.820312 259.351562 C 324.371094 258.902344 324.402344 258.84375 325.027344 258.425781 C 325.417969 258.1875 326.550781 257.800781 327.535156 257.621094 C 331.144531 256.875 332.757812 255.773438 332.757812 254.011719 C 332.757812 253.566406 332.398438 252.253906 331.980469 251.152344 C 330.25 246.589844 329.566406 243.28125 328.730469 235.558594 C 327.503906 224.105469 327.027344 222.050781 325.445312 221.660156 C 324.519531 221.421875 314.105469 222.855469 311.089844 223.628906 C 308.644531 224.257812 307.210938 224.972656 306.703125 225.746094 C 306.496094 226.105469 306.644531 227.65625 307.300781 231.261719 C 307.808594 234.035156 308.167969 236.363281 308.105469 236.421875 C 307.957031 236.601562 303.539062 237.226562 299.808594 237.644531 C 296.167969 238.0625 295.992188 237.972656 293.8125 235.078125 C 291.691406 232.277344 290.199219 230.996094 285.960938 228.371094 C 284.054688 227.148438 281.1875 225.328125 279.636719 224.257812 C 274.441406 220.738281 268.324219 218.382812 265.160156 218.648438 C 264.175781 218.738281 259.402344 219.960938 254.566406 221.332031 C 246.269531 223.71875 243.167969 224.523438 242.183594 224.523438 C 241.941406 224.523438 241.136719 223.988281 240.390625 223.332031 C 239.644531 222.675781 238.660156 222.050781 238.242188 221.960938 C 237.019531 221.632812 226.394531 222.109375 223.378906 222.585938 C 219.890625 223.152344 214.335938 223.777344 214.160156 223.601562 C 214.097656 223.539062 213.53125 220.050781 212.933594 215.878906 C 211.414062 205.320312 210.875 202.667969 209.324219 198.523438 C 207.980469 194.914062 206.609375 190.144531 205.324219 184.421875 C 204.488281 180.691406 202.460938 174.789062 200.730469 170.941406 C 199.175781 167.453125 197.683594 162.980469 196.222656 157.285156 C 195.625 154.992188 194.878906 152.277344 194.582031 151.234375 C 193.445312 147.535156 192.402344 139.425781 192.015625 131.285156 L 191.804688 127.050781 L 192.582031 126.753906 C 193.03125 126.574219 196.460938 126.246094 200.222656 126.039062 C 206.667969 125.621094 207.144531 125.5625 208.699219 124.785156 L 210.339844 123.949219 L 214.007812 124.457031 C 218.695312 125.054688 223.769531 125.082031 226.753906 124.457031 C 230.453125 123.710938 235.707031 121.328125 238.71875 119.058594 C 239.617188 118.34375 239.703125 118.195312 239.554688 117.09375 C 239.226562 114.707031 235.558594 107.847656 231.617188 102.332031 C 228.511719 97.921875 228.394531 97.53125 229.347656 95.175781 C 229.796875 94.101562 230.09375 92.761719 230.09375 91.898438 C 230.09375 90.675781 229.945312 90.316406 229.171875 89.570312 C 227.917969 88.410156 227.109375 86.53125 227.019531 84.679688 C 226.960938 83.371094 227.082031 83.070312 227.679688 82.59375 C 228.097656 82.296875 228.929688 81.90625 229.527344 81.730469 C 231.945312 81.011719 233.976562 78.152344 233.976562 75.496094 C 233.976562 73.617188 233.199219 72.394531 229.558594 68.519531 C 223.113281 61.691406 222.695312 60.589844 226.304688 59.902344 C 227.617188 59.632812 228.394531 59.277344 228.992188 58.710938 C 230.246094 57.429688 230.125 55.101562 228.574219 50.6875 C 225.859375 42.996094 225.261719 41.117188 224.277344 37.449219 L 223.261719 33.605469 L 224.453125 31.308594 C 225.113281 30.027344 226.515625 28.027344 227.589844 26.835938 C 228.664062 25.671875 229.675781 24.332031 229.828125 23.882812 C 230.902344 21.109375 230.75 17.859375 229.320312 11.925781 C 228.335938 8.019531 227.707031 6.648438 226.125 5.070312 C 224.960938 3.9375 224.78125 3.847656 223.679688 4.023438 C 220.128906 4.5625 219.738281 4.5625 219.082031 3.90625 C 218.367188 3.191406 218.425781 3.191406 216.605469 3.90625 Z M 134.804688 75.796875 C 137.730469 77.941406 141.878906 81.042969 143.996094 82.683594 C 146.144531 84.351562 149.695312 87.097656 151.90625 88.796875 C 154.113281 90.496094 159.632812 94.757812 164.171875 98.277344 L 172.4375 104.660156 L 172.585938 106.058594 C 172.675781 106.863281 172.914062 111.011719 173.125 115.304688 C 173.542969 123.5625 173.421875 125.292969 172.40625 125.472656 C 171.242188 125.710938 170.46875 125.171875 168.585938 122.789062 C 163.902344 116.914062 149.578125 102.75 143.101562 97.5625 C 139.3125 94.519531 126.03125 81.492188 124.65625 79.433594 L 123.851562 78.242188 L 124.328125 76.601562 C 124.804688 75.050781 126.296875 71.800781 126.894531 71.054688 C 127.3125 70.519531 128.417969 71.175781 134.804688 75.796875 Z M 177.003906 109.011719 C 177.929688 110.53125 180.046875 117.09375 181.597656 123.265625 C 182.34375 126.214844 183.179688 128.960938 183.417969 129.316406 C 183.988281 130.210938 185.152344 130.183594 186.671875 129.257812 C 188.222656 128.304688 188.761719 128.332031 189.148438 129.316406 C 189.6875 130.660156 190.132812 134.921875 190.195312 139.394531 C 190.253906 143.421875 190.222656 143.570312 189.65625 143.480469 C 188.882812 143.363281 188.375 142.644531 188.015625 141.183594 C 187.449219 138.949219 186.253906 136.890625 184.253906 134.804688 C 182.105469 132.507812 179.929688 131.253906 176.972656 130.601562 C 176.078125 130.421875 175.09375 130.183594 174.824219 130.09375 C 174.347656 129.972656 174.289062 129.527344 174.316406 125.738281 C 174.347656 117.332031 174.765625 108.59375 175.152344 108.117188 C 175.660156 107.519531 176.257812 107.789062 177.003906 109.011719 Z M 129.222656 126.425781 C 132.566406 126.992188 133.9375 127.976562 133.042969 129.167969 C 132.683594 129.617188 132.507812 129.644531 131.015625 129.226562 C 129.34375 128.8125 125.820312 128.722656 122.984375 129.050781 L 121.375 129.257812 L 122.6875 129.972656 C 124.359375 130.898438 126.417969 132.628906 130.566406 136.5625 C 134.835938 140.617188 136.445312 141.960938 139.519531 143.988281 C 142.710938 146.105469 152.324219 154.246094 153.875 156.125 C 154.5 156.898438 155.992188 158.507812 157.15625 159.671875 C 158.320312 160.804688 161.335938 164.023438 163.871094 166.828125 C 169.066406 172.554688 172.4375 176.101562 181.003906 184.867188 C 187.867188 191.902344 191.058594 195.601562 192.730469 198.492188 C 193.386719 199.597656 194.550781 201.296875 195.296875 202.28125 C 196.042969 203.234375 196.789062 204.515625 197 205.113281 C 197.175781 205.710938 198.042969 208.003906 198.9375 210.242188 C 200.460938 214.117188 200.90625 216.175781 200.25 216.175781 C 200.074219 216.175781 199.683594 215.757812 199.414062 215.222656 C 199.148438 214.714844 198.492188 213.820312 197.984375 213.222656 C 197.476562 212.628906 196.640625 211.253906 196.132812 210.121094 C 193.984375 205.472656 191.746094 202.789062 175.808594 185.582031 C 166.738281 175.832031 162.828125 171.835938 156.976562 166.351562 C 154.382812 163.90625 154.234375 163.695312 154.292969 162.625 C 154.410156 160.328125 154.292969 159.820312 153.398438 158.808594 C 152.53125 157.851562 149.726562 156.539062 149.308594 156.929688 C 149.097656 157.167969 149.726562 160.089844 150.742188 163.546875 C 152.5 169.628906 153.367188 178.21875 152.800781 184.359375 C 152.171875 191.578125 148.832031 213.878906 148.144531 215.519531 C 146.472656 219.605469 146.859375 209.109375 148.921875 195.152344 C 150.234375 186.359375 150.5625 181.140625 150.171875 175.414062 C 149.425781 165.21875 147.160156 157.136719 143.429688 151.53125 C 141.398438 148.460938 130.65625 138.382812 124.300781 133.582031 C 122.808594 132.449219 121.046875 130.957031 120.417969 130.242188 C 119.105469 128.8125 117.941406 126.84375 118.242188 126.542969 C 118.988281 125.800781 124.984375 125.738281 129.222656 126.425781 Z M 176.882812 135.3125 C 177.242188 135.90625 178.554688 137.546875 179.808594 138.949219 C 181.03125 140.320312 182.316406 142.050781 182.671875 142.765625 C 183 143.480469 184.40625 145.925781 185.808594 148.164062 C 188.433594 152.308594 188.730469 152.902344 194.730469 165.484375 C 198.96875 174.339844 200.222656 177.414062 200.460938 179.320312 C 200.699219 181.320312 200.101562 181.082031 198.757812 178.574219 C 197.148438 175.625 196.789062 175.175781 195.179688 174.3125 C 192.910156 173.089844 192.105469 171.539062 193.386719 170.851562 C 193.714844 170.675781 193.984375 170.347656 193.984375 170.109375 C 193.984375 169.628906 190.730469 162.535156 188.105469 157.347656 C 184.734375 150.578125 179.539062 141.394531 177.898438 139.304688 C 175.628906 136.324219 175.183594 135.640625 175.183594 134.832031 C 175.183594 133.789062 176.136719 134.027344 176.882812 135.3125 Z M 79.800781 187.460938 C 80.160156 188.683594 82.488281 200.222656 83.859375 207.675781 C 85.53125 216.59375 87.652344 230.816406 89.679688 246.707031 C 90.992188 256.90625 92.007812 264.71875 92.964844 271.574219 C 93.230469 273.453125 93.679688 276.046875 94.007812 277.359375 C 94.335938 278.703125 94.515625 279.894531 94.425781 280.042969 C 94.15625 280.460938 92.933594 280.3125 92.457031 279.746094 C 91.710938 278.910156 90.515625 276.375 89.710938 273.84375 C 88.128906 268.921875 87.324219 263.765625 86.25 251.210938 C 85.023438 236.929688 82.609375 217.996094 81.472656 213.523438 C 81.175781 212.269531 80.757812 209.4375 80.578125 207.230469 C 80.398438 205.023438 79.921875 200.492188 79.535156 197.183594 C 78.789062 191.21875 78.609375 187.550781 78.996094 187.164062 C 79.324219 186.804688 79.625 186.925781 79.800781 187.460938 Z M 126.746094 192.113281 C 127.253906 192.796875 128.984375 195.78125 130.566406 198.730469 C 132.179688 201.683594 135.429688 207.050781 137.847656 210.660156 C 142.207031 217.1875 143.21875 218.976562 142.832031 219.394531 C 142.503906 219.722656 138.324219 215.25 135.789062 211.851562 C 134.535156 210.210938 132.207031 206.722656 130.566406 204.097656 C 128.6875 201.089844 126.957031 198.703125 125.882812 197.628906 C 124.925781 196.675781 124.148438 195.78125 124.148438 195.632812 C 124.148438 195.480469 124.390625 195.125 124.6875 194.828125 C 125.046875 194.4375 125.195312 193.84375 125.164062 192.558594 C 125.136719 190.472656 125.433594 190.382812 126.746094 192.113281 Z M 190.613281 221.722656 C 190.820312 222.289062 189.777344 224.761719 186.34375 231.828125 C 181.480469 241.816406 175.480469 250.972656 170.558594 255.980469 C 168.675781 257.890625 167.246094 258.574219 164.617188 258.753906 C 162.109375 258.933594 162.171875 258.546875 164.855469 257.324219 C 167.125 256.308594 170.199219 253.179688 173.390625 248.675781 C 174.585938 246.945312 177.152344 243.339844 179.0625 240.625 C 182.792969 235.378906 183.269531 234.632812 184.015625 232.367188 C 184.285156 231.589844 185.152344 229.652344 185.925781 228.101562 C 186.730469 226.523438 187.507812 224.703125 187.6875 224.015625 C 188.222656 222.050781 190.132812 220.527344 190.613281 221.722656 Z M 237.882812 224.433594 C 238.0625 224.910156 238.601562 227.59375 239.046875 230.429688 C 240.898438 241.402344 241.257812 247.992188 240.363281 252.941406 C 239.703125 256.429688 239.289062 256.90625 236.421875 257.265625 C 233.496094 257.621094 233.46875 257.5625 232.929688 252.375 C 231.765625 241.011719 231.585938 227.863281 232.574219 225.628906 C 233.140625 224.316406 234.363281 223.660156 236.304688 223.628906 C 237.40625 223.628906 237.617188 223.71875 237.882812 224.433594 Z M 214.398438 227.683594 C 214.875 228.9375 215.261719 236.0625 215.292969 244.5 C 215.324219 254.164062 215.171875 255.535156 214.128906 255.535156 C 213.859375 255.535156 213.53125 255.175781 213.351562 254.699219 C 212.996094 253.773438 213.144531 228.96875 213.53125 227.863281 C 213.800781 227.089844 214.128906 227 214.398438 227.683594 Z M 149.996094 232.425781 C 150.261719 233.082031 149.726562 234.394531 148.234375 236.660156 C 146.949219 238.628906 146.234375 240.269531 146.234375 241.164062 C 146.234375 241.402344 146.710938 242.058594 147.308594 242.59375 C 147.90625 243.160156 148.203125 243.636719 147.964844 243.636719 C 146.027344 243.847656 142.085938 243.160156 142.027344 242.625 C 141.878906 241.011719 143.011719 239.074219 145.816406 236.125 C 146.980469 234.902344 148.175781 233.46875 148.441406 232.933594 C 148.949219 231.917969 149.726562 231.679688 149.996094 232.425781 Z M 309.03125 245.007812 C 309.121094 245.457031 309.421875 247.8125 309.660156 250.285156 C 310.136719 255.59375 310.253906 256.21875 310.882812 257.710938 C 311.152344 258.308594 311.269531 258.933594 311.152344 259.054688 C 311.03125 259.171875 306.078125 259.261719 300.136719 259.261719 L 289.335938 259.261719 L 287.097656 260.214844 C 285.875 260.753906 283.574219 261.914062 282.023438 262.78125 C 280.472656 263.675781 274.890625 266.65625 269.636719 269.398438 C 264.386719 272.171875 258.445312 275.421875 256.417969 276.613281 C 252.65625 278.882812 250.269531 280.042969 248.417969 280.550781 C 246.925781 280.96875 240.183594 279.597656 233.078125 277.449219 C 225.945312 275.304688 224.066406 275.125 220.546875 276.257812 C 217.589844 277.210938 212.695312 277.480469 211.800781 276.734375 C 211.054688 276.136719 211.175781 275.71875 212.726562 273.871094 L 214.128906 272.140625 L 214.128906 265.136719 L 216.246094 264.507812 C 217.410156 264.179688 220.246094 263.554688 222.574219 263.167969 C 227.738281 262.242188 228.542969 262.035156 232.363281 260.601562 C 234.003906 259.976562 236.480469 259.230469 237.882812 258.992188 C 239.257812 258.726562 240.601562 258.425781 240.867188 258.335938 C 241.585938 258.128906 241.882812 257.144531 242.777344 252.402344 C 243.226562 250.019531 243.765625 248.019531 244.03125 247.691406 C 244.75 246.917969 245.851562 247.066406 248.539062 248.378906 C 249.882812 249.003906 251.671875 249.75 252.539062 250.019531 C 256.894531 251.328125 266.5625 251.898438 275.605469 251.390625 C 286.261719 250.761719 288.140625 250.347656 290.707031 247.902344 C 291.601562 247.007812 292.855469 246.113281 293.453125 245.84375 C 294.109375 245.574219 296.378906 245.246094 298.945312 245.070312 C 301.390625 244.890625 303.957031 244.652344 304.703125 244.5 C 305.449219 244.382812 306.675781 244.261719 307.421875 244.234375 C 308.703125 244.203125 308.824219 244.261719 309.03125 245.007812 Z M 152.023438 249.242188 C 152.292969 249.660156 151.605469 250.046875 149.039062 251.003906 C 147.695312 251.480469 145.695312 252.433594 144.5625 253.117188 C 143.457031 253.804688 141.996094 254.492188 141.371094 254.667969 C 139.578125 255.148438 138.804688 254.640625 139.90625 253.65625 C 140.5625 253.058594 147.160156 249.390625 147.90625 249.183594 C 148.921875 248.945312 151.875 248.972656 152.023438 249.242188 Z M 154.171875 259.378906 C 155.308594 259.679688 158.320312 260.542969 160.859375 261.289062 C 163.394531 262.035156 167.15625 262.988281 169.214844 263.4375 C 175.183594 264.71875 177.539062 265.3125 179.480469 266.089844 C 180.496094 266.476562 182.941406 267.074219 184.941406 267.429688 C 189.089844 268.148438 191.746094 269.042969 192.195312 269.847656 C 192.550781 270.503906 192.402344 270.621094 191 270.890625 C 189.628906 271.128906 185.71875 270.324219 184.910156 269.609375 C 183.925781 268.742188 183.746094 268.652344 181.152344 268.324219 C 179.808594 268.175781 178.019531 267.757812 177.152344 267.429688 C 176.257812 267.074219 174.289062 266.714844 172.316406 266.566406 C 168.527344 266.238281 166.257812 265.761719 161.605469 264.332031 C 155.128906 262.332031 149.21875 259.679688 149.21875 258.785156 C 149.21875 258.367188 151.367188 258.605469 154.171875 259.378906 Z M 291.902344 262.363281 C 292.917969 262.898438 293.066406 262.929688 294.289062 262.480469 C 295.421875 262.09375 297.421875 262.035156 309.332031 262.183594 C 322.878906 262.363281 328.429688 262.570312 343.054688 263.4375 C 347.171875 263.703125 355.140625 264.03125 360.8125 264.179688 C 374.628906 264.597656 375.492188 264.777344 376.71875 267.253906 C 377.195312 268.175781 377.226562 268.503906 376.925781 269.398438 C 376.390625 271.007812 375.164062 271.816406 372.6875 272.230469 C 370.332031 272.648438 360.125 272.53125 343.652344 271.902344 C 338.90625 271.726562 325.476562 271.488281 313.808594 271.398438 L 292.617188 271.160156 L 288.738281 273.214844 C 283.753906 275.871094 281.457031 277.210938 280.53125 278.078125 C 280.113281 278.464844 278.949219 279.058594 277.996094 279.386719 C 275.636719 280.191406 270.503906 283.054688 265.90625 286.097656 C 263.847656 287.46875 261.164062 289.050781 259.9375 289.585938 C 258.714844 290.152344 256.625 291.285156 255.285156 292.121094 C 252.300781 294 249.972656 295.191406 249.285156 295.191406 C 248.988281 295.191406 248.089844 295.609375 247.253906 296.085938 C 246.449219 296.5625 245.464844 296.980469 245.078125 296.980469 C 244.6875 296.980469 243.972656 297.425781 243.433594 297.992188 C 242.898438 298.5625 241.792969 299.367188 240.929688 299.78125 C 240.0625 300.199219 238.152344 301.304688 236.660156 302.199219 C 235.167969 303.09375 233.257812 304.195312 232.394531 304.613281 C 231.527344 305.0625 229.558594 306.3125 228.007812 307.417969 C 225.050781 309.503906 220.21875 312.425781 216.246094 314.542969 C 213.679688 315.882812 212.667969 316.035156 209.292969 315.4375 C 206.9375 315.019531 206.699219 314.632812 206.875 311.828125 C 207.054688 309.414062 207.324219 309.027344 210.070312 307.507812 C 211.144531 306.910156 213.023438 305.777344 214.25 304.972656 C 215.472656 304.195312 216.753906 303.539062 217.113281 303.539062 C 217.5 303.539062 218.367188 303.0625 219.054688 302.496094 C 219.738281 301.929688 220.484375 301.453125 220.722656 301.453125 C 220.933594 301.453125 222.425781 300.558594 224.035156 299.484375 C 225.648438 298.382812 228.183594 296.832031 229.648438 296.027344 C 231.140625 295.222656 233.914062 293.460938 235.855469 292.148438 C 237.824219 290.839844 239.972656 289.527344 240.628906 289.257812 C 241.316406 288.960938 243.914062 287.527344 246.359375 286.066406 C 248.835938 284.636719 251.972656 282.816406 253.375 282.070312 C 254.777344 281.328125 256.507812 280.3125 257.253906 279.804688 C 258 279.269531 261.011719 277.597656 263.96875 276.046875 C 266.921875 274.5 270.953125 272.230469 272.921875 270.980469 C 276.144531 268.980469 278.710938 267.519531 285.039062 264.09375 C 286.113281 263.496094 287.335938 262.75 287.722656 262.421875 C 288.648438 261.648438 290.5 261.617188 291.902344 262.363281 Z M 124.804688 266.089844 C 129.195312 266.65625 133.011719 267.253906 133.3125 267.402344 C 134.328125 267.96875 132.386719 268.355469 128.535156 268.355469 C 122.179688 268.355469 118.003906 267.582031 116.332031 266.058594 C 115.792969 265.582031 115.851562 265.074219 116.480469 265.074219 C 116.6875 265.074219 120.417969 265.523438 124.804688 266.089844 Z M 98.363281 283.054688 C 99.171875 283.621094 100.722656 284.753906 101.828125 285.589844 C 106.152344 288.839844 110.332031 290.898438 119.40625 294.148438 C 122.417969 295.222656 128.058594 297.21875 131.910156 298.589844 C 138.414062 300.917969 151.695312 305.300781 164.589844 309.355469 C 174.378906 312.425781 180.195312 314.632812 180.703125 315.46875 C 180.824219 315.644531 180.761719 315.972656 180.613281 316.125 C 180.167969 316.570312 174.824219 315.707031 169.960938 314.421875 C 167.839844 313.855469 163.066406 312.605469 159.367188 311.621094 C 155.664062 310.636719 152.261719 309.710938 151.753906 309.503906 C 151.277344 309.324219 148.441406 308.488281 145.488281 307.683594 C 138.832031 305.835938 125.523438 301.691406 115.523438 298.320312 C 104.929688 294.773438 94.992188 290.03125 93.589844 287.886719 C 92.546875 286.304688 93.441406 283.859375 95.5 282.546875 C 96.542969 281.894531 96.722656 281.953125 98.363281 283.054688 Z M 203.832031 292.449219 C 203.117188 300.171875 201.894531 305.925781 199.746094 311.292969 C 197.953125 315.824219 196.460938 318.507812 195.835938 318.390625 C 195.476562 318.328125 195.355469 318.0625 195.417969 317.433594 C 195.625 315.707031 199.65625 302.316406 200.550781 300.4375 C 201.148438 299.128906 201.566406 297.636719 201.773438 295.996094 C 202.28125 291.671875 202.667969 289.765625 203.144531 288.839844 C 203.953125 287.261719 204.191406 288.511719 203.832031 292.449219 Z M 102.035156 506.597656 C 105.078125 507.074219 109.289062 507.640625 111.4375 507.820312 C 116.0625 508.234375 129.433594 507.996094 139.070312 507.339844 C 147.308594 506.773438 149.25 506.773438 149.996094 507.3125 C 150.414062 507.640625 150.472656 507.847656 150.234375 508.085938 C 150.054688 508.265625 147.757812 508.800781 145.101562 509.308594 C 142.445312 509.785156 139.132812 510.53125 137.730469 510.917969 C 132.417969 512.46875 126.925781 513.097656 116.539062 513.335938 C 111.554688 513.484375 108.152344 513.425781 106.273438 513.1875 C 103.050781 512.796875 89.738281 509.519531 89.082031 508.980469 C 88.457031 508.472656 88.515625 508.085938 89.234375 508.085938 C 89.53125 508.085938 90.335938 507.550781 90.992188 506.894531 C 92.15625 505.730469 92.1875 505.703125 94.367188 505.703125 C 95.558594 505.703125 99.023438 506.089844 102.035156 506.597656 Z M 145.28125 522.636719 C 145.339844 523.503906 145.039062 527.199219 144.621094 530.835938 C 143.042969 544.703125 141.160156 568.585938 141.160156 574.996094 C 141.160156 578.992188 141.191406 579.289062 141.996094 580.988281 C 143.070312 583.226562 143.457031 585.046875 143.667969 588.445312 C 143.726562 589.90625 144.292969 593.929688 144.863281 597.390625 C 146.265625 605.621094 149.097656 625.65625 149.515625 630.1875 C 149.964844 635.050781 150.414062 636.628906 152.710938 641.519531 C 156.710938 650.078125 158.171875 653.328125 158.171875 653.746094 C 158.171875 653.984375 158.710938 655.382812 159.367188 656.84375 C 160.617188 659.648438 160.769531 660.273438 160.203125 660.632812 C 159.664062 660.960938 158.558594 659.351562 157.546875 656.726562 C 157.039062 655.414062 155.726562 652.460938 154.621094 650.167969 C 153.515625 647.871094 152.351562 645.246094 152.054688 644.351562 C 151.664062 643.128906 151.128906 642.324219 149.964844 641.222656 C 149.097656 640.386719 148.175781 639.3125 147.933594 638.835938 C 147.21875 637.375 146.59375 634.066406 146.085938 628.996094 C 145.816406 626.371094 145.339844 622.613281 145.011719 620.617188 C 144.710938 618.648438 144.234375 614.058594 143.996094 610.449219 C 143.339844 600.730469 143.101562 599.863281 140.445312 596.972656 C 139.519531 595.988281 138.773438 595.09375 138.773438 595.003906 C 138.773438 594.914062 138.980469 594.496094 139.25 594.078125 C 139.699219 593.425781 139.726562 592.589844 139.550781 587.164062 C 138.773438 561.964844 139.042969 555.257812 141.609375 533.582031 C 142.863281 523.234375 143.457031 520.730469 144.683594 520.96875 C 145.070312 521.027344 145.21875 521.445312 145.28125 522.636719 Z M 154.589844 663.851562 C 155.128906 664.539062 153.128906 665.402344 149.308594 666.117188 C 143.789062 667.191406 141.996094 667.667969 139.699219 668.710938 C 136.328125 670.261719 132.773438 671.1875 128.476562 671.636719 C 124.476562 672.082031 121.851562 672.679688 120.597656 673.484375 C 119.824219 673.992188 117.078125 674.078125 116.597656 673.601562 C 116.390625 673.394531 116.71875 673.097656 117.644531 672.679688 C 119.523438 671.84375 125.882812 670.054688 128.746094 669.546875 C 131.582031 669.039062 132.625 668.742188 137.550781 666.894531 C 140.714844 665.699219 146.441406 664.0625 148.921875 663.644531 C 150.859375 663.316406 154.234375 663.433594 154.589844 663.851562 Z M 165.425781 665.164062 C 166.4375 665.640625 168.886719 667.042969 170.855469 668.265625 C 172.824219 669.488281 174.855469 670.710938 175.332031 670.980469 C 175.839844 671.21875 176.464844 671.695312 176.765625 672.023438 C 177.242188 672.558594 177.242188 672.617188 176.824219 672.796875 C 176.019531 673.097656 163.1875 666.117188 162.050781 664.777344 C 161.394531 664 163.335938 664.238281 165.425781 665.164062 Z M 176.375 676.40625 C 176.375 677.121094 174.554688 678.222656 171.601562 679.328125 C 170.050781 679.925781 167.484375 680.90625 165.929688 681.503906 C 162.617188 682.816406 163.007812 682.785156 147.933594 682.367188 C 140.265625 682.191406 138.386719 682.042969 138.265625 681.714844 C 138.175781 681.472656 138.175781 681.234375 138.265625 681.148438 C 138.742188 680.667969 141.636719 680.371094 150.261719 679.984375 C 161.574219 679.476562 163.78125 679.207031 168.320312 677.835938 C 172.945312 676.433594 175.871094 675.691406 176.167969 675.867188 C 176.285156 675.929688 176.375 676.167969 176.375 676.40625 Z M 176.375 676.40625 "/>
</g>
</svg>
