<?xml version="1.0" encoding="UTF-8"?>
<svg xmlns="http://www.w3.org/2000/svg" xmlns:xlink="http://www.w3.org/1999/xlink" width="382px" height="713px" viewBox="0 0 382 713" version="1.1">
<g id="surface1">
<path style=" stroke:none;fill-rule:nonzero;fill:rgb(0%,0%,0%);fill-opacity:1;" d="M 211.441406 3.757812 C 209.683594 4.175781 207.921875 4.980469 205.921875 6.265625 C 204.699219 7.070312 203.085938 7.875 202.371094 8.054688 C 201.476562 8.292969 195.894531 8.410156 184.613281 8.472656 C 166.738281 8.558594 165.722656 8.621094 156.769531 10.441406 C 151.664062 11.484375 147.695312 12.496094 145.191406 13.453125 C 141.726562 14.734375 137.488281 20.164062 131.460938 30.992188 C 126.984375 39.074219 126.925781 39.132812 120.898438 42.207031 C 115.347656 45.039062 114.511719 46.054688 114.480469 50.109375 C 114.421875 54.523438 115.675781 56.941406 121.074219 62.789062 L 124.390625 66.394531 L 123.226562 73.226562 C 122.566406 77.015625 121.851562 80.773438 121.613281 81.636719 C 121.136719 83.25 120.300781 84.113281 119.226562 84.113281 C 117.703125 84.113281 115.257812 85.8125 111.527344 89.453125 C 105.648438 95.179688 103.558594 98.191406 103.109375 101.621094 C 102.902344 103.261719 102.78125 103.472656 99.796875 107.289062 C 98.8125 108.574219 95.621094 113.078125 92.695312 117.3125 C 89.800781 121.519531 86.339844 126.46875 85.023438 128.320312 C 82.308594 132.105469 80.964844 134.761719 77.800781 142.726562 C 76.578125 145.828125 74.402344 151.136719 72.96875 154.507812 C 71.566406 157.847656 69.925781 162.113281 69.386719 163.933594 C 67.476562 170.257812 65.449219 182.664062 64.640625 192.953125 C 64.164062 199.070312 64.3125 198.203125 59.808594 216.847656 C 57.210938 227.585938 56.464844 229.734375 52.972656 236.980469 C 51.210938 240.589844 48.914062 245.035156 47.871094 246.855469 C 44.496094 252.671875 42.167969 258.425781 39.691406 266.988281 C 39.035156 269.253906 37.753906 272.984375 36.828125 275.308594 C 35.933594 277.636719 34.917969 280.617188 34.589844 281.960938 C 33.367188 287.0625 33.066406 288.074219 32.050781 290.519531 C 30.320312 294.695312 29.007812 298.394531 27.753906 302.722656 C 23.578125 317.128906 20.023438 338.335938 18.652344 356.886719 C 17.699219 370.011719 17.578125 371.652344 16.980469 376.574219 C 16.652344 379.347656 15.816406 385.878906 15.070312 391.039062 C 13.488281 402.285156 13.101562 405.566406 12.085938 416.691406 C 10.59375 433.1875 8.746094 447.683594 7.460938 453.378906 C 6.175781 459.136719 4.328125 465.699219 3.105469 469.097656 C 1.671875 473.035156 1.640625 473.363281 2.359375 474.796875 C 3.105469 476.257812 4.773438 477.71875 7.582031 479.359375 C 8.746094 480.046875 13.25 482.851562 17.609375 485.535156 C 21.964844 488.25 27.636719 491.707031 30.203125 493.230469 C 32.796875 494.78125 37.632812 497.675781 40.945312 499.703125 C 44.289062 501.730469 47.871094 503.847656 48.945312 504.445312 C 52.226562 506.265625 61.597656 509.722656 66.96875 511.125 C 78.21875 514.050781 78.25 514.078125 78.789062 515.988281 C 79.234375 517.75 78.609375 525.5625 77.296875 533.765625 C 74.878906 549.097656 74.789062 556.316406 76.816406 574.929688 C 78.21875 587.753906 78.578125 593.449219 79.085938 613.257812 C 79.445312 627.664062 79.863281 635.507812 80.429688 639.058594 C 80.996094 642.667969 81.414062 649.199219 81.773438 659.9375 C 81.921875 664.859375 82.21875 669.480469 82.367188 670.226562 C 82.546875 670.972656 83.113281 672.195312 83.59375 672.972656 C 84.875 674.96875 85.054688 675.835938 85.324219 681.980469 C 85.53125 686.902344 85.621094 687.617188 86.277344 688.898438 C 86.816406 690.003906 87.324219 690.511719 88.335938 691.015625 C 90.664062 692.179688 93.113281 692.359375 102.960938 692.121094 C 111.824219 691.941406 112.121094 691.941406 114.449219 692.597656 C 115.765625 692.957031 118.75 693.582031 121.046875 693.941406 C 126.238281 694.773438 126.957031 695.101562 127.375 696.863281 C 127.789062 698.445312 129.851562 701.605469 131.015625 702.441406 C 132.597656 703.574219 134.445312 703.722656 143.371094 703.484375 C 156.917969 703.128906 157.902344 703.15625 161.304688 704.023438 C 172.140625 706.824219 188.730469 708.527344 205.773438 708.527344 L 216.515625 708.554688 L 219.976562 707.601562 C 226.1875 705.929688 228.304688 704.5 228.304688 701.964844 C 228.304688 700.710938 228.335938 700.679688 229.140625 700.800781 C 229.589844 700.859375 238.152344 701.007812 248.152344 701.097656 C 273.609375 701.335938 322.371094 702.054688 347.53125 702.589844 C 359.199219 702.828125 370.867188 703.039062 373.464844 703.039062 L 378.210938 703.039062 L 378.03125 693.105469 C 377.910156 687.675781 377.433594 670.703125 376.925781 655.460938 C 375.703125 617.371094 375.253906 600.667969 374.539062 570.601562 C 373.972656 545.578125 373.433594 529.46875 373.195312 528.546875 C 372.988281 527.828125 372.480469 501.105469 372.003906 466.800781 C 371.734375 449.175781 371.40625 427.878906 371.257812 419.527344 C 370.808594 396.023438 370.570312 274.800781 370.898438 258.457031 C 371.078125 250.730469 371.316406 244.050781 371.464844 243.574219 C 371.761719 242.617188 371.941406 242.5 373.972656 241.78125 C 375.644531 241.1875 378.507812 238.679688 379.402344 237.011719 C 380 235.90625 380.058594 235.339844 380.058594 231.699219 C 380.058594 227.046875 379.96875 226.839844 377.34375 224.839844 C 375.285156 223.261719 373.824219 222.871094 368.867188 222.515625 C 358.929688 221.828125 323.773438 221.410156 317.746094 221.886719 C 315.121094 222.097656 314.582031 222.246094 312.074219 223.5 C 310.582031 224.246094 307.929688 225.882812 306.195312 227.109375 C 304.464844 228.359375 302.199219 229.820312 301.125 230.328125 C 300.050781 230.867188 297.242188 232.476562 294.855469 233.9375 C 290.320312 236.742188 277.546875 244.109375 275.101562 245.363281 C 272.175781 246.855469 272.085938 246.644531 271.847656 238.652344 C 271.699219 233.222656 271.546875 231.941406 271.039062 230.476562 C 270.683594 229.523438 268.414062 225.496094 265.996094 221.53125 C 261.96875 214.96875 261.3125 214.074219 258.535156 211.269531 C 256.835938 209.570312 255.460938 208.078125 255.460938 207.929688 C 255.460938 207.300781 256.804688 206.617188 259.34375 205.929688 C 262.175781 205.183594 264.148438 204.257812 265.757812 202.976562 L 266.625 202.261719 L 264.953125 198.742188 C 262 192.625 262.027344 191.226562 265.070312 189.675781 C 266.386719 189.019531 278.144531 185.738281 281.515625 185.082031 C 283.457031 184.722656 284.230469 184.394531 285.722656 183.320312 C 290.023438 180.25 296.976562 172.851562 298.316406 169.867188 C 299.332031 167.632812 299.480469 165.183594 298.886719 159.578125 C 298.585938 156.863281 298.316406 152.570312 298.316406 150.03125 C 298.289062 144.632812 298.46875 145.082031 294.828125 141.351562 C 293.421875 139.953125 291.929688 138.101562 291.515625 137.296875 C 289.84375 134.253906 288.289062 125.425781 289.15625 123.84375 C 289.722656 122.800781 291.125 122.261719 295.363281 121.546875 C 301.75 120.445312 303.09375 119.222656 303.421875 114.269531 C 303.75 109.230469 301.660156 102.875 298.914062 100.699219 C 297.78125 99.773438 297.78125 99.773438 294.140625 99.804688 C 291.78125 99.832031 288.46875 100.160156 284.5 100.789062 C 280.261719 101.445312 277.339844 101.710938 274.800781 101.710938 C 270.265625 101.742188 267.160156 102.128906 265.460938 102.875 C 263.550781 103.710938 261.3125 105.949219 260.535156 107.765625 C 259.9375 109.140625 259.878906 109.644531 260.027344 112.152344 C 260.386719 118.175781 263.402344 124.171875 267.011719 125.992188 C 268.296875 126.648438 269.101562 126.589844 272.773438 125.695312 C 274.503906 125.277344 276.679688 124.917969 277.667969 124.886719 L 279.425781 124.828125 L 279.992188 126.46875 C 280.828125 128.914062 282.023438 135.121094 282.023438 137.058594 C 282.023438 140.28125 281.097656 140.996094 273.996094 143.351562 C 264.414062 146.511719 261.3125 149.289062 258.746094 157.101562 C 257.253906 161.664062 254.714844 167.003906 253.222656 168.765625 C 251.972656 170.195312 251.671875 170.195312 249.046875 168.882812 C 246.867188 167.78125 245.464844 167.898438 241.734375 169.480469 C 240.003906 170.226562 237.855469 170.972656 236.960938 171.179688 C 233.617188 171.925781 231.050781 172.820312 227.707031 174.402344 C 221.082031 177.5625 219.082031 178.042969 217.203125 176.9375 C 216.007812 176.25 213.710938 173.148438 209.59375 166.648438 C 205.207031 159.726562 202.90625 156.355469 199.65625 152.269531 C 195.296875 146.722656 195.027344 146.183594 196.074219 145.171875 C 196.730469 144.574219 196.761719 144.425781 196.582031 140.90625 C 196.492188 138.878906 196.519531 136.820312 196.671875 136.3125 C 196.820312 135.804688 197.773438 134.3125 198.789062 132.941406 C 199.804688 131.597656 200.757812 130.136719 200.90625 129.71875 C 201.59375 127.691406 207.414062 126.765625 219.320312 126.765625 C 228.664062 126.765625 232.421875 126.410156 234.453125 125.394531 C 236.363281 124.441406 238.363281 122.5625 238.929688 121.21875 C 240.363281 117.820312 238.003906 111.226562 233.527344 106.1875 C 232.304688 104.785156 231.050781 103.203125 230.78125 102.667969 C 230.273438 101.710938 230.273438 101.59375 230.960938 99.742188 C 231.855469 97.207031 231.675781 96.34375 229.589844 93.449219 C 224.933594 87.035156 224.84375 85.964844 228.601562 83.667969 C 231.527344 81.875 233.617188 78.894531 233.734375 76.359375 C 233.796875 74.808594 232.78125 73.347656 229.675781 70.632812 C 223.679688 65.324219 222.632812 64.097656 222.632812 62.28125 C 222.632812 60.9375 223.289062 60.074219 224.960938 59.238281 C 226.753906 58.3125 227.410156 57.597656 227.738281 56.074219 C 228.097656 54.464844 227.679688 52.796875 226.363281 50.828125 C 223.886719 47.039062 221.53125 41.042969 220.8125 36.777344 C 220.367188 34.09375 220.722656 32.542969 222.335938 29.828125 C 224.367188 26.425781 226.214844 21.058594 226.214844 18.582031 C 226.214844 16.496094 224.1875 11.425781 222.214844 8.558594 C 220.964844 6.742188 219.054688 5.160156 217.144531 4.355469 C 215.949219 3.847656 212.515625 3.488281 211.441406 3.757812 Z M 135.042969 92.285156 C 136.863281 93.152344 141.609375 95.6875 145.636719 97.894531 C 149.667969 100.132812 158.230469 104.695312 164.707031 108.09375 C 176.824219 114.417969 179.269531 115.910156 179.480469 117.015625 C 179.570312 117.371094 179.71875 119.070312 179.808594 120.800781 C 179.929688 122.53125 180.195312 125.394531 180.433594 127.183594 C 180.734375 129.242188 180.792969 130.527344 180.613281 130.703125 C 180.40625 130.914062 179.898438 130.855469 179.152344 130.617188 C 177.988281 130.199219 175.628906 127.960938 171.75 123.636719 C 167.246094 118.566406 156.410156 109.558594 148.621094 104.335938 C 145.90625 102.519531 142.890625 100.429688 141.90625 99.683594 C 140.921875 98.9375 138.503906 97.089844 136.535156 95.597656 C 134.566406 94.078125 132.386719 92.496094 131.699219 92.046875 C 131.015625 91.601562 130.386719 91.003906 130.296875 90.765625 C 130.027344 90.078125 131.253906 90.46875 135.042969 92.285156 Z M 120.570312 104.902344 C 124.328125 106.304688 133.550781 110.75 137.488281 113.105469 C 140.535156 114.925781 143.398438 117.519531 142.652344 117.757812 C 142.265625 117.910156 125.703125 109.707031 120.417969 106.78125 C 118.628906 105.769531 116.808594 104.605469 116.390625 104.1875 L 115.644531 103.441406 L 116.6875 103.652344 C 117.257812 103.769531 119.015625 104.335938 120.570312 104.902344 Z M 182.914062 119.578125 C 183.449219 120.144531 184.972656 123.546875 187.328125 129.511719 C 190.96875 138.667969 191.6875 140.785156 191.03125 140.785156 C 190.253906 140.785156 188.910156 139.832031 187.628906 138.398438 C 186.464844 137.117188 186.105469 136.371094 185.0625 133.089844 C 183.390625 127.929688 181.75 121.847656 181.539062 120.117188 C 181.332031 118.445312 181.71875 118.296875 182.914062 119.578125 Z M 247.972656 173.179688 C 248.480469 173.597656 249.761719 175.59375 250.894531 177.714844 C 251.972656 179.800781 254 183.5 255.402344 185.914062 C 256.777344 188.363281 259.164062 192.925781 260.714844 196.058594 L 263.550781 201.785156 L 262.566406 202.203125 C 262.027344 202.410156 259.910156 203.1875 257.851562 203.902344 L 254.121094 205.183594 L 253.730469 204.4375 C 253.523438 204.019531 252.746094 201.933594 252 199.816406 C 250.628906 195.789062 248.628906 191.195312 244.332031 182.097656 C 242.929688 179.144531 241.585938 176.042969 241.347656 175.179688 L 240.898438 173.65625 L 241.703125 173.296875 C 242.601562 172.941406 244.925781 172.492188 246.269531 172.433594 C 246.71875 172.402344 247.433594 172.730469 247.972656 173.179688 Z M 226.542969 190.988281 C 229.558594 195.460938 230.871094 197.996094 230.394531 198.472656 C 229.855469 199.011719 229.199219 198.382812 227.351562 195.640625 C 225.527344 192.925781 222.007812 186.273438 222.039062 185.527344 C 222.066406 184.84375 223.917969 187.078125 226.542969 190.988281 Z M 146.652344 206.46875 C 150.53125 208.824219 154.980469 212.222656 157.992188 215.085938 C 161.246094 218.1875 161.871094 218.726562 168.765625 224.09375 C 175.808594 229.613281 180.433594 233.460938 183.390625 236.234375 C 184.703125 237.457031 187.808594 239.8125 190.253906 241.425781 C 192.730469 243.066406 196.222656 245.363281 198.011719 246.554688 C 202.28125 249.390625 206.042969 252.402344 206.964844 253.773438 C 207.710938 254.847656 207.710938 254.878906 207.117188 254.964844 C 206.21875 255.117188 203.683594 254.222656 201.207031 252.910156 C 197.117188 250.730469 189.957031 245.035156 182.226562 237.757812 C 176.703125 232.535156 172.765625 229.285156 163.84375 222.484375 C 159.484375 219.144531 153.992188 214.878906 151.605469 213 C 143.070312 206.167969 140.414062 202.707031 146.652344 206.46875 Z M 338.875 224.902344 C 361.734375 225.496094 372.597656 226.0625 374.808594 226.78125 C 376.328125 227.285156 376.984375 228.75 377.015625 231.699219 C 377.046875 234.714844 376.480469 236.085938 375.105469 236.355469 C 372.808594 236.773438 366.601562 237.128906 356.78125 237.429688 C 323.207031 238.441406 322.640625 238.472656 319.03125 240.113281 C 317.628906 240.738281 315.777344 241.542969 314.941406 241.871094 C 312.136719 242.976562 309.6875 244.316406 307.539062 245.929688 C 306.40625 246.792969 304.167969 248.285156 302.617188 249.238281 C 301.0625 250.195312 298.078125 252.132812 296.019531 253.59375 C 293.929688 255.027344 291.246094 256.667969 290.050781 257.234375 C 288.828125 257.769531 287.15625 258.816406 286.292969 259.53125 C 285.457031 260.277344 282.171875 262.304688 278.980469 264.09375 C 275.816406 265.882812 271.011719 268.746094 268.296875 270.476562 C 265.578125 272.207031 260.625 275.339844 257.253906 277.425781 C 250.835938 281.453125 246.957031 283.929688 242.421875 287.03125 C 240.929688 288.046875 238.183594 289.6875 236.332031 290.671875 C 234.480469 291.65625 231.410156 293.296875 229.527344 294.308594 C 227.617188 295.351562 225.828125 296.1875 225.527344 296.1875 C 224.78125 296.1875 222.277344 297.5 219.710938 299.230469 C 215.769531 301.886719 214.488281 302.214844 213.53125 300.78125 C 212.90625 299.796875 211.980469 296.160156 211.59375 293.117188 C 211.351562 291.117188 211.382812 290.582031 211.742188 290.042969 C 212.488281 288.910156 217.859375 285.09375 226.1875 279.785156 C 230.574219 277.007812 235.289062 273.9375 236.660156 272.921875 C 243.136719 268.328125 248.089844 265.464844 249.671875 265.464844 C 250.480469 265.464844 255.761719 262.78125 258.746094 260.84375 C 259.96875 260.066406 263.011719 257.890625 265.488281 256.011719 C 270.382812 252.371094 275.726562 249.03125 282.589844 245.332031 C 284.976562 244.078125 288.917969 241.753906 291.363281 240.203125 C 293.8125 238.652344 297.332031 236.652344 299.183594 235.789062 C 301.0625 234.894531 303.867188 233.429688 305.449219 232.507812 C 307.03125 231.550781 311.300781 229.34375 314.941406 227.585938 L 321.566406 224.363281 L 324.402344 224.484375 C 325.953125 224.542969 332.488281 224.75 338.875 224.902344 Z M 351.320312 242.5 L 367.375 242.5 L 367.375 275.367188 C 367.40625 365.597656 369.285156 519.925781 370.808594 554.644531 C 371.078125 560.789062 371.554688 577.464844 372.003906 597.449219 C 372.449219 617.371094 372.570312 621.609375 373.046875 635.925781 C 373.226562 640.609375 373.554688 651.523438 373.792969 660.234375 C 374.269531 676.9375 374.269531 677.085938 375.015625 690.75 C 375.285156 695.550781 375.464844 699.519531 375.40625 699.546875 C 375.226562 699.667969 336.636719 699.25 311.417969 698.890625 C 267.667969 698.234375 237.765625 697.578125 230.246094 697.132812 L 226.960938 696.921875 L 226.753906 694.894531 C 225.917969 686.484375 225.113281 611.167969 224.394531 477.242188 C 224.097656 416.511719 224.1875 305.613281 224.574219 301.945312 L 224.78125 300.125 L 228.542969 298.425781 C 233.796875 296.039062 238.628906 293.5625 239.585938 292.757812 C 241.40625 291.238281 262.746094 277.964844 277.546875 269.105469 C 281.21875 266.898438 286.648438 263.527344 289.632812 261.589844 C 296.617188 257.023438 300.378906 254.9375 314.105469 247.957031 L 325.445312 242.171875 L 330.339844 242.320312 C 333.027344 242.4375 342.457031 242.5 351.320312 242.5 Z M 219.203125 260.214844 C 220.039062 260.574219 221.886719 261.679688 223.351562 262.632812 C 226.753906 264.808594 230.183594 266.480469 233.257812 267.40625 C 234.570312 267.824219 235.914062 268.359375 236.242188 268.597656 C 236.78125 269.046875 236.78125 269.074219 235.945312 269.792969 C 235.4375 270.179688 233.230469 271.492188 231.019531 272.683594 C 228.8125 273.878906 224.960938 276.203125 222.484375 277.816406 C 215.5 282.40625 209.742188 285.777344 209.085938 285.6875 C 208.160156 285.570312 207.652344 284.316406 207.863281 282.765625 C 207.953125 282.019531 208.457031 279.871094 208.996094 277.992188 C 209.921875 274.710938 209.949219 274.324219 209.949219 268.984375 L 209.949219 263.40625 L 211.414062 261.917969 C 212.21875 261.082031 213.292969 260.214844 213.800781 259.976562 C 215.171875 259.292969 217.472656 259.382812 219.203125 260.214844 Z M 210.101562 305.433594 C 211.382812 306.390625 211.949219 306.628906 212.996094 306.628906 C 213.921875 306.628906 215.023438 306.269531 216.726562 305.433594 C 218.066406 304.777344 219.410156 304.242188 219.679688 304.242188 C 220.097656 304.242188 220.1875 304.808594 220.335938 308.777344 C 220.484375 313.28125 220.84375 377.707031 221.441406 515.273438 C 221.949219 627.753906 222.515625 686.421875 223.171875 690.75 C 223.378906 692.089844 223.351562 692.300781 222.960938 692.179688 C 222.097656 691.941406 217.769531 691.136719 213.234375 690.359375 C 207.621094 689.4375 204.757812 688.691406 201.027344 687.199219 C 196.847656 685.527344 193.597656 683.53125 191.148438 681.113281 C 189.386719 679.382812 188.761719 678.488281 187.597656 676.074219 C 186.015625 672.703125 184.226562 669.929688 179.660156 663.515625 C 174.019531 655.640625 171.542969 651.257812 171.035156 648.15625 C 170.886719 647.261719 170.675781 640.875 170.585938 633.988281 C 170.4375 621.726562 170.289062 617.96875 169.363281 603.113281 C 168.675781 592.347656 168.109375 585.039062 167.273438 577.136719 C 166.378906 568.574219 166.347656 564.578125 167.15625 559.148438 C 168.46875 550.140625 170.734375 539.253906 172.496094 533.527344 L 173.421875 530.632812 L 185.867188 530.8125 C 199.625 531.023438 200.28125 530.960938 201.921875 529.320312 C 203.625 527.621094 203.683594 526.964844 203.652344 513.632812 C 203.625 502.507812 203.355469 495.882812 202.609375 488.128906 C 202.160156 483.417969 201.921875 447.058594 202.3125 439.957031 C 202.488281 436.585938 202.757812 433.394531 202.9375 432.828125 C 203.085938 432.261719 203.386719 429.785156 203.59375 427.3125 C 204.101562 421.046875 204.070312 386.953125 203.5625 381.347656 C 203.386719 379.050781 203.117188 371.921875 203.027344 365.507812 C 202.847656 352.949219 203.058594 348.835938 204.28125 339.738281 C 205.175781 333.085938 205.773438 327.238281 206.519531 317.367188 C 207.117188 309.609375 207.621094 304.929688 207.890625 304.480469 C 208.160156 304.0625 208.457031 304.210938 210.101562 305.433594 Z M 91.621094 516.464844 C 99.410156 517.628906 111.617188 520.523438 116.839844 522.402344 C 123.402344 524.789062 128.835938 525.683594 142.207031 526.605469 C 152.890625 527.324219 156.976562 527.859375 156.976562 528.546875 C 156.976562 528.964844 153.992188 528.902344 146.53125 528.398438 C 134.59375 527.5625 127.671875 526.726562 121.285156 525.382812 C 119.285156 524.964844 117.136719 524.667969 116.511719 524.726562 L 115.347656 524.816406 L 115.167969 531.679688 C 114.957031 539.851562 115.375 577.582031 115.792969 587.8125 C 115.941406 591.78125 116.269531 597.539062 116.539062 600.640625 C 116.777344 603.710938 117.105469 608.992188 117.285156 612.363281 C 118.0625 627.214844 118.507812 632.644531 119.851562 642.1875 C 120.777344 648.929688 121.851562 654.476562 122.65625 656.566406 C 123.164062 657.878906 123.253906 658.863281 123.253906 662.324219 C 123.253906 666.738281 123.195312 666.378906 125.464844 675.089844 C 126.507812 679.144531 126.835938 681.949219 126.238281 682.308594 C 125.851562 682.546875 124.65625 680.070312 123.730469 677.058594 C 122.480469 672.910156 121.492188 667.691406 121.195312 663.367188 C 120.835938 658.652344 120.242188 654.300781 119.078125 647.707031 C 117.433594 638.667969 116.957031 634.433594 116.6875 627.125 C 116.390625 618.894531 116.332031 618 115.347656 603.5625 C 113.945312 582.800781 113.375 566.726562 113.316406 547.1875 C 113.316406 538.148438 113.40625 532.394531 113.675781 529.53125 C 113.914062 527.234375 114.003906 524.847656 113.882812 524.25 C 113.703125 523.238281 113.585938 523.175781 111.675781 522.609375 C 110.570312 522.28125 105.257812 520.941406 99.855469 519.597656 C 87.742188 516.613281 84.515625 515.390625 91.621094 516.464844 Z M 91.621094 516.464844 "/>
</g>
</svg>
