<?xml version="1.0" encoding="UTF-8"?>
<svg enable-background="new 0 0 800 600" viewBox="0 0 800 600" xmlns="http://www.w3.org/2000/svg">
 <defs>
  <linearGradient id="i" x1="278.25" x2="337.44" y1="510.56" y2="262.26" gradientUnits="userSpaceOnUse">
   <stop stop-color="#fff" offset="0"/>
   <stop stop-color="#fcfcfc" offset=".1979"/>
   <stop stop-color="#f3f3f3" offset=".332"/>
   <stop stop-color="#e4e4e4" offset=".4474"/>
   <stop stop-color="#cecece" offset=".5521"/>
   <stop stop-color="#b3b3b3" offset=".6497"/>
   <stop stop-color="#909090" offset=".7419"/>
   <stop stop-color="#686868" offset=".8299"/>
   <stop stop-color="#383838" offset=".9145"/>
   <stop stop-color="#040404" offset=".9939"/>
   <stop offset="1"/>
  </linearGradient>
  <linearGradient id="h" x1="579.87" x2="594.87" y1="46.078" y2="125.57" gradientUnits="userSpaceOnUse">
   <stop stop-color="#e5e1df" offset="0"/>
   <stop stop-color="#eeedee" offset="0"/>
   <stop stop-color="#f1f1f2" offset="0"/>
   <stop stop-color="#fff" offset="0"/>
   <stop stop-color="#f9f9fa" offset=".0333"/>
   <stop stop-color="#e8eaea" offset=".0778"/>
   <stop stop-color="#ccd0d1" offset=".1284"/>
   <stop stop-color="#adb3b5" offset=".1742"/>
   <stop stop-color="#e2e4e5" offset=".3315"/>
   <stop stop-color="#f1f1f2" offset=".4944"/>
   <stop stop-color="#acb1b5" offset=".8319"/>
   <stop stop-color="#9aa0a5" offset=".9157"/>
  </linearGradient>
  <linearGradient id="g" x1="230.1" x2="191.11" y1="-17.544" y2="178.95" gradientUnits="userSpaceOnUse">
   <stop stop-color="#e5e1df" offset="0"/>
   <stop stop-color="#eeedee" offset="0"/>
   <stop stop-color="#f1f1f2" offset="0"/>
   <stop stop-color="#fff" offset="0"/>
   <stop stop-color="#f9f9fa" offset=".0333"/>
   <stop stop-color="#e8eaea" offset=".0778"/>
   <stop stop-color="#ccd0d1" offset=".1284"/>
   <stop stop-color="#adb3b5" offset=".1742"/>
   <stop stop-color="#e2e4e5" offset=".3315"/>
   <stop stop-color="#f1f1f2" offset=".4944"/>
   <stop stop-color="#acb1b5" offset=".8319"/>
   <stop stop-color="#9aa0a5" offset=".9157"/>
  </linearGradient>
  <linearGradient id="f" x1="270.19" x2="172.69" y1="-53.643" y2="268.84" gradientUnits="userSpaceOnUse">
   <stop stop-color="#fff" offset="0"/>
   <stop stop-color="#7c7c7c" offset="1"/>
  </linearGradient>
  <linearGradient id="e" x1="285.79" x2="263.29" y1=".9136" y2="189.9" gradientUnits="userSpaceOnUse">
   <stop stop-color="#e5e1df" offset="0"/>
   <stop stop-color="#eeedee" offset="0"/>
   <stop stop-color="#f1f1f2" offset="0"/>
   <stop stop-color="#fff" offset="0"/>
   <stop stop-color="#f9f9fa" offset=".0333"/>
   <stop stop-color="#e8eaea" offset=".0778"/>
   <stop stop-color="#ccd0d1" offset=".1284"/>
   <stop stop-color="#adb3b5" offset=".1742"/>
   <stop stop-color="#e2e4e5" offset=".3315"/>
   <stop stop-color="#f1f1f2" offset=".4944"/>
   <stop stop-color="#acb1b5" offset=".8319"/>
   <stop stop-color="#9aa0a5" offset=".9157"/>
  </linearGradient>
  <linearGradient id="d" x1="326.85" x2="269.85" y1="54.834" y2="212.33" gradientUnits="userSpaceOnUse">
   <stop stop-color="#fff" offset="0"/>
   <stop stop-color="#7c7c7c" offset="1"/>
  </linearGradient>
  <linearGradient id="c" x1="397.42" x2="376.42" y1="31.725" y2="262.71" gradientUnits="userSpaceOnUse">
   <stop stop-color="#e5e1df" offset="0"/>
   <stop stop-color="#eeedee" offset="0"/>
   <stop stop-color="#f1f1f2" offset="0"/>
   <stop stop-color="#fff" offset="0"/>
   <stop stop-color="#f9f9fa" offset=".0333"/>
   <stop stop-color="#e8eaea" offset=".0778"/>
   <stop stop-color="#ccd0d1" offset=".1284"/>
   <stop stop-color="#adb3b5" offset=".1742"/>
   <stop stop-color="#e2e4e5" offset=".3315"/>
   <stop stop-color="#f1f1f2" offset=".4944"/>
   <stop stop-color="#acb1b5" offset=".8319"/>
   <stop stop-color="#9aa0a5" offset=".9157"/>
  </linearGradient>
  <linearGradient id="b" x1="465.78" x2="347.29" y1="48.854" y2="315.84" gradientUnits="userSpaceOnUse">
   <stop stop-color="#fff" offset="0"/>
   <stop stop-color="#7c7c7c" offset="1"/>
  </linearGradient>
  <linearGradient id="a" x1="456.1" x2="453.1" y1="-.0234" y2="351.98" gradientUnits="userSpaceOnUse">
   <stop stop-color="#e5e1df" offset="0"/>
   <stop stop-color="#eeedee" offset="0"/>
   <stop stop-color="#f1f1f2" offset="0"/>
   <stop stop-color="#fff" offset="0"/>
   <stop stop-color="#f9f9fa" offset=".0333"/>
   <stop stop-color="#e8eaea" offset=".0778"/>
   <stop stop-color="#ccd0d1" offset=".1284"/>
   <stop stop-color="#adb3b5" offset=".1742"/>
   <stop stop-color="#e2e4e5" offset=".3315"/>
   <stop stop-color="#f1f1f2" offset=".4944"/>
   <stop stop-color="#acb1b5" offset=".8319"/>
   <stop stop-color="#9aa0a5" offset=".9157"/>
  </linearGradient>
  <linearGradient id="j" x1="475.1" x2="472.1" y1=".1382" y2="352.14" gradientUnits="userSpaceOnUse">
   <stop stop-color="#e5e1df" offset="0"/>
   <stop stop-color="#eeedee" offset="0"/>
   <stop stop-color="#f1f1f2" offset="0"/>
   <stop stop-color="#fff" offset="0"/>
   <stop stop-color="#f9f9fa" offset=".0333"/>
   <stop stop-color="#e8eaea" offset=".0778"/>
   <stop stop-color="#ccd0d1" offset=".1284"/>
   <stop stop-color="#adb3b5" offset=".1742"/>
   <stop stop-color="#e2e4e5" offset=".3315"/>
   <stop stop-color="#f1f1f2" offset=".4944"/>
   <stop stop-color="#acb1b5" offset=".8319"/>
   <stop stop-color="#9aa0a5" offset=".9157"/>
  </linearGradient>
 </defs>
 <path d="m201.39 212.83c-28.917 0-145.91 77.133-60.415 62.134 18.917 0-25.758 62.719 42.117 31.788 11.169 0 84.857 25.724 87.637 66.157 2.126 30.931 13.317 8.162 67.446 28.782s8.162 108.69 190.31-22.769c11.599-11.599 28.798-42.519-29.849-65.077s-297.24-101.02-297.24-101.02z" fill="url(#i)" stroke="#fff"/>
 <path d="m533.56 214.95s201.42-78.521 198.55-98.073c-4.841-32.963-157.66 33.078-202.77 78.186 0 8.591 4.218 19.887 4.218 19.887z" fill="#4d4d4d" stroke="#fff"/>
 <path d="m488.32 323.32s-85.394 54.328-104.32 52.688c-63.5-5.5 34.28-61.279 39-66s65.322 13.312 65.322 13.312" fill="#999"/>
 <g stroke="#b2b2b2">
  <path d="m452.34 115.89 29.318 0.977c4.153-12.46 21.986-15.636 31.76-5.863 20.707 0 175.44-49.566 200.29-38.967 21.835 10.549 16.427 25.546 4.188 37.784-27.442 27.442-186.4 27.333-193.24 43.206-46.647 8.795-72.318-37.137-72.318-37.137z" fill="url(#h)"/>
  <path d="m185.9 97.643c-25.194 53.171 7.273 95.951 16.435 115.45-131.17-34.081-38.086-248.33 79.539-169.56-8.216 2.592-68.716-3.42-95.974 54.108z" fill="url(#g)"/>
  <path d="m199.94 109.3c-25.194 53.171-6.771 84.297 2.391 103.79-86.761-40.067-4.025-210.59 85.076-167.13-8.217 2.593-60.209 5.805-87.467 63.333z" fill="url(#f)"/>
  <path d="m245.98 116.69c-27.306 57.942 62.982 112.84 29.353 123.84-65.859 21.546-110.66-60.461-79.144-132.74 27.667-63.457 120.74-96.979 159.14-20.401 15.463 30.84-79.807-33.392-109.35 29.298z" fill="url(#e)"/>
  <path d="m380.5 98.177c-54.5 14.5-95.5 159.5-73 157l-50.5-23c-84.5-17-7.5-225.5 88.5-149l35 15z" fill="url(#d)"/>
  <path d="m367.83 177.84c-45.498 106.83 35.408 132.6 15.072 128.13-93.404 8.201-95.941-84.151-70.823-143.88 22.801-54.221 96.919-114.42 158.9-40.528-42.394-4.303-75.988-7.502-103.15 56.277z" fill="url(#c)"/>
  <path d="m397 195.18c-23.939 50.398 18.536 122.05-14.259 110.43-32.328-11.45-45.709-65.887-24.697-118.26 28.956-72.171 80.198-79.598 111.49-65.495 30.953 13.948-46.637 18.799-72.537 73.324z" fill="url(#b)"/>
  <path d="m422.62 341.36c-109.96-35.625-9.625-277.19 100.29-208.8 59.414 48.613-149.88 127.81-100.29 208.8z" fill="url(#a)"/>
  <path d="m531.5 265.68c-27.306 57.942-74.532 87.485-108 76-32.991-11.321-34.202-69.567-8.765-129.15 23.092-54.092 72.83-96.176 104.62-81.817 31.442 14.201 41.688 72.281 12.145 134.97z" fill="url(#j)"/>
 </g>
</svg>
