<?xml version="1.0" encoding="UTF-8"?>
<svg xmlns="http://www.w3.org/2000/svg" xmlns:xlink="http://www.w3.org/1999/xlink" width="480px" height="342px" viewBox="0 0 479 342" version="1.1">
<g id="surface1">
<path style="fill-rule:nonzero;fill:rgb(0%,0%,0%);fill-opacity:1;stroke-width:0.216;stroke-linecap:butt;stroke-linejoin:miter;stroke:rgb(0%,0%,0%);stroke-opacity:1;stroke-miterlimit:4;" d="M 35.310796 211.132216 L 38.647811 223.246489 L 41.969622 235.149027 L 45.306637 247.112062 L 48.658854 259.120468 L 52.041477 271.174245 L 55.439303 283.273395 L 58.859933 295.410354 L 62.288164 307.562437 L 65.7392 319.767455 L 69.197837 331.987596 L 72.664075 344.245547 L 76.153118 356.503497 L 79.64216 368.784134 L 83.131203 381.079895 L 93.636338 417.982301 L 97.117779 430.2705 L 100.629625 442.56626 L 104.095864 454.846897 L 107.592508 467.11241 L 111.051145 479.355237 L 114.517383 491.567816 L 117.968419 503.780395 L 121.39665 515.932478 L 124.809678 528.069438 L 128.222707 540.145902 L 131.582526 552.199679 L 134.957547 564.200523 L 138.279359 576.148433 L 141.585968 588.050972 L 144.90778 600.036692 L 145.303053 601.155863 L 145.903563 602.327968 L 146.6485 603.40933 L 147.507459 604.384824 L 148.442431 605.262012 L 149.461018 606.063581 L 150.563221 606.78953 L 151.741438 607.432297 L 152.972865 608.02213 L 154.280306 608.566592 L 155.656159 609.050558 L 157.085222 609.474028 L 158.567495 609.852127 L 160.118181 610.177291 L 161.737279 610.472208 L 163.394384 610.714191 L 165.127504 610.910802 L 166.89863 611.046918 L 168.722966 611.137661 L 170.600511 611.198157 L 172.531267 611.198157 L 174.492428 611.152785 L 176.514401 611.05448 L 178.559177 610.910802 L 180.641961 610.706629 L 182.777954 610.449522 L 184.936752 610.162168 L 187.110752 609.799193 L 189.330361 609.375723 L 191.565172 608.906881 L 193.837991 608.377543 L 195.890369 607.848205 L 216.619386 604.468005 L 237.462425 600.981938 L 258.267456 597.450499 L 279.004075 593.84344 L 299.687484 590.191009 L 320.340488 586.493206 L 340.955484 582.750032 L 361.540075 578.969048 L 382.086659 575.165377 L 402.610439 571.316336 L 423.103813 567.45217 L 443.581984 563.557756 L 464.044953 559.65578 L 484.492719 555.731119 L 525.357844 547.874233 L 545.798009 543.934448 L 566.230572 540.017348 L 586.670736 536.085124 L 607.126103 532.183149 L 627.596673 528.296297 L 648.082446 524.424569 L 668.583421 520.583089 L 689.122404 516.779419 L 709.691792 512.998435 L 730.276383 509.262822 L 750.906582 505.56502 L 771.597592 501.927713 L 792.303806 498.320654 L 813.07083 494.796777 L 833.898666 491.318271 L 855.106572 487.847328 L 856.763677 487.28018 L 858.230747 486.660099 L 859.71302 485.93415 L 861.164887 485.102333 L 862.624356 484.157087 L 864.053419 483.113535 L 865.482482 481.948992 L 866.896343 480.678582 L 868.272196 479.309865 L 869.617644 477.835281 L 870.947889 476.239706 L 872.232526 474.530701 L 873.479155 472.730953 L 874.695379 470.817775 L 875.84319 468.791167 L 876.952995 466.636006 L 878.001988 464.374978 L 878.99017 462.023205 L 879.917541 459.558004 L 880.776499 456.97181 L 881.551842 454.264626 L 882.258772 451.459135 L 882.882087 448.532654 L 883.429388 445.500304 L 883.87787 442.346963 L 884.227535 439.072631 L 884.463178 435.684869 L 884.63801 432.19124 L 884.676017 428.584181 L 884.615206 424.848568 L 884.41757 421.007088 L 884.067905 416.295982 L 696.685796 53.366868 L 57.142017 152.095928 L 54.405513 152.647952 L 51.83624 153.290719 L 49.434197 154.02423 L 47.191784 154.848484 L 45.109001 155.778607 L 43.178245 156.807034 L 41.399517 157.948891 L 39.765217 159.204178 L 38.290545 160.588018 L 36.975503 162.062602 L 35.835293 163.643054 L 34.854712 165.314249 L 34.02616 167.04594 L 33.342034 168.845688 L 32.809936 170.713494 L 32.39946 172.626672 L 32.12581 174.592784 L 31.928173 176.596706 L 31.844558 178.653561 L 31.829355 180.76335 L 31.897768 182.926073 L 32.026991 185.149292 L 32.209425 187.425445 L 32.45267 189.769655 L 32.718719 192.174361 L 33.030376 194.639562 L 33.372439 197.172822 L 33.737306 199.759015 L 34.109775 202.435952 L 34.497446 205.173385 L 34.885118 207.978875 Z M 35.310796 211.132216 " transform="matrix(0.513886,0,0,0.516565,2.061321,0.112219)"/>
<path style="fill-rule:nonzero;fill:rgb(0%,0%,0%);fill-opacity:1;stroke-width:0.216;stroke-linecap:butt;stroke-linejoin:miter;stroke:rgb(0%,0%,0%);stroke-opacity:1;stroke-miterlimit:4;" d="M 36.283775 210.943166 L 39.613189 222.98182 L 42.919797 234.884359 L 46.249211 246.847393 L 49.616631 258.848237 L 52.991652 270.909576 L 56.389478 282.993602 L 59.802507 295.122999 L 63.238339 307.297769 L 66.681774 319.495224 L 70.148012 331.722927 L 73.621852 343.965754 L 77.103293 356.231267 L 80.584734 368.511903 L 84.088979 380.79254 L 87.578022 393.103425 L 98.083156 430.013393 L 101.564598 442.301592 L 105.05364 454.574666 L 108.535081 466.840179 L 112.008921 479.083006 L 115.459957 491.303147 L 118.918594 503.49304 L 122.354426 515.66781 L 125.775056 527.789645 L 129.165281 539.888795 L 132.540302 551.93501 L 135.900121 563.950978 L 139.229534 575.883764 L 142.536143 587.793865 L 145.842752 599.726651 L 146.207619 600.755079 L 146.75492 601.821316 L 147.423843 602.789248 L 148.199186 603.696684 L 149.08855 604.520939 L 150.046326 605.25445 L 151.087718 605.927465 L 152.197522 606.547547 L 153.383341 607.129818 L 154.637572 607.63647 L 155.952614 608.105312 L 157.34367 608.513658 L 158.787936 608.891757 L 160.308216 609.216921 L 161.889307 609.496714 L 163.53121 609.731135 L 165.211119 609.920185 L 166.967042 610.063862 L 168.760973 610.147044 L 170.608113 610.192415 L 172.516064 610.207539 L 174.454421 610.162168 L 176.445988 610.063862 L 178.475562 609.920185 L 180.543142 609.723573 L 182.641129 609.474028 L 184.784724 609.163988 L 186.943521 608.823699 L 189.132724 608.407791 L 191.352333 607.931387 L 193.594746 607.417173 L 195.685131 606.887835 L 216.467358 603.492511 L 237.295194 599.998882 L 258.092624 596.467443 L 278.829243 592.860384 L 299.520254 589.215515 L 320.180858 585.517712 L 340.780652 581.7821 L 361.365243 578.001116 L 381.904226 574.197445 L 402.420404 570.355966 L 422.921379 566.484238 L 443.391949 562.597386 L 463.854918 558.680286 L 484.295082 554.763187 L 504.742848 550.830963 L 525.167809 546.906301 L 545.600372 542.966516 L 566.048138 539.02673 L 586.480701 535.124754 L 606.943669 531.207655 L 627.414239 527.313241 L 647.900012 523.449075 L 668.408589 519.607595 L 688.93997 515.803925 L 709.501757 512.015379 L 730.10155 508.29489 L 750.73175 504.597088 L 771.430362 500.944657 L 792.136575 497.34516 L 812.918802 493.813721 L 833.739036 490.335215 L 854.863327 486.879396 L 856.414012 486.350058 L 857.820271 485.760224 L 859.234132 485.064523 L 860.647992 484.255393 L 862.061852 483.340394 L 863.452909 482.334653 L 864.843965 481.207919 L 866.212217 479.967756 L 867.550063 478.621726 L 868.880308 477.17739 L 870.172546 475.619625 L 871.434379 473.963554 L 872.650603 472.186491 L 873.844022 470.295999 L 874.976631 468.307201 L 876.063631 466.204974 L 877.105023 463.996879 L 878.070401 461.660231 L 878.982569 459.217715 L 879.826324 456.669332 L 880.601667 454.007519 L 881.293394 451.232276 L 881.916709 448.343604 L 882.448807 445.341503 L 882.89729 442.210848 L 883.246954 438.989449 L 883.482597 435.631935 L 883.642227 432.176116 L 883.680234 428.584181 L 883.619423 424.878816 L 883.436989 421.05246 L 883.102527 416.553089 L 696.138496 54.455791 L 57.309247 153.071422 L 54.610751 153.615884 L 52.087086 154.235965 L 49.753456 154.954352 L 47.571854 155.755921 L 45.549882 156.655795 L 43.679937 157.661537 L 41.95442 158.758022 L 40.403734 159.967937 L 39.005077 161.276158 L 37.750846 162.690246 L 36.648643 164.187515 L 35.721272 165.767967 L 34.923125 167.439162 L 34.277006 169.170853 L 33.775313 170.955477 L 33.372439 172.800598 L 33.098789 174.698652 L 32.908754 176.657201 L 32.825138 178.676247 L 32.809936 180.755788 L 32.878348 182.888263 L 33.007572 185.081234 L 33.190006 187.342263 L 33.425649 189.656225 L 33.699299 192.053369 L 34.010957 194.503447 L 34.35302 197.036706 L 34.702684 199.638024 L 35.097957 202.307398 L 35.462824 205.037269 L 35.858097 207.850321 L 36.268573 210.943166 Z M 36.283775 210.943166 " transform="matrix(0.513886,0,0,0.516565,2.061321,0.112219)"/>
<path style="fill-rule:nonzero;fill:rgb(0%,0%,0%);fill-opacity:1;stroke-width:0.216;stroke-linecap:butt;stroke-linejoin:miter;stroke:rgb(0%,0%,0%);stroke-opacity:1;stroke-miterlimit:4;" d="M 37.249153 210.738993 L 40.570965 222.709589 L 43.877574 234.61969 L 47.206987 246.582724 L 50.559204 258.583568 L 53.941827 270.629784 L 57.347254 282.728933 L 60.760283 294.865892 L 64.188514 307.0331 L 67.63955 319.222993 L 71.105788 331.443134 L 74.572027 343.693523 L 78.053468 355.959036 L 81.550112 368.239672 L 85.031553 380.535433 L 88.535798 392.823632 L 95.529086 417.445401 L 99.02573 429.726038 L 102.514773 442.021799 L 106.003815 454.302436 L 109.485256 466.567948 L 112.959096 478.810775 L 116.417733 491.038478 L 119.868769 503.235933 L 123.297 515.395579 L 126.71763 527.532538 L 130.115456 539.616564 L 133.498079 551.670341 L 136.850296 563.671185 L 140.18731 575.619096 L 143.493919 587.521634 L 146.785326 599.424172 L 147.112186 600.369418 L 147.613878 601.314664 L 148.199186 602.191853 L 148.921319 603.000983 L 149.734669 603.75718 L 150.616431 604.452881 L 151.597012 605.088087 L 152.646005 605.670358 L 153.778613 606.207258 L 154.987236 606.71391 L 156.25667 607.160066 L 157.602118 607.56085 L 159.015978 607.923825 L 160.498251 608.241428 L 162.041335 608.513658 L 163.645231 608.740517 L 165.302336 608.929567 L 167.027853 609.073244 L 168.814182 609.163988 L 170.623316 609.216921 L 172.500861 609.216921 L 174.431617 609.163988 L 176.392778 609.080806 L 178.391946 608.929567 L 180.436723 608.740517 L 182.519506 608.490972 L 184.625094 608.188494 L 186.77629 607.840643 L 188.942689 607.439859 L 191.147095 606.978579 L 193.359103 606.464365 L 195.495096 605.904779 L 216.292526 602.509455 L 237.135565 599.03095 L 257.925393 595.484387 L 278.662012 591.88489 L 299.353023 588.240021 L 319.990823 584.54978 L 340.613421 580.806606 L 361.175208 577.033184 L 381.721792 573.21439 L 402.245572 569.37291 L 422.738946 565.508744 L 443.209516 561.61433 L 463.664883 557.712354 L 484.112649 553.795255 L 504.552813 549.855469 L 524.985376 545.930807 L 545.417939 541.991022 L 565.850502 538.058798 L 586.305869 534.149261 L 606.746033 530.239723 L 627.224204 526.352871 L 647.717578 522.481143 L 668.218554 518.639663 L 688.765138 514.828431 L 709.334526 511.047447 L 729.926718 507.311834 L 750.57212 503.614032 L 771.247928 499.969163 L 791.976945 496.38479 L 812.74397 492.838227 L 833.571806 489.359721 L 854.620082 485.926588 L 856.064348 485.427498 L 857.409796 484.86035 L 858.770446 484.187335 L 860.1463 483.416014 L 861.50695 482.531264 L 862.852398 481.540646 L 864.205447 480.451722 L 865.535692 479.256931 L 866.843133 477.941149 L 868.12777 476.534623 L 869.397203 475.014667 L 870.636232 473.381282 L 871.837253 471.642029 L 872.992666 469.789347 L 874.110071 467.830797 L 875.181869 465.758818 L 876.192855 463.588533 L 877.150631 461.289694 L 878.047596 458.89255 L 878.88375 456.374415 L 879.64389 453.757974 L 880.335618 451.012979 L 880.94373 448.146993 L 881.475828 445.190264 L 881.916709 442.089856 L 882.251171 438.891144 L 882.502017 435.579002 L 882.654045 432.138306 L 882.692052 428.584181 L 882.623639 424.909064 L 882.456408 421.112956 L 882.129548 416.832882 L 695.583593 55.529591 L 57.491681 154.046916 L 54.838793 154.576254 L 52.368338 155.196335 L 50.065113 155.884474 L 47.944323 156.670919 L 45.983162 157.540545 L 44.189231 158.500915 L 42.539727 159.574715 L 41.057455 160.724134 L 39.719608 161.964297 L 38.526188 163.310327 L 37.492398 164.731977 L 36.595433 166.229247 L 35.842894 167.81726 L 35.219579 169.465769 L 34.73309 171.189898 L 34.35302 172.974523 L 34.086971 174.819643 L 33.904537 176.725259 L 33.820922 178.698933 L 33.805719 180.748226 L 33.874132 182.850454 L 33.995754 185.013177 L 34.185789 187.243957 L 34.413831 189.550358 L 34.687481 191.932378 L 34.991537 194.374894 L 35.3336 196.900591 L 35.698468 199.486784 L 36.078538 202.156159 L 36.458608 204.901154 L 36.85388 207.721768 Z M 37.249153 210.738993 " transform="matrix(0.513886,0,0,0.516565,2.061321,0.112219)"/>
<path style="fill-rule:nonzero;fill:rgb(0%,0%,0%);fill-opacity:1;stroke-width:0.216;stroke-linecap:butt;stroke-linejoin:miter;stroke:rgb(0%,0%,0%);stroke-opacity:1;stroke-miterlimit:4;" d="M 38.214531 210.549944 L 41.505937 222.452482 L 44.812546 234.355021 L 48.157162 246.310493 L 51.516981 258.318899 L 54.899604 270.372677 L 58.282227 282.464264 L 61.702857 294.593662 L 65.146291 306.753307 L 68.582124 318.950762 L 72.048362 331.178465 L 75.522202 343.421292 L 79.003643 355.686805 L 82.492685 367.967442 L 85.974126 380.25564 L 96.479261 417.165608 L 99.975905 429.468931 L 103.472549 441.749568 L 106.95399 454.030205 L 110.435431 466.295717 L 113.909271 478.538544 L 117.375509 490.766247 L 120.818944 502.956141 L 124.254776 515.123348 L 127.675406 527.260307 L 131.065631 539.351895 L 134.440652 551.398111 L 137.800471 563.398955 L 141.137485 575.354427 L 144.444094 587.256965 L 147.735501 599.144379 L 148.024354 599.968634 L 148.457634 600.792889 L 148.989732 601.579333 L 149.628249 602.305282 L 150.373186 602.993421 L 151.194138 603.636189 L 152.106306 604.233584 L 153.094487 604.79317 L 154.173886 605.314946 L 155.344502 605.79135 L 156.575929 606.222382 L 157.875768 606.608042 L 159.251621 606.955893 L 160.688286 607.265934 L 162.200965 607.538164 L 163.766853 607.765024 L 165.408755 607.946511 L 167.103867 608.090188 L 168.844588 608.17337 L 170.638518 608.226304 L 172.485659 608.226304 L 174.39361 608.17337 L 176.331967 608.090188 L 178.315932 607.946511 L 180.330303 607.757462 L 182.390283 607.507917 L 184.488269 607.228124 L 186.601458 606.872711 L 188.760256 606.471927 L 190.926655 606.003085 L 193.115858 605.496433 L 195.289858 604.936847 L 216.140498 601.541523 L 236.968334 598.063018 L 257.758163 594.524017 L 278.494781 590.92452 L 299.170589 587.272089 L 319.823593 583.574286 L 340.423386 579.838674 L 361.007977 576.05769 L 381.54696 572.25402 L 402.063138 568.389854 L 422.556512 564.53325 L 443.027082 560.646398 L 463.490051 556.744422 L 483.937816 552.819761 L 524.802942 544.962875 L 545.235505 541.02309 L 565.675669 537.090866 L 586.115834 533.166205 L 606.563599 529.264229 L 627.041771 525.384939 L 647.535145 521.505649 L 668.043722 517.671731 L 688.590306 513.852937 L 709.152092 510.087077 L 729.751886 506.336341 L 750.389687 502.653662 L 771.073096 499.001231 L 791.802113 495.401734 L 812.576739 491.862733 L 833.412176 488.384227 L 854.376837 484.958656 L 855.707082 484.497376 L 857.006922 483.952914 L 858.314362 483.317709 L 859.629405 482.561512 L 860.944447 481.722133 L 862.251887 480.754201 L 863.551727 479.703088 L 864.851566 478.530982 L 866.128601 477.260572 L 867.382832 475.884294 L 868.621861 474.387024 L 869.838085 472.79901 L 871.0087 471.082444 L 872.133707 469.275133 L 873.23591 467.369517 L 874.292505 465.335348 L 875.288288 463.19531 L 876.230862 460.919158 L 877.127827 458.567386 L 877.941177 456.08706 L 878.693715 453.493305 L 879.37024 450.778558 L 879.970751 447.965506 L 880.487646 445.016338 L 880.928527 441.968865 L 881.27059 438.807962 L 881.521436 435.510944 L 881.658261 432.108058 L 881.70387 428.584181 L 881.643059 424.946874 L 881.475828 421.173452 L 881.156569 417.105113 L 695.028691 56.618514 L 57.658912 155.014848 L 55.04403 155.536624 L 52.619184 156.134019 L 50.376771 156.822158 L 48.324393 157.593479 L 46.416441 158.432857 L 44.690924 159.355418 L 43.109832 160.368721 L 41.695972 161.465207 L 40.418937 162.652436 L 39.29393 163.922847 L 38.313349 165.261315 L 37.461992 166.705651 L 36.755062 168.195359 L 36.169754 169.783372 L 35.683265 171.424319 L 35.325999 173.140886 L 35.067551 174.925511 L 34.885118 176.793317 L 34.801502 178.729181 L 34.801502 180.717978 L 34.862314 182.79752 L 34.983936 184.937557 L 35.16637 187.160776 L 35.394412 189.44449 L 35.660461 191.811386 L 35.979719 194.253902 L 36.314181 196.764476 L 36.663845 199.350669 L 37.059118 202.020044 L 37.423985 204.757476 L 37.819258 207.570529 Z M 38.214531 210.549944 " transform="matrix(0.513886,0,0,0.516565,2.061321,0.112219)"/>
<path style="fill-rule:nonzero;fill:rgb(0%,0%,0%);fill-opacity:1;stroke-width:0.216;stroke-linecap:butt;stroke-linejoin:miter;stroke:rgb(0%,0%,0%);stroke-opacity:1;stroke-miterlimit:4;" d="M 39.18751 210.345771 C 74.024726 336.381099 113.840858 472.829258 148.678074 598.849463 C 150.890082 606.887835 171.588693 610.290721 195.08462 603.984039 C 418.231316 567.936136 631.0021 520.068875 854.148795 484.005848 C 867.017965 480.088748 882.365192 459.179905 878.594897 417.392467 L 694.48139 57.722561 L 57.833744 155.997904 C 29.351299 161.087108 35.11316 179.001412 39.18751 210.360895 Z M 39.18751 210.345771 " transform="matrix(0.513886,0,0,0.516565,2.061321,0.112219)"/>
<path style="fill-rule:nonzero;fill:rgb(100%,100%,100%);fill-opacity:1;stroke-width:0.216;stroke-linecap:butt;stroke-linejoin:miter;stroke:rgb(0%,0%,0%);stroke-opacity:1;stroke-miterlimit:4;" d="M 45.641099 202.110787 L 145.432276 539.850985 C 147.530263 546.959235 165.766021 550.021832 186.639465 544.418414 C 384.80796 512.393477 653.958328 462.537419 852.134424 430.512483 C 866.744315 428.788354 878.245233 421.294443 871.76884 401.482086 L 694.755041 57.707438 L 59.536458 155.02241 C 34.231397 159.559591 36.086139 175.749765 45.656301 202.110787 Z M 45.641099 202.110787 " transform="matrix(0.513886,0,0,0.516565,2.061321,0.112219)"/>
<path style="fill-rule:nonzero;fill:rgb(100%,100%,100%);fill-opacity:1;stroke-width:0.216;stroke-linecap:butt;stroke-linejoin:miter;stroke:rgb(0%,0%,0%);stroke-opacity:1;stroke-miterlimit:4;" d="M 699.407098 232.593082 L 750.488505 225.144543 L 825.461112 369.850372 L 772.806215 380.565681 Z M 699.407098 232.593082 " transform="matrix(0.513886,0,0,0.516565,2.061321,0.112219)"/>
<path style="fill-rule:nonzero;fill:rgb(0%,0%,0%);fill-opacity:1;stroke-width:0.216;stroke-linecap:butt;stroke-linejoin:miter;stroke:rgb(0%,0%,0%);stroke-opacity:1;stroke-miterlimit:4;" d="M 749.956407 265.805248 L 752.79933 265.676694 L 790.221022 339.277333 L 787.241273 339.950348 Z M 749.956407 265.805248 " transform="matrix(0.513886,0,0,0.516565,2.061321,0.112219)"/>
<path style="fill-rule:nonzero;fill:rgb(0%,0%,0%);fill-opacity:1;stroke-width:0.216;stroke-linecap:butt;stroke-linejoin:miter;stroke:rgb(0%,0%,0%);stroke-opacity:1;stroke-miterlimit:4;" d="M 643.019913 121.280906 C 661.004825 123.239456 674.17045 132.071835 672.422128 140.979834 C 670.69661 149.887833 654.703265 155.5215 636.70315 153.547826 C 618.733441 151.596838 605.545012 142.772021 607.300935 133.85646 C 609.026453 124.948461 625.0274 119.314795 643.019913 121.280906 Z M 643.019913 121.280906 " transform="matrix(0.513886,0,0,0.516565,2.061321,0.112219)"/>
<path style="fill-rule:nonzero;fill:rgb(0%,0%,0%);fill-opacity:1;stroke-width:0.216;stroke-linecap:butt;stroke-linejoin:miter;stroke:rgb(0%,0%,0%);stroke-opacity:1;stroke-miterlimit:4;" d="M 644.5782 102.890199 C 694.070915 110.406796 730.321991 144.110489 725.54071 178.169595 C 720.744227 212.228701 676.739723 233.750063 627.247008 226.233467 C 577.746692 218.71687 541.495616 185.013177 546.2921 150.954071 C 551.07338 116.894965 595.085486 95.373602 644.5782 102.890199 Z M 644.5782 102.890199 " transform="matrix(0.513886,0,0,0.516565,2.061321,0.112219)"/>
<path style="fill-rule:nonzero;fill:rgb(100%,100%,100%);fill-opacity:1;stroke-width:0.216;stroke-linecap:butt;stroke-linejoin:miter;stroke:rgb(0%,0%,0%);stroke-opacity:1;stroke-miterlimit:4;" d="M 644.152522 100.092271 C 693.417195 107.291265 729.516243 139.58087 724.757766 172.203202 C 719.991689 204.817972 676.154415 225.431898 626.897344 218.232904 C 577.617469 211.041472 541.51842 178.744305 546.284498 146.129535 C 551.050576 113.507203 594.865045 92.900839 644.152522 100.092271 Z M 644.152522 100.092271 " transform="matrix(0.513886,0,0,0.516565,2.061321,0.112219)"/>
<path style="fill-rule:nonzero;fill:rgb(100%,100%,100%);fill-opacity:1;stroke-width:0.216;stroke-linecap:butt;stroke-linejoin:miter;stroke:rgb(0%,0%,0%);stroke-opacity:1;stroke-miterlimit:4;" d="M 661.210063 151.150682 C 654.543635 153.993982 645.186312 155.241707 635.213276 154.152783 C 617.220762 152.201795 604.047536 143.376978 605.788257 134.453855 C 606.632012 130.135971 610.827985 126.574284 616.985119 124.298132 C 611.656537 126.574284 608.068677 129.90155 607.300935 133.85646 C 605.560215 142.772021 618.733441 151.596838 636.70315 153.547826 C 645.961655 154.56113 654.680461 153.56295 661.210063 151.150682 Z M 661.210063 151.150682 " transform="matrix(0.513886,0,0,0.516565,2.061321,0.112219)"/>
<path style="fill-rule:nonzero;fill:rgb(0%,0%,0%);fill-opacity:1;stroke-width:0.216;stroke-linecap:butt;stroke-linejoin:miter;stroke:rgb(0%,0%,0%);stroke-opacity:1;stroke-miterlimit:4;" d="M 642.328186 111.715016 C 680.669647 117.242815 708.741617 142.008262 705.039735 167.038378 C 703.025364 180.627235 692.056544 191.501346 676.314045 197.709722 C 666.234589 201.694879 654.18637 203.781982 641.294395 203.42657 C 637.220045 203.320702 633.100086 202.96529 628.904114 202.360332 C 590.562653 196.840095 562.47548 172.067087 566.177362 147.036971 C 569.894446 122.006855 603.986725 106.209903 642.328186 111.715016 Z M 642.328186 111.715016 " transform="matrix(0.513886,0,0,0.516565,2.061321,0.112219)"/>
<path style="fill-rule:nonzero;fill:rgb(100%,100%,100%);fill-opacity:1;stroke-width:0.216;stroke-linecap:butt;stroke-linejoin:miter;stroke:rgb(0%,0%,0%);stroke-opacity:1;stroke-miterlimit:4;" d="M 642.829878 109.431302 C 679.225381 114.301209 705.88349 136.12505 702.356441 158.190874 C 698.844594 180.249136 666.477833 194.178282 630.082331 189.308375 C 593.694429 184.453591 567.028719 162.614626 570.555768 140.563926 C 574.067615 118.505664 606.434376 104.561394 642.829878 109.431302 Z M 642.829878 109.431302 " transform="matrix(0.513886,0,0,0.516565,2.061321,0.112219)"/>
<path style="fill-rule:nonzero;fill:rgb(0%,0%,0%);fill-opacity:1;stroke-width:0.216;stroke-linecap:butt;stroke-linejoin:miter;stroke:rgb(0%,0%,0%);stroke-opacity:1;stroke-miterlimit:4;" d="M 642.02413 121.061609 C 662.274259 124.003215 677.10459 137.19885 675.143429 150.515476 C 673.174667 163.847227 655.182153 172.256136 634.924422 169.322092 C 614.689496 166.380486 599.843962 153.192413 601.78992 139.868225 C 603.758683 126.55916 621.766399 118.127566 642.02413 121.061609 Z M 642.02413 121.061609 " transform="matrix(0.513886,0,0,0.516565,2.061321,0.112219)"/>
<path style="fill-rule:nonzero;fill:rgb(0%,0%,0%);fill-opacity:1;stroke-width:0.216;stroke-linecap:butt;stroke-linejoin:miter;stroke:rgb(100%,100%,100%);stroke-opacity:1;stroke-miterlimit:4;" d="M 688.673921 92.787409 C 683.352941 105.08317 668.910281 110.489977 656.41358 104.886559 C 643.92448 99.275578 636.21666 83.773543 643.415186 72.475962 L 657.835042 49.84299 C 664.23542 39.785572 675.698331 37.063264 686.803977 42.054163 C 697.924825 47.052624 703.108979 59.953342 698.373307 70.895511 C 694.884265 78.926321 692.223775 84.597797 688.673921 92.787409 Z M 688.673921 92.787409 " transform="matrix(0.513886,0,0,0.516565,2.061321,0.112219)"/>
<path style="fill-rule:nonzero;fill:rgb(100%,100%,100%);fill-opacity:1;stroke-width:0.216;stroke-linecap:butt;stroke-linejoin:miter;stroke:rgb(0%,0%,0%);stroke-opacity:1;stroke-miterlimit:4;" d="M 672.095268 67.55312 C 683.026081 71.939062 688.096215 83.312263 683.444158 92.938649 C 678.792101 102.54991 666.173777 106.792175 655.27337 102.406233 C 644.350158 98.020291 639.272423 86.647091 643.92448 77.028267 C 648.561334 67.401881 661.187259 63.152055 672.095268 67.55312 Z M 672.095268 67.55312 " transform="matrix(0.513886,0,0,0.516565,2.061321,0.112219)"/>
<path style="fill-rule:nonzero;fill:rgb(100%,100%,100%);fill-opacity:1;stroke-width:0.216;stroke-linecap:butt;stroke-linejoin:miter;stroke:rgb(0%,0%,0%);stroke-opacity:1;stroke-miterlimit:4;" d="M 641.507235 121.878302 C 659.484545 123.851976 672.657771 132.669231 670.924652 141.57723 C 669.199134 150.500353 653.190586 156.126457 635.213276 154.152783 C 617.220762 152.186671 604.047536 143.361854 605.788257 134.453855 C 607.521376 125.553419 623.522323 119.919752 641.507235 121.878302 Z M 641.507235 121.878302 " transform="matrix(0.513886,0,0,0.516565,2.061321,0.112219)"/>
<path style="fill-rule:nonzero;fill:rgb(100%,100%,100%);fill-opacity:1;stroke-width:0.216;stroke-linecap:butt;stroke-linejoin:miter;stroke:rgb(0%,0%,0%);stroke-opacity:1;stroke-miterlimit:4;" d="M 651.632299 87.108371 C 655.881482 68.959647 679.810689 80.234542 670.863841 94.511538 C 665.269211 90.246588 658.655993 88.144361 651.632299 87.108371 Z M 651.632299 87.108371 " transform="matrix(0.513886,0,0,0.516565,2.061321,0.112219)"/>
<path style="fill-rule:nonzero;fill:rgb(100%,100%,100%);fill-opacity:1;stroke-width:0.216;stroke-linecap:butt;stroke-linejoin:miter;stroke:rgb(0%,0%,0%);stroke-opacity:1;stroke-miterlimit:4;" d="M 370.768175 116.64542 C 521.017445 116.64542 642.845081 201.604135 642.845081 306.360085 C 642.845081 411.093348 521.017445 496.052063 370.768175 496.052063 C 220.534107 496.052063 98.683667 411.108472 98.683667 306.360085 C 98.683667 201.604135 220.534107 116.64542 370.768175 116.64542 Z M 370.768175 116.64542 " transform="matrix(0.513886,0,0,0.516565,2.061321,0.112219)"/>
<path style="fill-rule:nonzero;fill:rgb(0%,0%,0%);fill-opacity:1;stroke-width:0.216;stroke-linecap:butt;stroke-linejoin:miter;stroke:rgb(0%,0%,0%);stroke-opacity:1;stroke-miterlimit:4;" d="M 372.934574 116.64542 C 521.96762 116.64542 642.829878 200.137114 642.829878 303.093314 C 642.829878 406.041953 521.96762 489.526085 372.934574 489.526085 C 223.886325 489.526085 103.024066 406.041953 103.024066 303.093314 C 103.024066 200.137114 223.886325 116.64542 372.934574 116.64542 Z M 372.934574 116.64542 " transform="matrix(0.513886,0,0,0.516565,2.061321,0.112219)"/>
<path style="fill-rule:nonzero;fill:rgb(0%,0%,0%);fill-opacity:1;stroke-width:0.216;stroke-linecap:butt;stroke-linejoin:miter;stroke:rgb(0%,0%,0%);stroke-opacity:1;stroke-miterlimit:4;" d="M 371.072231 120.993552 C 506.688806 120.993552 616.681063 196.477121 616.681063 289.572515 C 616.681063 382.660346 506.688806 458.151477 371.072231 458.151477 C 235.455655 458.151477 125.463399 382.660346 125.463399 289.572515 C 125.463399 196.477121 235.455655 120.993552 371.072231 120.993552 Z M 371.072231 120.993552 " transform="matrix(0.513886,0,0,0.516565,2.061321,0.112219)"/>
<path style="fill-rule:nonzero;fill:rgb(100%,100%,100%);fill-opacity:1;stroke-width:0.216;stroke-linecap:butt;stroke-linejoin:miter;stroke:rgb(0%,0%,0%);stroke-opacity:1;stroke-miterlimit:4;" d="M 522.598536 156.731415 C 582.246721 187.48594 620.823826 236.442124 620.823826 291.576436 C 620.823826 384.664268 510.854373 460.147837 375.214994 460.147837 C 318.204495 460.147837 265.709227 446.800963 224.015548 424.425098 C 265.002297 445.44737 315.863263 457.917056 370.965811 457.917056 C 506.582387 457.917056 616.567042 382.433487 616.567042 289.338093 C 616.567042 235.519564 579.814273 187.59937 522.583333 156.731415 Z M 522.598536 156.731415 " transform="matrix(0.513886,0,0,0.516565,2.061321,0.112219)"/>
<path style="fill-rule:nonzero;fill:rgb(0%,0%,0%);fill-opacity:1;stroke-width:0.216;stroke-linecap:butt;stroke-linejoin:miter;stroke:rgb(0%,0%,0%);stroke-opacity:1;stroke-miterlimit:4;" d="M 677.53787 132.465058 C 677.53787 143.581151 663.741329 152.610142 646.721795 152.610142 C 629.702261 152.610142 609.740985 141.063016 611.261264 130.037666 L 614.598279 105.877177 C 616.12616 94.851827 630.211554 87.085685 647.231089 87.085685 C 664.23542 87.085685 678.047164 96.099551 678.047164 107.230769 C 678.047164 118.112442 677.53787 121.273344 677.53787 132.465058 Z M 677.53787 132.465058 " transform="matrix(0.513886,0,0,0.516565,2.061321,0.112219)"/>
<path style="fill-rule:nonzero;fill:rgb(100%,100%,100%);fill-opacity:1;stroke-width:0.216;stroke-linecap:butt;stroke-linejoin:miter;stroke:rgb(0%,0%,0%);stroke-opacity:1;stroke-miterlimit:4;" d="M 677.925542 106.708993 C 677.97115 107.132463 678.001556 107.563496 678.001556 108.009652 C 678.001556 119.587025 663.847749 128.994114 646.410138 128.994114 C 628.964925 128.994114 614.811118 119.587025 614.811118 108.009652 C 614.811118 107.563496 614.841524 107.132463 614.879531 106.708993 C 615.898118 117.696533 629.618645 126.407921 646.410138 126.407921 C 663.194029 126.407921 676.929758 117.696533 677.925542 106.708993 Z M 677.925542 106.708993 " transform="matrix(0.513886,0,0,0.516565,2.061321,0.112219)"/>
<path style="fill-rule:nonzero;fill:rgb(100%,100%,100%);fill-opacity:1;stroke-width:0.216;stroke-linecap:butt;stroke-linejoin:miter;stroke:rgb(0%,0%,0%);stroke-opacity:1;stroke-miterlimit:4;" d="M 626.418456 137.486205 C 634.863611 133.047329 642.655046 141.456238 638.884752 149.154322 C 639.127996 148.405687 639.287626 147.604119 639.318031 146.787426 C 639.591682 141.546982 635.593346 137.092982 630.409191 136.828314 C 628.987729 136.752694 627.642281 136.994677 626.418456 137.486205 Z M 626.418456 137.486205 " transform="matrix(0.513886,0,0,0.516565,2.061321,0.112219)"/>
<path style="fill:none;stroke-width:0.216;stroke-linecap:butt;stroke-linejoin:miter;stroke:rgb(0%,0%,0%);stroke-opacity:1;stroke-miterlimit:4;" d="M 515.597647 93.195756 C 532.761608 95.040876 545.760002 105.090732 544.627393 115.654802 C 543.494784 126.218872 528.656852 133.274188 511.492891 131.43663 C 494.321329 129.59151 481.330536 119.534092 482.470746 108.970022 C 483.610956 98.421076 498.433686 91.350635 515.597647 93.195756 Z M 515.597647 93.195756 " transform="matrix(0.513886,0,0,0.516565,2.061321,0.112219)"/>
<path style="fill-rule:nonzero;fill:rgb(100%,100%,100%);fill-opacity:1;stroke-width:0.216;stroke-linecap:butt;stroke-linejoin:miter;stroke:rgb(0%,0%,0%);stroke-opacity:1;stroke-miterlimit:4;" d="M 370.061245 117.288187 C 504.400785 117.288187 613.366852 192.771756 613.366852 285.859588 C 613.366852 378.94742 504.400785 454.446113 370.061245 454.446113 C 235.706502 454.446113 126.755637 378.94742 126.755637 285.859588 C 126.755637 192.771756 235.706502 117.288187 370.061245 117.288187 Z M 370.061245 117.288187 " transform="matrix(0.513886,0,0,0.516565,2.061321,0.112219)"/>
<path style="fill-rule:nonzero;fill:rgb(0%,0%,0%);fill-opacity:1;stroke-width:0.216;stroke-linecap:butt;stroke-linejoin:miter;stroke:rgb(100%,100%,0%);stroke-opacity:1;stroke-miterlimit:4;" d="M 372.729336 219.526001 C 416.02691 219.526001 451.145377 244.344381 451.145377 274.962791 C 451.145377 305.57364 416.02691 330.39202 372.729336 330.39202 C 329.446965 330.39202 294.336099 305.57364 294.336099 274.962791 C 294.336099 244.344381 329.446965 219.526001 372.729336 219.526001 Z M 372.729336 219.526001 " transform="matrix(0.513886,0,0,0.516565,2.061321,0.112219)"/>
<path style="fill-rule:nonzero;fill:rgb(100%,100%,100%);fill-opacity:1;stroke-width:0.216;stroke-linecap:butt;stroke-linejoin:miter;stroke:rgb(100%,100%,100%);stroke-opacity:1;stroke-miterlimit:4;" d="M 372.729336 263.211492 C 381.904226 263.211492 389.345996 268.467061 389.345996 274.947668 C 389.345996 281.435836 381.904226 286.691405 372.729336 286.691405 C 363.569649 286.691405 356.127879 281.435836 356.127879 274.947668 C 356.127879 268.467061 363.569649 263.211492 372.729336 263.211492 Z M 372.729336 263.211492 " transform="matrix(0.513886,0,0,0.516565,2.061321,0.112219)"/>
<path style="fill-rule:nonzero;fill:rgb(100%,100%,100%);fill-opacity:1;stroke-width:2;stroke-linecap:butt;stroke-linejoin:miter;stroke:rgb(0%,0%,0%);stroke-opacity:1;stroke-miterlimit:4;" d="M 366.207335 274.8418 C 366.701426 268.852721 365.4776 259.717863 371.125441 256.564522 C 372.455686 255.657086 373.846742 256.125928 374.766511 256.806505 C 378.430386 259.430508 379.555393 266.931981 378.620421 275.514815 C 374.158399 278.970635 370.008035 278.804271 366.207335 274.8418 Z M 366.207335 274.8418 " transform="matrix(0.513886,0,0,0.516565,2.061321,0.112219)"/>
<path style="fill:none;stroke-width:0.216;stroke-linecap:butt;stroke-linejoin:miter;stroke:rgb(0%,0%,0%);stroke-opacity:1;stroke-miterlimit:4;" d="M 515.597647 93.195756 C 532.761608 95.040876 545.760002 105.090732 544.627393 115.654802 C 543.494784 126.218872 528.656852 133.274188 511.492891 131.43663 C 494.321329 129.59151 481.330536 119.534092 482.470746 108.970022 C 483.610956 98.421076 498.433686 91.350635 515.597647 93.195756 Z M 515.597647 93.195756 " transform="matrix(0.513886,0,0,0.516565,2.061321,0.112219)"/>
<path style="fill-rule:nonzero;fill:rgb(0%,0%,0%);fill-opacity:1;stroke-width:0.216;stroke-linecap:butt;stroke-linejoin:miter;stroke:rgb(0%,0%,0%);stroke-opacity:1;stroke-miterlimit:4;" d="M 699.407098 232.593082 L 750.488505 225.144543 L 825.461112 369.850372 L 821.371559 370.682188 L 748.306903 229.643914 L 701.330252 236.495058 Z M 699.407098 232.593082 " transform="matrix(0.513886,0,0,0.516565,2.061321,0.112219)"/>
<path style="fill-rule:nonzero;fill:rgb(100%,100%,100%);fill-opacity:1;stroke-width:1;stroke-linecap:butt;stroke-linejoin:miter;stroke:rgb(0%,0%,0%);stroke-opacity:1;stroke-miterlimit:4;" d="M 749.9184 291.863791 L 760.529954 312.64408 L 787.104448 308.795038 L 787.575735 305.792937 L 784.884839 299.84923 L 785.675385 287.583717 L 782.513203 282.055918 L 756.569625 284.899218 L 755.83989 289.625448 L 751.028204 289.920365 L 750.838169 289.935489 L 750.526512 289.950613 L 749.9184 289.988423 Z M 749.9184 291.863791 " transform="matrix(0.513886,0,0,0.516565,2.061321,0.112219)"/>
<path style="fill-rule:nonzero;fill:rgb(100%,100%,100%);fill-opacity:1;stroke-width:0.216;stroke-linecap:butt;stroke-linejoin:miter;stroke:rgb(0%,0%,0%);stroke-opacity:1;stroke-miterlimit:4;" d="M 515.597647 93.195756 C 532.761608 95.040876 545.760002 105.090732 544.627393 115.654802 C 544.376547 117.976326 543.47198 120.116363 542.012511 122.037103 C 542.422987 118.112442 539.549658 114.966663 539.549658 114.966663 L 487.639698 121.311154 C 483.953019 117.651162 481.991858 113.355963 482.470746 108.970022 C 483.610956 98.421076 498.433686 91.350635 515.597647 93.195756 Z M 515.597647 93.195756 " transform="matrix(0.513886,0,0,0.516565,2.061321,0.112219)"/>
<path style="fill-rule:nonzero;fill:rgb(0%,0%,0%);fill-opacity:1;stroke-width:0.216;stroke-linecap:butt;stroke-linejoin:miter;stroke:rgb(0%,0%,0%);stroke-opacity:1;stroke-miterlimit:4;" d="M 487.556083 121.280906 C 502.241987 119.246737 518.676214 117.681409 533.354517 115.654802 C 520.006459 108.236511 502.850099 106.300647 484.538327 117.378931 C 485.20725 118.641779 486.309453 119.927314 487.556083 121.280906 Z M 487.556083 121.280906 " transform="matrix(0.513886,0,0,0.516565,2.061321,0.112219)"/>
<path style="fill-rule:nonzero;fill:rgb(0%,0%,0%);fill-opacity:1;stroke-width:0.216;stroke-linecap:butt;stroke-linejoin:miter;stroke:rgb(0%,0%,0%);stroke-opacity:1;stroke-miterlimit:4;" d="M 624.905777 141.441114 C 631.838254 140.140456 637.73694 141.546982 636.900786 150.931385 C 627.209001 161.465207 622.541742 174.449107 622.268092 186.109662 C 622.853399 208.924121 625.179428 243.066408 617.790867 254.560601 C 607.574586 276.528119 584.268693 284.48331 569.415558 297.520143 C 570.206104 300.892781 568.967076 304.265419 567.948488 305.520706 C 562.832746 309.407558 559.199277 312.613832 554.098737 316.508246 C 554.136744 317.582046 554.189954 318.670969 554.235563 319.752331 C 549.043806 323.556001 543.85205 327.344547 538.652693 331.140655 C 544.148505 334.029327 548.002415 337.159982 551.392639 340.351133 C 552.023555 341.727411 551.742303 342.49117 550.586891 342.657533 C 546.504939 338.165724 541.009127 334.241062 532.411943 331.541439 L 511.27245 346.725872 C 511.128024 349.879213 510.991199 353.047678 510.861975 356.216143 L 498.114427 363.672243 C 497.719154 363.626872 497.301077 363.5815 496.905805 363.528566 C 494.062881 365.343439 491.219957 367.143187 488.361831 368.958059 C 487.502873 368.640457 486.643915 367.899384 485.784956 367.589343 C 486.225838 360.995307 481.642194 355.603623 480.395564 363.475632 C 479.270557 362.802617 478.14555 362.129602 477.00534 361.441463 C 477.233382 357.327752 477.697067 352.329291 477.925109 348.21558 C 479.369375 346.635129 481.642194 345.682321 483.094061 344.094307 L 473.865961 336.15424 L 473.85836 333.583171 C 481.452159 327.745331 489.045957 321.922616 496.632154 316.0999 C 499.262239 317.438368 501.869519 317.786219 504.4844 315.963784 C 515.057947 309.233633 525.639096 302.503481 536.205042 295.773329 C 537.740525 296.574897 539.276008 297.384028 540.819092 298.200721 C 545.836016 294.502918 550.845338 290.789991 555.862262 287.092189 C 557.717004 286.169629 559.564144 286.540165 561.418885 288.165988 C 574.113223 278.781586 586.807561 269.374497 599.501899 259.982532 C 605.993494 255.679772 610.919201 245.312313 609.262096 209.967673 C 609.642166 193.3994 608.433544 177.0353 614.963146 159.960375 C 617.844077 154.266213 622.009644 147.135277 624.905777 141.441114 Z M 624.905777 141.441114 " transform="matrix(0.513886,0,0,0.516565,2.061321,0.112219)"/>
<path style="fill-rule:nonzero;fill:rgb(0%,0%,0%);fill-opacity:1;stroke-width:0.216;stroke-linecap:butt;stroke-linejoin:miter;stroke:rgb(0%,0%,0%);stroke-opacity:1;stroke-miterlimit:4;" d="M 723.663165 262.152817 C 724.864186 262.152817 725.829564 262.871204 725.829564 263.77864 C 725.829564 264.670952 724.864186 265.404463 723.663165 265.404463 C 722.454542 265.404463 721.489164 264.670952 721.489164 263.77864 C 721.489164 262.871204 722.454542 262.152817 723.663165 262.152817 Z M 723.663165 262.152817 " transform="matrix(0.513886,0,0,0.516565,2.061321,0.112219)"/>
<path style="fill-rule:nonzero;fill:rgb(100%,100%,100%);fill-opacity:1;stroke-width:0.216;stroke-linecap:butt;stroke-linejoin:miter;stroke:rgb(0%,0%,0%);stroke-opacity:1;stroke-miterlimit:4;" d="M 541.928896 297.799936 C 543.213533 297.603325 544.460162 297.142045 545.744799 297.81506 C 550.807331 294.366803 555.482192 290.926107 560.544724 287.477849 C 558.385927 287.016569 557.291325 287.031693 554.782863 288.460905 C 550.723716 291.387387 545.988044 294.873454 541.928896 297.799936 Z M 541.928896 297.799936 " transform="matrix(0.513886,0,0,0.516565,2.061321,0.112219)"/>
<path style="fill-rule:nonzero;fill:rgb(100%,100%,100%);fill-opacity:1;stroke-width:0.216;stroke-linecap:butt;stroke-linejoin:miter;stroke:rgb(0%,0%,0%);stroke-opacity:1;stroke-miterlimit:4;" d="M 554.357185 315.283207 C 554.950094 314.126226 554.82087 311.887883 554.60043 310.466233 C 559.457724 306.738183 564.193396 303.380669 569.050691 299.66018 C 568.807446 301.860713 568.222138 304.008312 566.070942 305.929052 C 562.019396 308.870658 558.408731 312.356726 554.357185 315.283207 Z M 554.357185 315.283207 " transform="matrix(0.513886,0,0,0.516565,2.061321,0.112219)"/>
<path style="fill-rule:nonzero;fill:rgb(100%,100%,100%);fill-opacity:1;stroke-width:0.216;stroke-linecap:butt;stroke-linejoin:miter;stroke:rgb(0%,0%,0%);stroke-opacity:1;stroke-miterlimit:4;" d="M 622.169273 216.478527 C 623.871987 250.666187 612.81195 266.107726 597.17587 275.718988 C 622.085658 263.166121 623.841581 241.637196 622.169273 216.478527 Z M 622.169273 216.478527 " transform="matrix(0.513886,0,0,0.516565,2.061321,0.112219)"/>
<path style="fill-rule:nonzero;fill:rgb(100%,100%,100%);fill-opacity:1;stroke-width:0.216;stroke-linecap:butt;stroke-linejoin:miter;stroke:rgb(0%,0%,0%);stroke-opacity:1;stroke-miterlimit:4;" d="M 634.187087 143.361854 C 617.190356 168.505399 619.083105 190.767835 619.250336 207.842759 C 619.432769 224.925246 620.253721 237.508362 618.02651 243.7243 C 609.991831 266.296776 589.065177 279.038692 568.45018 292.771227 C 568.343761 292.846847 568.237341 293.028334 568.130922 292.9754 C 567.606425 292.756103 567.30997 292.824161 567.135138 293.035896 C 566.998313 293.217383 566.9299 293.497176 566.884292 293.807217 C 566.876691 293.943332 566.65625 293.958456 566.54983 294.041638 C 561.783753 297.217665 557.078486 300.484435 552.555653 303.940255 C 550.913751 301.936333 549.074212 300.023155 546.763386 298.359522 C 551.521863 295.054942 556.272738 291.742799 561.023613 288.445781 C 561.092025 288.407971 561.160438 288.3626 561.213648 288.302104 C 561.494899 288.082807 561.745746 287.795452 562.065004 287.8257 C 563.228019 287.999625 563.676501 287.727394 563.433256 287.031693 C 563.395249 286.948511 563.592886 286.933388 563.676501 286.888016 C 591.870093 270.168503 610.105852 252.798662 609.535747 222.898639 C 608.889628 188.673169 603.013746 173.776091 624.26726 141.917518 C 629.018135 140.412687 632.324744 140.896653 634.187087 143.361854 Z M 634.187087 143.361854 " transform="matrix(0.513886,0,0,0.516565,2.061321,0.112219)"/>
<path style="fill-rule:nonzero;fill:rgb(100%,100%,100%);fill-opacity:1;stroke-width:0.216;stroke-linecap:butt;stroke-linejoin:miter;stroke:rgb(0%,0%,0%);stroke-opacity:1;stroke-miterlimit:4;" d="M 94.822156 172.558615 C 105.418507 172.558615 114.008089 178.540132 114.008089 185.920613 C 114.008089 193.28597 105.418507 199.259925 94.822156 199.259925 C 84.233406 199.259925 75.643824 193.28597 75.643824 185.920613 C 75.643824 178.540132 84.233406 172.558615 94.822156 172.558615 Z M 94.822156 172.558615 " transform="matrix(0.513886,0,0,0.516565,2.061321,0.112219)"/>
<path style="fill-rule:nonzero;fill:rgb(0%,0%,0%);fill-opacity:1;stroke-width:0.216;stroke-linecap:butt;stroke-linejoin:miter;stroke:rgb(0%,0%,0%);stroke-opacity:1;stroke-miterlimit:4;" d="M 94.875366 181.91277 C 103.989444 181.91277 111.393208 185.799621 111.393208 190.578785 C 111.393208 195.373073 103.989444 199.244801 94.875366 199.244801 C 85.746084 199.244801 78.357524 195.373073 78.357524 190.578785 C 78.357524 185.799621 85.746084 181.91277 94.875366 181.91277 Z M 94.875366 181.91277 " transform="matrix(0.513886,0,0,0.516565,2.061321,0.112219)"/>
<path style="fill-rule:nonzero;fill:rgb(100%,100%,100%);fill-opacity:1;stroke-width:0.216;stroke-linecap:butt;stroke-linejoin:miter;stroke:rgb(0%,0%,0%);stroke-opacity:1;stroke-miterlimit:4;" d="M 94.556107 182.752148 C 100.302765 182.752148 104.954822 185.187102 104.954822 188.196765 L 104.954822 193.626259 C 104.954822 196.635922 100.302765 199.078438 94.556107 199.078438 C 88.81705 199.078438 84.164993 196.635922 84.164993 193.626259 L 84.164993 188.196765 C 84.164993 185.187102 88.81705 182.752148 94.556107 182.752148 Z M 94.556107 182.752148 " transform="matrix(0.513886,0,0,0.516565,2.061321,0.112219)"/>
<path style="fill-rule:nonzero;fill:rgb(0%,0%,0%);fill-opacity:1;stroke-width:0.216;stroke-linecap:butt;stroke-linejoin:miter;stroke:rgb(100%,100%,100%);stroke-opacity:1;stroke-miterlimit:4;" d="M 189.634417 433.340659 C 202.860853 433.340659 213.594029 440.706016 213.594029 449.780378 C 213.594029 459.883168 214.947078 462.023205 214.947078 471.279055 C 214.947078 480.353417 203.917447 487.70365 190.310941 487.70365 C 176.704436 487.70365 165.674804 480.353417 165.674804 471.279055 L 165.674804 449.780378 C 165.674804 440.706016 176.407981 433.340659 189.634417 433.340659 Z M 189.634417 433.340659 " transform="matrix(0.513886,0,0,0.516565,2.061321,0.112219)"/>
<path style="fill:none;stroke-width:0.216;stroke-linecap:butt;stroke-linejoin:miter;stroke:rgb(0%,0%,0%);stroke-opacity:1;stroke-miterlimit:4;" d="M 189.809249 433.416279 C 202.89886 433.416279 213.495211 440.532091 213.495211 449.303974 C 213.495211 458.08342 202.89886 465.19167 189.809249 465.19167 C 176.734841 465.19167 166.123287 458.08342 166.123287 449.303974 C 166.123287 440.532091 176.734841 433.416279 189.809249 433.416279 Z M 189.809249 433.416279 " transform="matrix(0.513886,0,0,0.516565,2.061321,0.112219)"/>
<path style="fill-rule:nonzero;fill:rgb(100%,100%,100%);fill-opacity:1;stroke-width:0.216;stroke-linecap:butt;stroke-linejoin:miter;stroke:rgb(0%,0%,0%);stroke-opacity:1;stroke-miterlimit:4;" d="M 213.495211 449.697197 C 213.510414 449.833312 213.510414 449.961866 213.510414 450.090419 C 213.510414 459.300897 202.89886 466.787245 189.809249 466.787245 C 176.734841 466.787245 166.130888 459.300897 166.130888 450.090419 C 166.130888 449.961866 166.130888 449.833312 166.130888 449.697197 C 166.450147 458.287593 177.008492 464.458159 189.900466 464.458159 C 202.79244 464.458159 213.191155 458.287593 213.495211 449.697197 Z M 213.495211 449.697197 " transform="matrix(0.513886,0,0,0.516565,2.061321,0.112219)"/>
<path style="fill-rule:nonzero;fill:rgb(100%,100%,100%);fill-opacity:1;stroke-width:0.216;stroke-linecap:butt;stroke-linejoin:miter;stroke:rgb(0%,0%,0%);stroke-opacity:1;stroke-miterlimit:4;" d="M 474.033192 333.726848 L 498.83656 351.263053 L 520.895823 334.135195 L 521.792788 328.592272 L 552.654471 307.237273 L 536.068217 295.788453 C 525.456663 302.556414 514.845108 309.316814 504.248757 316.069652 C 502.021547 317.400558 499.452274 317.377873 496.738574 316.288949 Z M 474.033192 333.726848 " transform="matrix(0.513886,0,0,0.516565,2.061321,0.112219)"/>
<path style="fill-rule:nonzero;fill:rgb(0%,0%,0%);fill-opacity:1;stroke-width:0.216;stroke-linecap:butt;stroke-linejoin:miter;stroke:rgb(0%,0%,0%);stroke-opacity:1;stroke-miterlimit:4;" d="M 759.31373 303.19162 L 784.748014 299.834106 L 785.622175 287.719832 L 760.879619 291.198338 L 756.75966 285.035333 L 760.066269 291.304205 Z M 759.31373 303.19162 " transform="matrix(0.513886,0,0,0.516565,2.061321,0.112219)"/>
<path style="fill-rule:nonzero;fill:rgb(100%,100%,100%);fill-opacity:1;stroke-width:0.216;stroke-linecap:butt;stroke-linejoin:miter;stroke:rgb(100%,100%,100%);stroke-opacity:1;stroke-miterlimit:4;" d="M 104.39992 187.281767 C 104.437927 187.410321 104.45313 187.56156 104.45313 187.705237 C 104.45313 189.86796 100.029115 191.622337 94.57131 191.622337 C 89.105903 191.622337 84.666686 189.86796 84.666686 187.705237 C 84.666686 187.56156 84.697091 187.410321 84.735098 187.281767 C 85.267196 189.247879 89.47077 190.767835 94.57131 190.767835 C 99.664248 190.767835 103.867822 189.247879 104.39992 187.281767 Z M 104.39992 187.281767 " transform="matrix(0.513886,0,0,0.516565,2.061321,0.112219)"/>
<path style="fill-rule:nonzero;fill:rgb(0%,0%,0%);fill-opacity:1;stroke-width:0.216;stroke-linecap:butt;stroke-linejoin:miter;stroke:rgb(0%,0%,0%);stroke-opacity:1;stroke-miterlimit:4;" d="M 760.803605 308.447188 L 760.864416 312.651642 L 787.248875 308.931154 L 787.195665 305.089674 L 761.616954 308.348882 L 759.336534 303.032818 Z M 760.803605 308.447188 " transform="matrix(0.513886,0,0,0.516565,2.061321,0.112219)"/>
<path style="fill-rule:nonzero;fill:rgb(0%,0%,0%);fill-opacity:1;stroke-width:0.216;stroke-linecap:butt;stroke-linejoin:miter;stroke:rgb(0%,0%,0%);stroke-opacity:1;stroke-miterlimit:4;" d="M 666.409421 78.926321 C 665.679686 77.950827 664.083392 77.776902 663.034399 77.882769 C 661.453308 81.14954 659.765797 84.733913 658.177105 87.993121 C 657.903454 89.339152 659.781 88.998863 660.822392 89.29378 C 662.418686 86.049695 664.805525 82.177967 666.409421 78.926321 Z M 666.409421 78.926321 " transform="matrix(0.513886,0,0,0.516565,2.061321,0.112219)"/>
<path style="fill-rule:nonzero;fill:rgb(0%,0%,0%);fill-opacity:1;stroke-width:0.216;stroke-linecap:butt;stroke-linejoin:miter;stroke:rgb(0%,0%,0%);stroke-opacity:1;stroke-miterlimit:4;" d="M 160.011761 509.610673 L 159.928146 505.587706 L 225.231772 498.834868 L 233.023207 520.688957 L 232.924389 524.711924 L 167.423126 535.752398 Z M 160.011761 509.610673 " transform="matrix(0.513886,0,0,0.516565,2.061321,0.112219)"/>
<path style="fill-rule:nonzero;fill:rgb(0%,0%,0%);fill-opacity:1;stroke-width:0.216;stroke-linecap:butt;stroke-linejoin:miter;stroke:rgb(0%,0%,0%);stroke-opacity:1;stroke-miterlimit:4;" d="M 514.335814 317.922334 C 517.140731 317.922334 519.398347 319.457414 519.398347 321.347906 C 519.398347 323.24596 517.140731 324.788602 514.335814 324.788602 C 511.546101 324.788602 509.288485 323.24596 509.288485 321.347906 C 509.288485 319.457414 511.546101 317.922334 514.335814 317.922334 Z M 514.335814 317.922334 " transform="matrix(0.513886,0,0,0.516565,2.061321,0.112219)"/>
<path style="fill-rule:nonzero;fill:rgb(0%,0%,0%);fill-opacity:1;stroke-width:0.216;stroke-linecap:butt;stroke-linejoin:miter;stroke:rgb(0%,0%,0%);stroke-opacity:1;stroke-miterlimit:4;" d="M 536.022608 303.478975 C 539.511651 303.478975 542.339372 305.142608 542.339372 307.184339 C 542.339372 309.241194 539.511651 310.91239 536.022608 310.91239 C 532.533566 310.91239 529.698244 309.241194 529.698244 307.184339 C 529.698244 305.142608 532.533566 303.478975 536.022608 303.478975 Z M 536.022608 303.478975 " transform="matrix(0.513886,0,0,0.516565,2.061321,0.112219)"/>
<path style="fill-rule:nonzero;fill:rgb(100%,100%,100%);fill-opacity:1;stroke-width:0.216;stroke-linecap:butt;stroke-linejoin:miter;stroke:rgb(0%,0%,0%);stroke-opacity:1;stroke-miterlimit:4;" d="M 535.194056 304.560336 C 537.839343 304.560336 539.982938 306.019796 539.982938 307.80442 C 539.982938 309.611731 537.839343 311.056067 535.194056 311.056067 C 532.55637 311.056067 530.412775 309.611731 530.412775 307.80442 C 530.412775 306.019796 532.55637 304.560336 535.194056 304.560336 Z M 535.194056 304.560336 " transform="matrix(0.513886,0,0,0.516565,2.061321,0.112219)"/>
<path style="fill-rule:nonzero;fill:rgb(100%,100%,100%);fill-opacity:1;stroke-width:0.216;stroke-linecap:butt;stroke-linejoin:miter;stroke:rgb(0%,0%,0%);stroke-opacity:1;stroke-miterlimit:4;" d="M 478.023927 348.313886 L 488.52146 357.229446 L 488.361831 368.685829 L 490.292587 357.569735 L 496.959014 353.463586 L 489.737684 355.580937 Z M 478.023927 348.313886 " transform="matrix(0.513886,0,0,0.516565,2.061321,0.112219)"/>
<path style="fill-rule:nonzero;fill:rgb(100%,100%,100%);fill-opacity:1;stroke-width:1;stroke-linecap:butt;stroke-linejoin:miter;stroke:rgb(0%,0%,0%);stroke-opacity:1;stroke-miterlimit:4;" d="M 160.011761 505.549896 L 225.231772 494.774091 L 232.924389 520.636023 L 167.423126 531.691621 Z M 160.011761 505.549896 " transform="matrix(0.513886,0,0,0.516565,2.061321,0.112219)"/>
<path style="fill-rule:nonzero;fill:rgb(0%,0%,0%);fill-opacity:1;stroke-width:0.216;stroke-linecap:butt;stroke-linejoin:miter;stroke:rgb(0%,0%,0%);stroke-opacity:1;stroke-miterlimit:4;" d="M 245.937986 510.843274 L 245.899979 509.451872 L 268.460934 507.107661 L 271.151829 514.662068 L 271.113822 516.05347 L 248.492056 519.872264 Z M 245.937986 510.843274 " transform="matrix(0.513886,0,0,0.516565,2.061321,0.112219)"/>
<path style="fill-rule:nonzero;fill:rgb(100%,100%,100%);fill-opacity:1;stroke-width:1;stroke-linecap:butt;stroke-linejoin:miter;stroke:rgb(0%,0%,0%);stroke-opacity:1;stroke-miterlimit:4;" d="M 245.937986 509.429186 L 268.460934 505.708697 L 271.113822 514.654506 L 248.492056 518.458176 Z M 245.937986 509.429186 " transform="matrix(0.513886,0,0,0.516565,2.061321,0.112219)"/>
<path style="fill-rule:nonzero;fill:rgb(0%,0%,0%);fill-opacity:1;stroke-width:0.216;stroke-linecap:butt;stroke-linejoin:miter;stroke:rgb(0%,0%,0%);stroke-opacity:1;stroke-miterlimit:4;" d="M 281.824195 504.861757 L 281.793789 503.470354 L 304.354744 501.126144 L 307.030437 508.680551 L 307.007632 510.071953 L 284.378265 513.890747 Z M 281.824195 504.861757 " transform="matrix(0.513886,0,0,0.516565,2.061321,0.112219)"/>
<path style="fill-rule:nonzero;fill:rgb(100%,100%,100%);fill-opacity:1;stroke-width:1;stroke-linecap:butt;stroke-linejoin:miter;stroke:rgb(0%,0%,0%);stroke-opacity:1;stroke-miterlimit:4;" d="M 281.824195 503.455231 L 304.354744 499.72718 L 307.007632 508.665427 L 284.378265 512.476659 Z M 281.824195 503.455231 " transform="matrix(0.513886,0,0,0.516565,2.061321,0.112219)"/>
<path style="fill-rule:nonzero;fill:rgb(0%,0%,0%);fill-opacity:1;stroke-width:0.216;stroke-linecap:butt;stroke-linejoin:miter;stroke:rgb(0%,0%,0%);stroke-opacity:1;stroke-miterlimit:4;" d="M 628.417624 138.786863 C 607.513774 165.881396 612.150628 189.005896 610.759572 205.80859 C 607.452963 181.988389 612.690328 158.485791 628.417624 138.786863 Z M 628.417624 138.786863 " transform="matrix(0.513886,0,0,0.516565,2.061321,0.112219)"/>
<path style="fill-rule:nonzero;fill:rgb(0%,0%,0%);fill-opacity:1;stroke-width:0.216;stroke-linecap:butt;stroke-linejoin:miter;stroke:rgb(0%,0%,0%);stroke-opacity:1;stroke-miterlimit:4;" d="M 193.511131 567.33874 C 219.021429 567.33874 239.704838 583.196188 239.704838 602.751438 C 239.704838 622.306689 219.021429 638.164137 193.511131 638.164137 C 168.000833 638.164137 147.317424 622.306689 147.317424 602.751438 C 147.317424 583.196188 168.000833 567.33874 193.511131 567.33874 Z M 193.511131 567.33874 " transform="matrix(0.513886,0,0,0.516565,2.061321,0.112219)"/>
<path style="fill-rule:nonzero;fill:rgb(0%,0%,0%);fill-opacity:1;stroke-width:0.216;stroke-linecap:butt;stroke-linejoin:miter;stroke:rgb(0%,0%,0%);stroke-opacity:1;stroke-miterlimit:4;" d="M 804.823311 453.924337 C 830.333609 453.924337 851.017018 469.781785 851.017018 489.329473 C 851.017018 508.884724 830.333609 524.742172 804.823311 524.742172 C 779.313013 524.742172 758.622003 508.884724 758.622003 489.329473 C 758.622003 469.781785 779.313013 453.924337 804.823311 453.924337 Z M 804.823311 453.924337 " transform="matrix(0.513886,0,0,0.516565,2.061321,0.112219)"/>
<path style="fill-rule:nonzero;fill:rgb(0%,0%,0%);fill-opacity:1;stroke-width:0.216;stroke-linecap:butt;stroke-linejoin:miter;stroke:rgb(0%,0%,0%);stroke-opacity:1;stroke-miterlimit:4;" d="M 369.050258 276.180268 C 369.050258 276.180268 368.046874 259.687615 372.197238 256.965307 C 376.370406 254.235436 368.616979 268.436813 371.193853 276.898655 C 370.41851 280.157864 367.925251 274.448578 369.050258 276.180268 Z M 369.050258 276.180268 " transform="matrix(0.513886,0,0,0.516565,2.061321,0.112219)"/>
<path style="fill-rule:nonzero;fill:rgb(0%,0%,0%);fill-opacity:1;stroke-width:0.216;stroke-linecap:butt;stroke-linejoin:miter;stroke:rgb(0%,0%,0%);stroke-opacity:1;stroke-miterlimit:4;" d="M 756.022324 289.436399 L 755.003736 294.828083 L 750.268064 289.950613 Z M 756.022324 289.436399 " transform="matrix(0.513886,0,0,0.516565,2.061321,0.112219)"/>
</g>
</svg>
