<?xml version="1.0" encoding="UTF-8" standalone="no"?>
<svg
   xmlns:dc="http://purl.org/dc/elements/1.1/"
   xmlns:cc="http://creativecommons.org/ns#"
   xmlns:rdf="http://www.w3.org/1999/02/22-rdf-syntax-ns#"
   xmlns:svg="http://www.w3.org/2000/svg"
   xmlns="http://www.w3.org/2000/svg"
   xmlns:xlink="http://www.w3.org/1999/xlink"
   xmlns:sodipodi="http://sodipodi.sourceforge.net/DTD/sodipodi-0.dtd"
   xmlns:inkscape="http://www.inkscape.org/namespaces/inkscape"
   width="297.31628"
   height="271.13858"
   viewBox="0 0 78.664932 71.73875"
   version="1.1"
   id="svg1546"
   sodipodi:docname="birthstone ring.svg"
   inkscape:export-filename="C:\Users\revza\Pictures\rect1548.png"
   inkscape:export-xdpi="106.505"
   inkscape:export-ydpi="106.505"
   inkscape:version="1.0.2 (e86c870879, 2021-01-15, custom)">
  <title
     id="title7821">Birthstone Ring</title>
  <defs
     id="defs1540">
    <linearGradient
       inkscape:collect="always"
       id="linearGradient7815">
      <stop
         style="stop-color:#999999;stop-opacity:1;"
         offset="0"
         id="stop7811" />
      <stop
         style="stop-color:#999999;stop-opacity:0;"
         offset="1"
         id="stop7813" />
    </linearGradient>
    <radialGradient
       inkscape:collect="always"
       xlink:href="#linearGradient7815"
       id="radialGradient7817"
       cx="86.74884"
       cy="151.82111"
       fx="86.74884"
       fy="151.82111"
       r="34.792774"
       gradientTransform="matrix(1.1353728,0,0,1.035416,-17.211447,-3.9753203)"
       gradientUnits="userSpaceOnUse" />
  </defs>
  <sodipodi:namedview
     id="base"
     pagecolor="#ffffff"
     bordercolor="#666666"
     borderopacity="1.0"
     inkscape:pageopacity="0.0"
     inkscape:pageshadow="2"
     inkscape:zoom="0.66291262"
     inkscape:cx="160.51539"
     inkscape:cy="127.72063"
     inkscape:document-units="mm"
     inkscape:current-layer="layer1"
     showgrid="false"
     inkscape:window-width="1366"
     inkscape:window-height="745"
     inkscape:window-x="-8"
     inkscape:window-y="-8"
     inkscape:window-maximized="1"
     inkscape:document-rotation="0"
     units="px"
     showborder="true"
     inkscape:showpageshadow="false"
     inkscape:pagecheckerboard="false"
     fit-margin-top="0"
     fit-margin-left="0"
     fit-margin-right="0"
     fit-margin-bottom="0" />
  <metadata
     id="metadata1543">
    <rdf:RDF>
      <cc:Work
         rdf:about="">
        <dc:format>image/svg+xml</dc:format>
        <dc:type
           rdf:resource="http://purl.org/dc/dcmitype/StillImage" />
        <dc:title>Birthstone Ring</dc:title>
        <dc:creator>
          <cc:Agent>
            <dc:title></dc:title>
          </cc:Agent>
        </dc:creator>
        <cc:license
           rdf:resource="http://creativecommons.org/publicdomain/zero/1.0/" />
        <dc:source>https://comicbookplus.com/?dlid=73393</dc:source>
        <dc:contributor>
          <cc:Agent>
            <dc:title>Cleanup: Rev. Dr. Zachary B. Rainey</dc:title>
          </cc:Agent>
        </dc:contributor>
      </cc:Work>
      <cc:License
         rdf:about="http://creativecommons.org/publicdomain/zero/1.0/">
        <cc:permits
           rdf:resource="http://creativecommons.org/ns#Reproduction" />
        <cc:permits
           rdf:resource="http://creativecommons.org/ns#Distribution" />
        <cc:permits
           rdf:resource="http://creativecommons.org/ns#DerivativeWorks" />
      </cc:License>
    </rdf:RDF>
  </metadata>
  <g
     inkscape:label="Layer 1"
     inkscape:groupmode="layer"
     id="layer1"
     transform="translate(-48.476181,-114.3)">
    <ellipse
       style="opacity:0.225058;fill:url(#radialGradient7817);fill-opacity:1;stroke:none;stroke-width:0.325603;stroke-linecap:round;stroke-miterlimit:4;stroke-dasharray:none;stroke-opacity:0.106849"
       id="path7809"
       cx="87.808647"
       cy="150.16937"
       rx="39.332466"
       ry="35.869373" />
    <path
       id="path7792"
       style="fill:#ffffff;stroke-width:0.999999"
       d="m 262.22852,459.04102 c -0.0566,-0.006 -0.11698,0.005 -0.18164,0.0332 -0.51731,0.22904 -1.05957,1.2803 -1.20508,2.33789 -0.14551,1.05755 0.12482,1.97739 0.60156,2.04297 0.47676,0.0658 1.01902,-0.98761 1.20508,-2.33985 0.16281,-1.18321 -0.024,-2.03325 -0.41992,-2.07421 z m 114.21289,4.5039 c -1.87866,0.111 -4.25323,0.79676 -8.2168,2.23438 -4.3687,1.58464 -17.01586,6.08705 -28.10352,10.00586 -11.08764,3.91884 -20.649,7.38623 -21.24804,7.70507 -0.59905,0.31862 -8.25471,3.13196 -17.01172,6.25196 -20.70621,7.37733 -23.36406,8.62879 -25.11524,11.8164 -0.8044,1.46419 -3.47704,11.92385 -5.9375,23.24414 -2.46046,11.32029 -6.13634,28.07609 -8.16992,37.23438 -5.79828,26.11276 -6.17525,28.92692 -3.91211,29.23828 1.14657,0.15798 1.44444,-0.29506 1.06641,-1.61914 h 0.002 c -0.69328,-2.42857 -0.60282,-3.01184 3.55664,-22.97852 6.87567,-33.00532 14.12151,-63.14021 15.55469,-64.68554 2.79034,-3.00881 7.23735,-4.86668 39.22852,-16.39258 17.78371,-6.40721 38.30881,-13.80695 45.61132,-16.44336 14.5414,-5.24984 17.26187,-5.27569 20.23829,-0.19336 1.40141,2.39301 1.40273,4.42524 0.0176,15.27539 -0.87809,6.88286 -1.70458,15.67895 -1.83789,19.54688 l -0.24218,7.0332 1.45507,-9.89453 c 0.80089,-5.44165 1.78271,-14.7494 2.18164,-20.6836 0.81578,-12.1344 -0.0509,-14.47843 -6.03711,-16.31445 -1.00448,-0.3081 -1.95288,-0.44746 -3.08007,-0.38086 z m -113.69532,1.53906 c -0.36791,0.0356 -0.9021,0.29993 -1.49609,0.84375 -0.91094,0.83403 -1.0651,1.39202 -0.4082,1.48243 0.57942,0.0797 1.4144,-0.29079 1.85351,-0.82227 0.81475,-0.98657 0.66397,-1.56324 0.0508,-1.50391 z m 114.04883,2.20704 c -2.13665,-0.0713 -4.81617,0.48913 -8.08594,1.67773 -3.15042,1.14523 -11.46384,4.15604 -18.4746,6.68945 -7.01077,2.5335 -13.23733,4.86402 -13.83594,5.17969 -0.59862,0.31559 -11.53753,4.23236 -24.3086,8.70313 -28.11433,9.84207 -30.76734,11.01135 -32.68164,14.40234 -1.63016,2.88763 -6.92776,26.03146 -17.29687,75.56641 -1.56994,7.49983 -1.66905,9.15859 -0.5293,8.94531 0.97851,-0.18331 1.5254,-1.76223 1.81836,-5.25391 0.39436,-4.70033 0.73639,-5.25905 5.82031,-9.55664 5.6658,-4.78923 17.11002,-10.88833 34.20508,-18.22851 5.60538,-2.40681 10.93525,-4.82658 11.84375,-5.37696 0.9085,-0.55033 4.15844,-1.88991 7.22266,-2.97656 4.08659,-1.44922 5.65018,-2.54142 5.86914,-4.09961 0.1638,-1.16844 1.14156,-3.31267 2.17187,-4.76367 1.79962,-2.53436 1.76978,-2.77744 -0.79101,-6.16602 -7.00563,-9.2702 -5.03197,-19.09414 4.26367,-21.21679 18.87742,-4.31063 28.76493,-7.88971 30.63867,-11.0918 1.74045,-2.97438 4.29366,-4.32037 7.38867,-3.89453 2.35918,0.32466 6.35279,6.31332 5.98633,8.97656 -0.14419,1.04791 0.22157,1.97144 0.8125,2.05274 0.74226,0.10204 1.67983,-5.00822 3.0332,-16.53907 1.63439,-13.92521 1.72874,-17.16941 0.57032,-19.60547 -1.04427,-2.1959 -2.89351,-3.33221 -5.64063,-3.42382 z m -113.7832,4.45507 c -0.24027,-0.034 -0.77383,0.34715 -1.18555,0.84571 -0.41172,0.49855 -0.2762,0.97137 0.30078,1.05078 0.57702,0.0794 1.11058,-0.301 1.18555,-0.8457 0.075,-0.54486 -0.0605,-1.01775 -0.30078,-1.05079 z m 108.5332,1.50586 c 0.35467,-0.0502 0.35962,1.69594 -0.11523,5.46094 -1.08976,8.64057 -2.59368,13.6481 -4.03907,13.44922 -0.63957,-0.0881 -0.36782,-2.89863 0.76368,-7.87109 1.60567,-7.0562 2.87226,-10.96575 3.39062,-11.03907 z m -118.54101,2.57422 c -0.067,0.0102 -0.13704,0.0317 -0.21094,0.0645 -0.59118,0.26155 -1.13258,0.89548 -1.20313,1.40821 -0.0706,0.51273 0.31648,0.99337 0.86133,1.06836 0.54487,0.0748 1.08625,-0.55876 1.20313,-1.40821 0.10225,-0.74326 -0.18166,-1.20451 -0.65039,-1.13281 z m 10.08203,0.0918 c -0.0824,9.8e-4 -0.1724,0.0111 -0.26953,0.0293 -0.74796,0.14022 -1.63588,0.81178 -1.97266,1.49414 -0.34991,0.70892 -0.029,1.13176 0.74805,0.98632 0.74795,-0.14022 1.63587,-0.81373 1.97265,-1.49609 0.30617,-0.62031 0.0986,-1.02052 -0.47851,-1.01367 z m -13.33399,0.0586 c -0.54486,-0.0748 -1.05198,0.31065 -1.12695,0.85547 -0.075,0.54486 0.31061,1.05201 0.85547,1.12695 0.54487,0.0748 1.05198,-0.31068 1.12695,-0.85546 0.075,-0.5449 -0.31061,-1.05197 -0.85547,-1.12696 z m 15.33008,1.48242 c -0.1181,-0.0186 -0.25259,9.7e-4 -0.40039,0.0664 -0.59118,0.26154 -1.1688,1.14561 -1.28125,1.96289 -0.11244,0.81729 0.27987,1.27154 0.87109,1.00977 0.59119,-0.26155 1.16685,-1.14557 1.2793,-1.96289 0.0843,-0.61297 -0.11444,-1.02046 -0.46875,-1.07618 z m 2.375,3.1504 c -1.07969,0.0844 -2.28471,0.6822 -2.39453,1.48046 -0.1731,1.25821 0.84902,1.42369 2.93359,0.47461 0.87126,-0.39662 1.32245,-1.06612 1.00391,-1.48633 -0.29318,-0.38673 -0.89515,-0.51941 -1.54297,-0.46874 z m 88.33985,1.88281 c 0.9339,0.1285 2.79765,9.43647 2.42773,12.125 -0.38252,2.78007 -2.1063,0.85348 -2.50391,-2.79883 -0.88277,-8.10886 -0.87109,-9.45649 0.0762,-9.32617 z m -84.79493,0.44531 c -0.54486,-0.0748 -1.08624,0.55875 -1.20312,1.4082 -0.11686,0.84945 0.27206,1.33017 0.86328,1.06836 0.59118,-0.26154 1.13258,-0.89551 1.20312,-1.4082 0.0705,-0.51269 -0.31839,-0.99341 -0.86328,-1.06836 z m 109.45508,0.15039 c 0.0616,-0.002 0.11194,0.0215 0.15039,0.0723 0.58065,0.76592 -2.47616,7.49529 -3.95703,8.71093 -0.60636,0.49777 -0.9087,0.14526 -0.76562,-0.89453 0.30571,-2.2219 3.6487,-7.8611 4.57226,-7.88867 z m -61.96484,7.5625 c 1.1807,-0.26003 8.57276,6.8782 11.88476,11.47656 4.38378,6.0864 -0.006,3.30362 -6.58203,-4.17187 -3.43411,-3.90384 -5.82075,-7.19059 -5.30273,-7.30469 z m 14.9707,3.65625 c 0.46189,0.091 1.25736,0.75682 2.31055,2.08594 1.41912,1.79097 2.52969,3.61762 2.46875,4.06054 -0.22708,1.65049 -2.62647,0.31505 -3.98438,-2.21874 -1.41126,-2.6333 -1.56473,-4.07933 -0.79492,-3.92774 z m 37.42773,3.02734 c -0.37806,0.0344 -0.79265,0.14958 -1.28515,0.32813 -1.27993,0.46405 -2.72228,1.28958 -3.20508,1.83398 -1.91863,2.16363 -0.96111,2.59258 2.52734,1.13282 3.01751,-1.26267 3.72851,-1.27251 4.01368,-0.0527 0.19056,0.81517 1.14224,1.57699 2.11523,1.69336 1.43163,0.17046 1.30194,-0.32788 -0.67773,-2.61914 -1.55327,-1.79779 -2.35408,-2.41953 -3.48829,-2.31641 z m -0.95117,5.3711 c -1.48834,-0.15038 -4.17686,0.49587 -9.25,2.04101 -4.24345,1.29245 -10.91128,3.29901 -14.81836,4.45899 -4.36678,1.29645 -7.18742,2.70655 -7.31836,3.6582 -0.38507,2.7987 3.54468,2.17577 18.63282,-2.95312 8.17056,-2.77747 14.64711,-5.52092 14.39257,-6.09571 -0.28439,-0.64226 -0.74566,-1.01914 -1.63867,-1.10937 z m -53.62695,0.83594 c 0.30299,0.0363 0.75836,0.18807 1.37695,0.47656 3.27525,1.52749 7.12843,4.32478 7.68164,5.57422 0.75115,1.6964 -1.77817,0.86929 -5.48632,-1.79297 -3.35229,-2.40679 -4.88523,-4.41509 -3.57227,-4.25781 z m 57.59766,2.36328 c -0.27979,-0.0167 -0.50133,0.0628 -0.6543,0.24804 -1.43808,1.74135 0.1402,5.64315 5.01562,12.40235 2.74009,3.79884 4.91965,7.35849 4.84375,7.91015 -0.076,0.5517 -2.41046,-2.04286 -5.1875,-5.76562 -5.68845,-7.62569 -7.36394,-8.08183 -12.96289,-3.53906 -3.3402,2.71011 -3.85588,4.19423 -3.15429,9.08203 0.51738,3.60438 6.19579,12.43934 8.16992,12.71093 0.74151,0.10205 4.79224,-0.99661 9.00195,-2.43945 4.20972,-1.44283 8.87402,-2.42074 10.36524,-2.17383 l 2.71093,0.44922 -2.66211,-2.94726 c -3.13375,-3.46976 -2.66196,-4.62075 0.69532,-1.69532 2.10822,1.83701 2.35281,1.87844 2.55078,0.43946 0.12057,-0.87538 -0.5957,-2.27105 -1.5918,-3.10156 -0.99609,-0.83044 -1.75098,-1.95943 -1.67773,-2.50977 0.0737,-0.5503 -1.93242,-4.07522 -4.45703,-7.83203 -4.22815,-6.2918 -9.04738,-11.12151 -11.00586,-11.23828 z m -4.72461,2.23047 c -3.54719,-0.0951 -22.8284,6.70787 -22.97266,8.27734 -0.0801,0.87126 3.03234,5.20244 6.91602,9.62305 3.88367,4.42065 8.62875,10.1369 10.54492,12.70312 2.1535,2.88397 3.79798,4.28807 4.30664,3.67578 0.45262,-0.54478 0.53306,-1.77238 0.17969,-2.72656 -0.35335,-0.95422 -2.50874,-4.03386 -4.79102,-6.84375 -2.28228,-2.80989 -5.80169,-7.40098 -7.82031,-10.20313 l -3.66992,-5.0957 9.09179,-3.16992 c 8.32538,-2.90275 10.63833,-4.52841 8.70508,-6.125 -0.0863,-0.0713 -0.25375,-0.1089 -0.49023,-0.11523 z m -34.66407,3.7832 c -2.94725,0.1272 -6.48643,4.02772 -7.02734,7.95898 -0.29885,2.17206 -0.13528,4.28553 0.36328,4.69727 0.51194,0.42293 1.05363,-0.3296 1.2461,-1.72852 0.32092,-2.33242 2.15596,-4.1226 3.03515,-2.96289 0.22001,0.29027 -0.28703,2.36455 -1.12695,4.61133 -1.60115,4.28307 -1.54613,6.86202 0.15234,7.0957 0.58055,0.0797 0.93325,-1.09131 0.83203,-2.76367 0,0 0,-0.002 0,-0.002 -0.10821,-1.79006 0.5067,-3.6412 1.60352,-4.82422 0.97957,-1.05626 1.35288,-1.98051 0.82812,-2.05273 -0.52474,-0.0722 -0.59896,-0.9905 -0.16406,-2.04102 0.62395,-1.50716 0.29729,-1.98491 -1.54883,-2.26758 l -2.33984,-0.36133 3.03125,-1.85546 c 3.41789,-2.09243 3.9431,-3.16924 1.69531,-3.47852 -0.19017,-0.0262 -0.38359,-0.0339 -0.58008,-0.0254 z m -42.40429,0.12891 c 1.4792,-0.15184 4.79454,0.64425 12.3457,2.8125 12.23175,3.5122 13.15893,3.85785 12.48828,4.66992 -0.73578,0.89094 -1.83742,0.71173 -8.89258,-1.45703 -2.66326,-0.81876 -7.69592,-2.20844 -11.18359,-3.08789 -3.54875,-0.89485 -6.06552,-1.9905 -5.71484,-2.48633 0.17355,-0.24539 0.46396,-0.40056 0.95703,-0.45117 z m 80.08203,6.18554 c 0.53078,0.0102 0.59638,0.47965 0.15625,1.2793 -0.93878,1.70566 -3.03696,1.79874 -2.19727,0.0977 0.30471,-0.61735 1.10806,-1.22679 1.78516,-1.35352 0.0946,-0.0177 0.18003,-0.0249 0.25586,-0.0234 z m -31.96094,0.61719 c -1.0444,0.0523 -1.98732,0.40539 -2.72851,1.08398 -1.32002,1.20855 0.10475,3.51475 10.89257,17.64844 6.82555,8.94248 13.13952,16.3597 14.03125,16.48242 1.06209,0.14627 2.00122,-0.91691 2.72461,-3.08398 0.90371,-2.70728 0.66647,-4.17952 -1.30468,-8.09961 -2.22521,-4.42541 -3.97936,-6.72131 -10.89844,-14.25977 -1.40763,-1.53365 -3.84865,-4.2532 -5.42578,-6.04492 -2.20444,-2.50446 -4.99334,-3.84166 -7.29102,-3.72656 z m 28.46875,2.74414 c 0.61522,0.14584 0.93123,1.21219 0.42383,2.24023 -0.47407,0.96053 -0.70813,0.92746 -1.19336,-0.16796 -0.33173,-0.74922 -0.29776,-1.59298 0.0742,-1.875 0.25215,-0.19115 0.49024,-0.24588 0.69531,-0.19727 z m -1.6582,3.83203 c 0.57702,0.0794 0.98707,0.58991 0.91211,1.13477 -0.075,0.54489 -0.33395,0.96471 -0.57422,0.93164 -0.24027,-0.034 -0.65033,-0.54357 -0.91211,-1.13477 -0.26181,-0.59119 -0.003,-1.01105 0.57422,-0.93164 z m -55.09375,1.84375 c 3.34554,-0.10918 7.36173,0.68726 7.24023,1.57031 -0.14026,1.01923 -10.15389,0.55501 -10.61719,-0.49218 -0.16641,-0.37607 0.73324,-0.81354 1.99805,-0.97266 0.43652,-0.0549 0.90097,-0.0899 1.37891,-0.10547 z m 23.19531,0.71485 c -0.69786,-0.003 -1.27966,0.18534 -1.49609,0.60742 -0.74632,1.45527 2.68826,5.98377 4.29101,5.6582 0.67825,-0.13795 1.19975,-1.1156 1.16016,-2.17383 -0.0396,-1.05819 -0.32748,-2.26268 -0.64063,-2.67578 -0.6639,-0.87574 -2.15135,-1.41138 -3.31445,-1.41601 z m 1.80859,7.7246 c -3.03824,-0.22734 -6.07614,3.55593 -6.81445,8.92188 -0.37066,2.69397 -0.31829,4.94787 0.11719,5.00781 0.43546,0.0601 0.82564,-1.47098 0.86523,-3.40039 0.0759,-3.69978 4.38914,-10.19251 5.3418,-8.04101 0.27292,0.6164 0.005,1.33747 -0.5957,1.60351 -2.14611,0.95029 -1.58687,3.477 0.76757,3.4668 3.35352,-0.0151 4.64118,-5.76846 1.61329,-7.20899 -0.42735,-0.20331 -0.86089,-0.31713 -1.29493,-0.34961 z m -14.3496,0.50782 c 1.03803,0.0284 1.68521,0.16433 1.87304,0.41211 0.91045,1.20094 -2.1389,1.7807 -17.41406,3.31054 -11.38011,1.1398 -12.62791,1.14917 -11.0625,0.0781 0.58223,-0.39836 2.90431,-0.93422 5.16016,-1.18946 2.25584,-0.25511 8.24301,-1.09283 13.30664,-1.86132 3.58989,-0.54485 6.40666,-0.79742 8.13672,-0.75 z m 70.7832,0.6582 c -0.36452,0.007 -0.6476,0.21847 -0.94141,0.60742 -0.52588,0.69612 -3.54524,1.84837 -6.71094,2.56055 -6.86929,1.54545 -7.34688,1.52912 -5.47851,-0.18164 1.18329,-1.08337 1.13595,-1.35769 -0.26758,-1.55078 -2.78517,-0.38321 -8.86714,1.92613 -9.07617,3.44531 -0.14929,1.08503 0.27783,1.23164 1.86328,0.64453 2.48891,-0.92171 3.21393,-0.8697 3.06445,0.2168 -0.0623,0.45278 -1.309,1.26695 -2.77148,1.80859 -1.97628,0.73183 -2.77122,1.78925 -3.0918,4.11914 -0.43354,3.15088 0.0134,4.5422 1.52344,4.75 0.44811,0.0616 6.4035,-1.85001 13.23437,-4.24804 15.54471,-5.45711 16.44635,-6.26204 11.59571,-10.35743 -1.49955,-1.26611 -2.33584,-1.82586 -2.94336,-1.81445 z m -50.52149,1.97852 c -0.0478,-0.004 -0.0834,0.006 -0.10742,0.0352 -1.36641,1.65453 1.45701,7.34438 6.14844,12.38672 2.61845,2.81431 4.93545,6.04978 5.14844,7.18945 0.3915,2.09492 1.71457,4.77841 2.40234,4.87305 0.20572,0.0265 0.5674,-1.34821 0.80273,-3.05859 0.35298,-2.56536 -0.8179,-4.78497 -6.6875,-12.67383 -3.66887,-4.93104 -6.98965,-8.68526 -7.70703,-8.75195 z m 60.76953,0.66015 c -0.6262,0.0367 -0.87684,0.67981 -0.38867,1.99805 0.43329,1.16999 1.21845,2.18547 1.74414,2.25781 0.5257,0.0722 0.88293,0.66646 0.79297,1.32031 -0.12737,0.92459 -0.3922,0.88977 -1.18945,-0.16211 -0.56391,-0.74384 -1.82784,-1.46272 -2.80859,-1.59765 -1.44809,-0.19918 -1.8957,0.57644 -2.38477,4.13086 -0.33109,2.40737 -0.97073,5.04499 -1.41992,5.86133 -0.4492,0.81641 -0.37566,1.54491 0.16406,1.61914 0.5396,0.0744 1.38757,-0.83096 1.88477,-2.01172 0.49704,-1.18076 1.04848,-3.15006 1.22461,-4.375 0.50551,-3.50767 2.06037,-2.36803 2.54687,1.86523 l 0.44141,3.8457 2.1289,-3.45898 c 2.75294,-4.47477 2.85551,-5.61012 0.77344,-8.56836 -1.27829,-1.81618 -2.70464,-2.77175 -3.50977,-2.72461 z m -85.47656,4.71094 c 0.68802,0.0646 0.87177,0.36674 0.60742,0.90234 -0.33532,0.6793 -2.88636,1.50304 -5.66992,1.83008 -6.87462,0.80765 -7.86085,0.4393 -2.8164,-1.05078 4.18748,-1.23694 6.73221,-1.78933 7.8789,-1.68164 z m 20.2793,0.99219 c -1.0624,-0.12026 -1.69793,1.33123 -0.70703,2.92578 0.53279,0.85746 0.61725,1.98549 0.1875,2.50586 -1.08125,1.30926 0.44029,1.32271 2.74609,0.0254 2.01799,-1.1356 3.18417,-4.79919 1.25586,-3.94531 -0.61712,0.27326 -1.66241,-0.0938 -2.32226,-0.81446 -0.405,-0.44235 -0.80603,-0.65718 -1.16016,-0.69726 z m -6.47266,1.92187 c -0.0797,0.0377 0.31444,0.46903 1.1211,1.32031 1.40416,1.4815 4.4771,3.02885 3.28125,1.65235 -0.19968,-0.23018 -1.40483,-1.10327 -2.67774,-1.93945 -1.09112,-0.71674 -1.64488,-1.07091 -1.72461,-1.03321 z m -4.33593,0.11914 c -2.73177,-0.37606 -49.94057,21.65224 -56.90625,26.55274 -3.04841,2.14465 -3.97632,3.54355 -4.77344,7.21093 -1.10042,5.06283 -0.22415,17.66602 1.34765,19.38086 0.55631,0.60696 5.5645,4.32992 11.12891,8.27344 5.5644,3.94348 18.80186,13.47374 29.41602,21.17774 10.61415,7.70396 20.14641,14.35108 21.18359,14.77148 1.03717,0.42043 1.93512,0.82396 1.99414,0.89648 0.0591,0.0726 2.03052,-0.26382 4.38086,-0.74609 4.19743,-0.86158 21.25758,-8.97097 36.33008,-17.26953 4.20482,-2.31507 12.53985,-6.76486 18.52148,-9.88867 5.98163,-3.12382 11.7834,-6.20738 12.89258,-6.85157 1.10922,-0.64418 7.33068,-3.77171 13.82617,-6.95117 13.00411,-6.36525 13.27508,-6.72015 12.08203,-15.85156 -0.78036,-5.9729 -3.67708,-10.46736 -10.54297,-16.36523 -9.89903,-8.50337 -13.17442,-9.8124 -16.11523,-6.4375 -2.57337,2.95328 -8.37614,4.97027 -16.53516,5.74609 -8.31616,0.79079 -9.40296,0.51978 -4.09765,-1.01758 4.20223,-1.21776 8.2446,-5.51165 8.76758,-9.3125 0.26872,-1.95352 -1.80127,-1.4324 -14.52735,3.65821 -4.93132,1.97253 -9.27987,3.54476 -9.66211,3.49218 -0.38223,-0.0525 -1.62363,0.68465 -2.75976,1.63867 -2.16287,1.81626 -5.82152,1.95942 -5.58203,0.21875 0.31914,-2.31953 -4.11936,-3.79134 -8.78321,-2.9121 -2.50899,0.47297 -5.98031,0.44118 -7.71289,-0.0723 -3.89652,-1.1551 -7.4579,1.61739 -8.16015,6.35351 -0.59527,4.01439 -5.29766,7.06699 -8.93946,5.80274 -3.18997,-1.10736 -4.06518,-0.62748 -7.88281,4.32226 -2.46109,3.19095 -7.56385,12.80286 -7.83203,14.75196 -0.1536,1.11643 2.59878,-0.0546 10.16797,-4.32422 4.73808,-2.67273 8.80373,-4.61126 9.0332,-4.30859 0.22949,0.30274 0.21481,0.6487 -0.0332,0.76953 -0.24794,0.12094 -4.27215,2.34598 -8.94141,4.94531 -8.8508,4.92722 -13.01146,8.48005 -13.42187,11.46289 -0.50984,3.70541 -3.51332,8.0124 -5.40625,7.75195 -3.03721,-0.4179 -6.94551,-6.75661 -5.84766,-9.48437 0.55921,-1.38936 0.49065,-2.35584 -0.17383,-2.44727 -0.60394,-0.0831 -1.17035,0.37003 -1.25781,1.00586 -0.0875,0.63568 -0.39097,0.84972 -0.67383,0.47656 -0.28286,-0.37303 0.34045,-1.60045 1.38477,-2.72656 1.04434,-1.12611 2.09421,-3.46104 2.33203,-5.18945 0.798,-5.7998 6.0136,-15.22514 11.97265,-21.63477 5.33779,-5.74144 5.73556,-6.45349 4.50391,-8.07812 -1.23165,-1.62467 -1.17294,-1.98608 0.66016,-4.08985 1.10586,-1.26909 2.82383,-2.19545 3.81836,-2.05859 1.1864,0.16328 2.5227,-1.02629 3.88672,-3.45898 1.455,-2.59495 2.87167,-3.79535 4.7207,-3.99805 2.00793,-0.21997 2.67255,-0.86443 2.77148,-2.68945 0.0716,-1.32065 -0.17744,-2.4442 -0.55468,-2.4961 z m 18.24023,2.88477 c -1.96155,-0.10575 -4.71005,0.90163 -6.59961,2.91406 -1.86777,1.98924 -3.49125,1.94154 -3.21094,-0.0957 0.11244,-0.81729 -0.24031,-1.54806 -0.78515,-1.62305 -1.58849,-0.21846 -1.43913,1.98452 0.25,3.67578 2.12422,2.12693 2.75071,2.11321 3.79882,-0.0898 1.00746,-2.11763 2.83794,-2.22497 4.33204,-0.25391 1.17716,1.55275 4.27366,0.0627 4.58593,-2.20703 0.20381,-1.48124 -0.84544,-2.23806 -2.37109,-2.32031 z m 50.42969,0.86523 c -1.07211,0.0704 -5.02401,1.27201 -9.55078,2.92969 -15.00776,5.49577 -16.3459,6.19541 -16.69336,8.7207 -0.29745,2.16174 0.38968,2.02305 12.4082,-2.48437 7.97083,-2.98938 13.06273,-5.48182 13.62891,-6.67188 0.49708,-1.04489 0.71388,-2.14793 0.48242,-2.45312 -0.0289,-0.0381 -0.12223,-0.0511 -0.27539,-0.041 z m -65.69141,0.34571 c -0.32238,-0.02 -0.56552,0.22189 -0.8164,0.67773 -0.44521,0.80893 -1.49177,1.37654 -2.32618,1.26172 -2.47823,-0.34091 -5.99583,2.99542 -6.42187,6.0918 -0.46623,3.38849 3.70689,8.67531 7.23047,9.16015 1.2351,0.17008 3.60211,-0.85731 5.28515,-2.29297 1.6765,-1.43009 3.11906,-3.16268 3.20508,-3.84961 0.10583,-0.84408 -0.22256,-0.8097 -1.00976,0.10547 -1.00036,1.16274 -1.13302,1.11306 -0.94532,-0.34765 0.12072,-0.93544 -0.71158,-2.37338 -1.84765,-3.19532 -1.85247,-1.34022 -1.95131,-1.30945 -0.96485,0.28907 0.65797,1.06613 0.70502,2.61212 0.11719,3.84765 -0.7185,1.51026 -1.14822,1.69273 -1.59766,0.67774 -0.33807,-0.76354 -0.29308,-2.06741 0.0996,-2.89649 0.56828,-1.19985 0.47777,-1.2586 -0.43945,-0.28711 -0.87206,0.92372 -1.56628,0.89757 -2.85547,-0.10937 -1.64613,-1.28565 -1.63816,-1.32342 0.23242,-1.09571 1.33184,0.16026 1.65962,-0.12685 1.05274,-0.92773 -0.87801,-1.15812 -4.30896,-0.93208 -4.41602,0.29102 -0.11164,1.27589 1.97411,4.09062 3.80469,5.13671 1.11313,0.6361 1.3671,1.18421 0.62695,1.35157 -1.68737,0.38154 -4.81833,-2.0016 -5.67773,-4.32227 -0.96415,-2.60356 0.60629,-4.16798 4.09375,-4.08203 2.22973,0.0552 2.90545,-0.38199 2.83984,-1.83008 -0.0793,-1.74962 0.0751,-1.70624 1.94531,0.53321 2.561,3.06629 7.386,6.42918 9.7129,6.76953 1.48381,0.21543 1.51784,0.37948 0.19726,0.98047 -1.36124,0.61965 -1.36088,0.84534 0.006,1.59765 0.92219,0.50767 2.34804,0.30062 3.39063,-0.48828 0.98995,-0.7505 2.64413,-1.24739 3.67578,-1.10547 3.11805,0.42902 4.6883,-2.80202 2.83203,-5.82617 -1.26615,-2.06275 -1.96327,-2.41653 -3.4668,-1.75977 -2.78734,1.21762 -3.2823,3.00895 -0.91992,3.33399 1.13514,0.15609 2.0027,0.73049 1.92773,1.27539 -0.18863,1.37099 -7.40312,0.24878 -10.57617,-1.64453 -1.43505,-0.85637 -3.82222,-3.03269 -5.30469,-4.83594 -1.39231,-1.69358 -2.15214,-2.4511 -2.68945,-2.48437 z m 31.41992,3.66601 c -1.64675,-0.22639 -3.71763,4.39882 -3.32812,7.43359 l 0.35351,2.75586 0.70508,-2.38671 c 0.38776,-1.31286 1.47147,-2.80233 2.41016,-3.3086 1.79825,-0.9699 1.69617,-4.2414 -0.14063,-4.49414 z m 38.90235,3.33399 c -0.54486,-0.0748 -1.14461,0.9777 -1.33203,2.33984 -0.18747,1.36218 0.10557,2.53829 0.65039,2.61328 0.54485,0.0748 1.1446,-0.97962 1.33203,-2.3418 0.18746,-1.36214 -0.10557,-2.53634 -0.65039,-2.61132 z m 11.78515,0.70312 c -0.556,0.0664 -0.84704,0.49352 -0.95703,1.29297 -0.12722,0.92462 0.73241,1.61414 2.27344,1.82617 2.76692,0.38068 3.5188,-0.98879 1.23437,-2.24609 -1.17405,-0.64619 -1.99478,-0.93942 -2.55078,-0.87305 z m -45.08203,0.0508 c -0.11383,0.01 -0.24002,0.0346 -0.38086,0.0781 -0.72477,0.22374 -2.1767,0.58011 -3.22461,0.79101 -1.5526,0.31257 -1.87157,1.04111 -1.73047,3.93555 0.14461,2.96598 -0.0702,3.41753 -1.30078,2.74023 -0.92705,-0.51027 -1.54791,-0.27064 -1.67383,0.64454 -0.36903,2.68214 2.67044,1.88595 5.72071,-1.49805 3.00963,-3.33886 4.29737,-6.83999 2.58984,-6.69141 z m 28.35742,0.20703 c -0.87285,-0.0397 -2.07695,1.29445 -3.72851,4.10938 -1.5258,2.6005 -2.83082,5.12975 -2.89844,5.62109 -0.19011,1.38127 3.80572,-0.40846 5.86133,-2.625 2.28688,-2.46595 2.86054,-6.04659 1.12109,-7.0039 -0.11143,-0.0614 -0.23077,-0.0959 -0.35547,-0.10157 z m -78.94726,1.65821 c -1.75765,0.0578 -3.86991,2.20434 -3.29102,3.51172 0.75114,1.69636 2.1249,1.5569 2.98828,-0.30274 0.424,-0.91325 0.36087,-0.35444 -0.13867,1.24219 -0.49969,1.59677 -1.03594,3.41159 -1.1914,4.03125 -0.15542,0.61965 -0.82762,0.82579 -1.49414,0.45898 -0.72389,-0.39832 -1.60703,0.31444 -2.19336,1.77149 -0.53987,1.34135 -1.67125,2.86786 -2.51563,3.39257 -1.35269,0.84053 -1.49942,2.75038 -0.22461,2.92579 0.25693,0.034 2.12583,-1.35773 4.15234,-3.09571 2.02652,-1.73801 4.68856,-4.33147 5.91602,-5.76172 2.08169,-2.42551 2.14463,-2.77985 0.95508,-5.28515 -0.70142,-1.47719 -1.87916,-2.76958 -2.61719,-2.8711 -0.11312,-0.0156 -0.22853,-0.0214 -0.3457,-0.0176 z m 89.26172,7.45507 c 0.27398,0.0117 0.61363,0.12709 1.01367,0.34571 2.70531,1.47847 12.90812,10.72459 12.78906,11.58984 -0.14664,1.06473 0.34987,1.35967 -7.68359,-4.5664 -3.89843,-2.8757 -7.01133,-5.83565 -6.91797,-6.57618 0.068,-0.54652 0.3422,-0.81241 0.79883,-0.79297 z m -81.61719,0.67969 c -1.88795,-0.0408 -3.76366,0.69908 -6.01563,2.35156 -2.03637,1.49428 -3.75934,3.13822 -3.83007,3.65235 -0.0708,0.51413 -0.94445,1.37436 -1.94141,1.91211 -1.16505,0.62834 -1.65494,1.65309 -1.37109,2.86718 0.38379,1.64153 1.09729,1.39452 5.44922,-1.88085 2.75434,-2.073 5.13699,-4.4331 5.29492,-5.24415 0.16747,-0.85995 0.53332,-0.49283 0.87695,0.87891 0.70722,2.82316 4.05977,3.56339 5.72852,1.26563 1.84193,-2.53618 0.24987,-5.23874 -3.38086,-5.73828 -0.27139,-0.0373 -0.54084,-0.0586 -0.81055,-0.0645 z m 21.14648,2.86328 c 1.08023,0.14854 0.30325,2.27719 -5,13.69336 -3.45907,7.44631 -5.60655,10.28507 -5.1914,6.85938 0.3092,-2.55179 9.29623,-20.67587 10.1914,-20.55274 z m -7.86914,0.93555 c 1.70946,0.23509 1.57711,1.20478 -0.4414,3.2207 -1.69565,1.6935 -2.89446,1.89996 -2.69727,0.4668 0.27965,-2.03237 1.84064,-3.86612 3.13867,-3.6875 z m 28.50977,0.67578 c 0.56102,0.10113 0.51046,2.5511 -0.14453,7.94922 -0.58442,4.81671 -1.14164,11.35976 -1.23633,14.53906 -0.19147,6.42981 -0.96358,7.38138 -1.8418,2.26953 -0.80287,-4.67338 1.44883,-23.52569 2.94531,-24.66015 0.1052,-0.0798 0.1972,-0.11211 0.27735,-0.0977 z m 33.5625,0.16406 c 0.27621,-0.0975 0.75461,0.33654 1.61523,1.36133 1.78179,2.1219 2.11466,3.824 0.71094,3.63086 -0.43593,-0.0601 -1.2525,-0.71716 -1.81641,-1.46094 -0.56386,-0.74381 -0.9372,-2.00021 -0.82812,-2.79296 0.0591,-0.42909 0.15263,-0.67977 0.31836,-0.73829 z m -12.42188,2.20118 c 0.26899,0.0394 0.6834,0.4779 1.2461,1.4375 1.65252,2.81835 3.41463,9.12125 2.70117,9.66211 -0.30161,0.22866 -1.44499,-1.55974 -2.54102,-3.97266 h -0.002 c -1.713,-3.77124 -2.21127,-7.24515 -1.4043,-7.12695 z m -30.77148,0.79492 c 0.14217,0.044 -0.10801,0.29333 -0.69336,0.76367 -0.78023,0.62683 -1.67331,2.9447 -1.98437,5.15039 -0.71169,5.04488 -2.07726,8.34509 -3.37891,8.16602 -0.60977,-0.0839 -0.56176,-1.56622 0.12109,-3.76954 0.61887,-1.99676 1.29634,-4.83999 1.50586,-6.31835 0.25229,-1.78088 1.18626,-2.97269 2.76758,-3.5293 0.98487,-0.34666 1.51994,-0.5069 1.66211,-0.46289 z M 375.06445,577 c 1.58321,0.2177 2.55689,5.20618 1.70899,8.75977 -0.66433,2.78468 -0.7719,2.83989 -1.58789,0.82812 -1.36729,-3.37077 -1.44861,-9.77052 -0.1211,-9.58789 z m -67.86133,2.10938 c -1.19343,0.0147 -2.40495,1.37901 -4.55468,4.51757 -3.49229,5.09862 -6.42871,17.49643 -5.28321,22.30274 0.79526,3.33675 1.73495,3.69393 4.15235,1.58008 0.96004,-0.83948 2.42694,-4.36581 3.25976,-7.83594 0.83284,-3.47006 2.62109,-8.84973 3.97266,-11.95703 2.35968,-5.42495 2.38992,-5.71558 0.78125,-7.26953 -0.90167,-0.87102 -1.61206,-1.34674 -2.32813,-1.33789 z m 115.65626,2.52734 c 0.88492,-0.0645 1.06038,1.08923 -0.004,2.49805 -0.86355,1.14315 -1.33127,1.21089 -1.75586,0.25195 -0.31824,-0.71864 -0.0214,-1.72911 0.6582,-2.24414 0.4328,-0.32811 0.80659,-0.48436 1.10157,-0.50586 z m -155.4375,2.16211 c 0.46873,-0.0716 0.75265,0.38968 0.65039,1.13281 -0.11687,0.84949 -0.65826,1.48315 -1.20313,1.4082 -0.54486,-0.0748 -0.93383,-0.55566 -0.86328,-1.06836 0.0706,-0.51273 0.61193,-1.14639 1.20312,-1.4082 0.0739,-0.0327 0.14593,-0.0542 0.2129,-0.0645 z m 150.7871,0.17383 c 0.0616,-0.009 0.1328,-0.007 0.21485,0.004 1.19728,0.16479 2.3343,2.23561 1.55273,2.82813 -0.28384,0.21505 -0.98556,-0.3659 -1.56054,-1.29102 -0.57034,-0.91791 -0.63841,-1.47646 -0.20704,-1.54101 z m -1.91796,1.72851 c 0.57702,0.0794 0.98901,0.58991 0.91406,1.13477 -0.0748,0.54485 -0.33399,0.96471 -0.57422,0.93164 -0.24038,-0.034 -0.6503,-0.54357 -0.91211,-1.13477 -0.26154,-0.59115 -0.005,-1.01101 0.57227,-0.93164 z m -140.61524,0.90625 c 0.2965,-0.0607 -0.009,0.41337 -0.85547,1.58399 -1.54552,2.13626 -2.50508,2.58153 -2.29687,1.06836 0.0658,-0.47819 0.94567,-1.37886 1.95508,-2.00196 0.62405,-0.38521 1.01936,-0.61398 1.19726,-0.65039 z m 135.19531,1.37696 c 0.54486,0.0748 1.20499,0.61974 1.4668,1.21093 0.26154,0.5912 0.0293,1.01249 -0.51562,0.9375 -0.5449,-0.0748 -1.20503,-0.61974 -1.4668,-1.21093 -0.26154,-0.59116 -0.0294,-1.01245 0.51562,-0.9375 z m -2.2539,1.70898 c 0.54485,0.0748 1.20502,0.61974 1.46679,1.21094 0.26155,0.59119 0.0293,1.01248 -0.51562,0.9375 -0.5449,-0.0748 -1.20507,-0.61975 -1.4668,-1.21094 -0.26154,-0.59116 -0.0293,-1.01249 0.51563,-0.9375 z m -132.76563,0.24219 c 0.3647,-0.0197 0.58749,0.21434 0.53125,0.62304 -0.075,0.54486 -0.61973,1.20304 -1.21093,1.46485 -0.59118,0.26154 -1.01445,0.0313 -0.93946,-0.51367 0.075,-0.5449 0.61974,-1.20503 1.21094,-1.4668 0.14779,-0.0654 0.28664,-0.10084 0.4082,-0.10742 z m -13.57422,1.04492 c -2.18132,0.11679 -4.49909,4.85809 -3.47656,7.11133 0.43952,0.9685 11.92176,9.81882 25.51758,19.66797 38.5031,27.89257 43.78806,31.47339 47.16211,31.95898 1.71394,0.24718 5.84878,-0.54066 9.1875,-1.75 3.33872,-1.20937 7.46145,-3.02683 9.16015,-4.03906 1.69873,-1.01227 10.47547,-5.59447 19.50391,-10.18164 9.02843,-4.58718 21.17179,-10.88016 26.98633,-13.98633 5.8145,-3.10617 12.76335,-6.71746 15.44141,-8.02344 17.88676,-8.72277 21.74201,-10.89523 21.02148,-11.8457 -0.48091,-0.63436 -5.1843,1.20331 -12.07227,4.7168 -6.20643,3.16588 -14.97672,7.60161 -19.49023,9.85742 -9.19449,4.59526 -14.64725,7.39126 -31.96094,16.38476 -6.57707,3.41639 -13.89556,7.2113 -16.26367,8.4336 -19.56852,10.1001 -21.13682,9.97262 -38.96875,-3.17578 -7.05663,-5.20324 -18.62251,-13.5878 -25.70117,-18.63086 -23.48531,-16.73178 -22.83323,-16.13467 -23.70508,-21.66797 -0.53802,-3.4145 -1.25225,-4.88844 -2.3418,-4.83008 z m 142.81641,0.27344 c 0.0616,-0.009 0.13279,-0.009 0.21484,0.002 1.19728,0.16479 2.33431,2.2376 1.55274,2.83008 -0.28384,0.21505 -0.98561,-0.36786 -1.56055,-1.29297 -0.57037,-0.91792 -0.63843,-1.47451 -0.20703,-1.53906 z m -127.63281,1.01757 c 0.35423,-0.0555 0.95279,0.34967 1.51953,1.26172 0.65184,1.04901 0.64892,1.62748 -0.008,1.53711 -0.57942,-0.0797 -1.28135,-0.66051 -1.56055,-1.29101 -0.41443,-0.93597 -0.3054,-1.45228 0.0488,-1.50782 z m 124.64648,1.57227 c 0.54486,0.0748 0.93046,0.5821 0.85547,1.12695 -0.0748,0.5449 -0.5821,0.93046 -1.12695,0.85547 -0.54486,-0.0748 -0.93042,-0.58209 -0.85547,-1.12695 0.0748,-0.5449 0.5821,-0.93046 1.12695,-0.85547 z m -118.93359,1.17969 c 0.26683,0.0436 0.24313,0.43822 -0.10156,1.06445 -0.89473,1.62558 -1.64724,1.84101 -1.45118,0.41602 0.0706,-0.51273 0.60698,-1.1436 1.19141,-1.40235 0.15233,-0.0675 0.27238,-0.0927 0.36133,-0.0781 z m 3.29492,0.15234 c 0.107,0.0571 -0.0958,0.58192 -0.51758,1.62695 -0.87123,2.15861 -2.87146,3.77967 -2.64648,2.14454 0.065,-0.47286 0.88264,-1.63502 1.81836,-2.58399 0.82069,-0.83225 1.2387,-1.24458 1.3457,-1.1875 z m 112.33594,0.23242 c 0.57706,0.0794 0.98905,0.58991 0.91406,1.13477 -0.0748,0.54486 -0.33407,0.96471 -0.57422,0.93164 -0.24038,-0.034 -0.65038,-0.54357 -0.91211,-1.13477 -0.26154,-0.59115 -0.005,-1.01101 0.57227,-0.93164 z m -3.88672,0.69336 c 0.20755,-0.0447 0.52896,0.19185 0.91211,0.69727 0.55608,0.73349 0.74996,1.53267 0.42969,1.77539 -0.32013,0.24264 -0.83906,0.10255 -1.15235,-0.31055 -0.31332,-0.41318 -0.50717,-1.21036 -0.42969,-1.77344 0.032,-0.23276 0.11571,-0.36183 0.24024,-0.38867 z m -3.1582,1.80078 c 0.35425,-0.0555 0.95482,0.35162 1.52148,1.26368 0.65182,1.049 0.64854,1.62747 -0.008,1.5371 -0.57944,-0.0797 -1.28331,-0.66051 -1.5625,-1.29101 -0.41445,-0.93596 -0.30542,-1.45423 0.0488,-1.50977 z m -103.32032,0.98047 c 0.36896,-0.017 0.38472,0.60748 0.004,1.52735 -0.92319,2.22996 -1.63759,2.42933 -1.35547,0.3789 0.10802,-0.78516 0.63581,-1.62202 1.17188,-1.85937 0.067,-0.0296 0.12697,-0.0445 0.17968,-0.0469 z m 100.40625,0.73828 c 0.3415,0.0602 0.78129,0.4854 1.23242,1.22657 1.07709,1.76961 1.03628,1.88813 -0.38085,1.12304 -1.03125,-0.55668 -1.76999,-0.3157 -2.11329,0.6875 -0.47803,1.39741 -0.63502,1.37002 -1.6621,-0.28515 -0.97134,-1.56529 -0.91547,-1.79691 0.39062,-1.61719 0.83864,0.11527 1.75826,-0.26301 2.04297,-0.83984 0.11622,-0.23565 0.28534,-0.33103 0.49023,-0.29493 z m -98.09765,0.5 c 0.10393,-0.0101 0.194,0.0246 0.25976,0.11133 0.26302,0.34734 -0.15238,1.10472 -0.92187,1.6836 -1.11202,0.83648 -1.2104,0.70705 -0.47852,-0.63086 0.37984,-0.69438 0.82884,-1.13385 1.14063,-1.16407 z m 92.96093,2.29493 c 0.57702,0.0794 0.98706,0.5899 0.91211,1.13476 -0.0748,0.54486 -0.33204,0.96471 -0.57226,0.93164 -0.24038,-0.034 -0.6503,-0.54552 -0.91211,-1.13672 -0.26154,-0.59115 -0.005,-1.00905 0.57226,-0.92968 z m -3.55078,1.68554 c 0.87551,-0.10379 2.20713,1.18428 2.06641,2.20703 -0.17424,1.26603 -1.87451,0.94621 -2.50195,-0.4707 -0.27893,-0.6305 -0.23696,-1.35079 0.0937,-1.60156 0.1009,-0.0765 0.21672,-0.11994 0.34179,-0.13477 z m -3.26953,3.43164 c 0.54486,0.0748 1.20499,0.6217 1.4668,1.21289 0.26154,0.59116 0.0294,1.01245 -0.51563,0.9375 -0.54486,-0.0748 -1.20305,-0.61974 -1.46484,-1.21093 -0.26166,-0.5912 -0.0313,-1.01444 0.51367,-0.93946 z m -3.10742,0.58203 c 0.54486,0.0748 1.20501,0.61971 1.4668,1.21094 0.26165,0.59116 0.029,1.0144 -0.51563,0.93945 -0.54486,-0.0748 -1.205,-0.61974 -1.4668,-1.21093 -0.26165,-0.5912 -0.0293,-1.01444 0.51563,-0.93946 z m -4.75586,1.42188 c 0.18923,-0.002 0.46285,0.0259 0.82422,0.0723 0.92239,0.11943 1.89057,0.69786 2.15234,1.28906 0.60238,1.3604 -0.70897,1.181 -2.47656,-0.33985 -0.87506,-0.75288 -1.06769,-1.0158 -0.5,-1.02148 z m -63.71484,1.47266 c 0.036,-0.0165 0.0647,-0.0135 0.082,0.01 0.52779,0.70836 -1.58428,5.63927 -2.36914,5.53125 -0.45301,-0.0624 -0.16178,-1.40951 0.64648,-2.99219 0.70723,-1.38484 1.38831,-2.43327 1.64063,-2.54882 z m 60.71679,0.13867 c 0.18177,-0.0201 0.43457,-0.002 0.76368,0.043 0.884,0.1217 1.51674,0.88974 1.40429,1.70703 -0.11248,0.81732 -0.37433,1.46385 -0.58008,1.43554 -0.20572,-0.0264 -0.8365,-0.79635 -1.40234,-1.70703 -0.63195,-1.01698 -0.73086,-1.41833 -0.18555,-1.47851 z m -58.70507,2.32812 c 0.1158,0.0282 0.16492,0.18124 0.13281,0.46289 -0.0817,0.71551 0.33652,1.08599 0.92773,0.82422 1.2649,-0.56009 1.21264,0.66352 -0.0937,2.20508 -0.54696,0.64543 -1.40852,0.67658 -2.13281,0.0781 v 0.002 c -0.91735,-0.75757 -0.88777,-1.42029 0.11719,-2.70703 0.48011,-0.61472 0.85582,-0.9123 1.04883,-0.86524 z m 54.4707,1.06446 c 0.54487,0.0748 1.20502,0.62169 1.4668,1.21289 0.2618,0.59119 0.0293,1.01248 -0.51563,0.9375 -0.54487,-0.0748 -1.20502,-0.61975 -1.4668,-1.21094 -0.2618,-0.59119 -0.0293,-1.0144 0.51563,-0.93945 z m -3.52344,1.5625 c 0.0617,-0.009 0.13275,-0.009 0.21485,0.002 1.19727,0.16479 2.33623,2.23561 1.55468,2.82812 -0.28369,0.21506 -0.98754,-0.36586 -1.5625,-1.29101 -0.57036,-0.91792 -0.63866,-1.47448 -0.20703,-1.53906 z m -6.15234,3.16406 c 0.57703,0.0794 0.98708,0.58987 0.91211,1.13476 -0.075,0.54486 -0.33196,0.96276 -0.57227,0.92969 -0.24026,-0.034 -0.65033,-0.54357 -0.91211,-1.13476 -0.26181,-0.5912 -0.005,-1.00906 0.57227,-0.92969 z m -92.65625,1.5664 c -0.34969,-0.0419 -0.40052,0.24305 -0.45899,0.66797 -0.068,0.49418 3.08901,3.13613 7.01563,5.86914 13.22078,9.20202 23.66412,16.8524 24.98828,18.30664 1.38833,1.52463 15.6903,11.75038 16.54297,11.82813 0.27398,0.0265 -0.32933,-0.86482 -1.33985,-1.97656 -1.01051,-1.11171 -7.58221,-6.17216 -14.60351,-11.2461 -7.02131,-5.07397 -17.01146,-12.4518 -22.20117,-16.39453 -6.9541,-5.28319 -9.17404,-6.96255 -9.94336,-7.05469 z m 58.25586,2.125 c 0.0882,0.026 0.17414,0.19319 0.25195,0.50586 0.18777,0.75451 0.0347,1.60284 -0.33984,1.88672 -0.37448,0.28385 -0.52854,-0.33263 -0.3418,-1.37109 0.12898,-0.71721 0.28267,-1.06489 0.42969,-1.02149 z m 117.51367,0.64063 c -0.0982,0.009 -0.22561,0.0313 -0.38281,0.0723 -1.53876,0.40044 -28.89767,15.10528 -61.17774,32.88085 -15.40762,8.48444 -28.99622,15.1902 -30.39258,14.99805 -0.71432,-0.0983 -1.35617,0.24729 -1.42773,0.76758 -0.22598,1.64232 -6.9596,1.35715 -10.72266,-0.45313 -1.98663,-0.95569 -6.10314,-3.44773 -9.14648,-5.53906 -3.04334,-2.09132 -7.13062,-4.89781 -9.08203,-6.23633 -1.95142,-1.33852 -3.77472,-2.26152 -4.05274,-2.05078 -1.03503,0.78467 16.17348,12.90756 22.67578,15.97461 1.30337,0.61478 2.3949,1.16092 2.42579,1.21289 0.031,0.0518 2.43085,-0.26823 5.33398,-0.71289 3.243,-0.49655 9.818,-3.21392 17.05078,-7.04492 14.51395,-7.68767 42.14409,-22.86338 42.92774,-23.57813 0.31748,-0.28951 3.25889,-1.86288 6.53711,-3.49609 3.27821,-1.63317 7.43235,-3.75726 9.23046,-4.7207 1.79811,-0.96348 6.51475,-3.4616 10.48243,-5.55274 6.2061,-3.27082 11.19403,-6.65109 9.7207,-6.52148 z m -114.26758,0.68359 c 0.29395,0.098 -0.13898,1.38874 -1.20117,3.15039 -0.74115,1.22922 -1.07351,1.35582 -0.97461,0.3711 0.0825,-0.82145 0.67382,-2.10305 1.31445,-2.84766 0.44358,-0.51559 0.72772,-0.71835 0.86133,-0.67383 z m 3.01563,0.39844 c 0.10415,0.0118 0.15311,0.11601 0.125,0.32031 -0.075,0.54486 -0.66211,1.59915 -1.30274,2.34375 -0.64064,0.74468 -1.10231,0.90818 -1.02734,0.36328 0.075,-0.54485 0.66015,-1.5991 1.30078,-2.34375 0.4004,-0.46537 0.7307,-0.70328 0.9043,-0.68359 z m -68.5254,1.32227 c -0.0654,0.009 -0.10382,0.0412 -0.11132,0.0957 -0.06,0.43635 5.76785,5.12096 12.95117,10.41211 7.18332,5.29115 15.7303,11.68263 18.99219,14.20312 15.8668,12.26022 37.24751,27.55845 42.23828,30.22071 5.86815,3.13024 7.98773,3.32767 13.77344,1.28125 2.75262,-0.97361 7.50421,-3.1582 10.55859,-4.85547 3.05439,-1.69731 11.66163,-6.49192 19.12891,-10.65235 7.46726,-4.1605 14.55641,-8.07029 15.75195,-8.68945 8.97743,-4.64957 16.41545,-8.67184 16.90429,-9.14258 0.32013,-0.30803 4.73177,-2.66639 9.80469,-5.23828 12.11619,-6.14268 26.22467,-14.38591 25.73242,-15.03515 -0.21467,-0.28347 -2.47807,0.64898 -5.02929,2.07031 -2.55118,1.42137 -7.33161,3.99912 -10.62305,5.72851 -3.29148,1.72936 -12.62285,6.82119 -20.73633,11.31641 -8.11343,4.49522 -17.92479,9.77534 -21.80273,11.73242 -3.87795,1.95697 -9.11713,4.72922 -11.64258,6.16211 -8.16304,4.63159 -29.13981,15.57741 -31.39453,16.38086 -3.30445,1.17747 -9.12892,-1.40262 -18.7793,-8.31836 -9.77192,-7.00271 -33.09982,-24.3644 -39.09765,-29.09766 -2.25362,-1.77845 -7.20238,-5.42167 -10.99805,-8.09765 -3.79567,-2.67598 -8.86331,-6.28465 -11.26172,-8.01953 -2.0986,-1.51805 -3.90136,-2.52224 -4.35938,-2.45703 z m 72.75196,1.42578 c 0.0882,0.026 0.17413,0.19318 0.25195,0.50586 0.18777,0.7545 0.0348,1.60475 -0.33984,1.88867 -0.37448,0.28384 -0.52854,-0.33459 -0.3418,-1.37305 0.12898,-0.71723 0.28266,-1.06488 0.42969,-1.02148 z m 2.97265,0.4082 c 0.0882,0.026 0.17414,0.1932 0.25196,0.50586 0.18776,0.75454 0.0347,1.60475 -0.33985,1.88867 -0.37447,0.28384 -0.52853,-0.33263 -0.34179,-1.37109 0.12897,-0.71721 0.28266,-1.06683 0.42968,-1.02344 z m 1.67383,24.29102 c -0.21563,0.005 -0.41988,0.0309 -0.59961,0.0762 -0.71889,0.18104 -0.19222,0.48249 1.16993,0.66992 1.36216,0.18746 1.94992,0.038 1.30664,-0.33008 -0.48246,-0.27638 -1.23007,-0.43195 -1.87696,-0.41601 z m 1.46875,2.57812 c -0.26755,0.0357 -0.5127,0.15009 -0.68554,0.35938 -0.41842,0.50668 -0.0663,1.01595 0.7832,1.13281 0.84945,0.11679 1.57241,0.0146 1.60547,-0.22461 0.10791,-0.78426 -0.90048,-1.37461 -1.70313,-1.26758 z m -0.12304,6.58594 c -0.55299,0.0729 -0.97484,0.36408 -1.0293,0.75976 -0.0726,0.52774 0.57118,0.79494 1.43164,0.59375 0.86047,-0.20144 1.58967,-0.54171 1.61914,-0.75586 0.0295,-0.21429 -0.61629,-0.4813 -1.43359,-0.59374 -0.20433,-0.0281 -0.40357,-0.0282 -0.58789,-0.004 z m 1.0625,16.29883 c -0.65895,0.0631 -1.00689,0.37485 -0.81055,0.81836 0.26181,0.59119 1.11915,1.16342 1.9043,1.27148 0.78514,0.1081 1.48948,-0.24815 1.56445,-0.79297 0.075,-0.54485 -0.78241,-1.11709 -1.9043,-1.27148 -0.28047,-0.0386 -0.53425,-0.0464 -0.7539,-0.0254 z"
       transform="scale(0.26458333)" />
    <path
       style="fill:#000000;stroke-width:0.264583"
       d="m 87.842089,183.23334 c -0.934492,-0.28489 -2.500345,-1.27525 -2.334259,-1.47636 0.0784,-0.0949 -1.034909,-0.9805 -2.474043,-1.96789 -1.439131,-0.9874 -2.666144,-1.87197 -2.726692,-1.9657 -0.188437,-0.29173 -6.059098,-4.68175 -10.901762,-8.15225 -3.680159,-2.63737 -3.503397,-2.45275 -3.358249,-3.50767 0.08712,-0.63319 0.453248,-1.27431 1.141858,-1.9995 l 1.013615,-1.06745 -0.116319,-1.95856 c -0.06397,-1.07722 -0.131293,-2.38127 -0.149596,-2.89791 -0.02783,-0.78543 -0.27433,-1.14756 -1.504437,-2.21007 -0.809137,-0.6989 -1.675265,-1.38507 -1.924731,-1.52483 -0.249464,-0.13976 -0.436819,-0.37586 -0.416343,-0.52468 0.02047,-0.1488 -0.114858,-0.29148 -0.300736,-0.31705 -0.534906,-0.0736 -3.650163,-3.9666 -3.580324,-4.47418 0.03463,-0.25169 -0.134011,-2.15806 -0.374762,-4.23637 -0.37695,-3.25407 -0.381332,-4.32725 -0.03156,-7.72901 0.343967,-3.34534 0.538095,-4.30565 1.267701,-6.27102 0.988584,-2.66301 2.804748,-5.45082 5.008559,-7.68814 1.91739,-1.94655 2.087262,-2.07815 4.028112,-3.12062 0.887815,-0.47686 1.801705,-1.00122 2.030866,-1.16523 1.599034,-1.14448 7.419991,-2.63445 11.46027,-2.93344 2.011062,-0.14882 7.475535,0.59542 9.175717,1.24968 0.697525,0.26844 1.874911,0.88293 2.616412,1.36554 4.277018,2.78374 6.841484,4.57392 7.063074,4.93055 0.30656,0.49335 0.25407,1.62249 -0.35332,7.60083 l -0.47164,4.64222 2.36167,3.16272 c 1.61214,2.15898 2.54895,3.1885 2.95178,3.24393 1.55442,0.21387 1.92498,2.72004 0.63586,4.30039 -0.35274,0.43241 -0.68152,1.07824 -0.73063,1.43516 -0.0768,0.55825 0.0305,0.66543 0.76807,0.76691 0.54285,0.0747 1.5634,0.6677 2.78216,1.61664 2.7657,2.15339 3.32771,2.95109 3.59424,5.10167 0.12408,1.00118 0.44561,2.08044 0.72378,2.42951 0.27527,0.34545 0.53096,0.86137 0.5682,1.14648 0.0372,0.28511 0.16155,1.32413 0.27625,2.30892 0.20282,1.74137 0.24055,1.80955 1.3741,2.48361 0.68492,0.40728 1.41538,1.13466 1.77141,1.76394 0.52538,0.9286 0.55283,1.14199 0.20676,1.60651 -0.21951,0.29461 -0.87717,0.79593 -1.4615,1.11404 -0.58431,0.31811 -2.45766,1.38239 -4.16301,2.36504 -1.70534,0.98266 -4.57399,2.61491 -6.37475,3.62724 -3.11492,1.75109 -4.94828,2.77174 -11.225315,6.24925 -1.510623,0.83691 -2.814711,1.58001 -2.897973,1.65136 -0.08326,0.0713 -0.407812,0.24641 -0.721217,0.38902 -0.313406,0.14262 -0.955847,0.44437 -1.427645,0.67057 -0.824428,0.39527 -1.415532,0.38812 -2.799643,-0.0338 z m 2.988521,-2.7302 c 0.728298,-0.2576 1.985382,-0.83579 2.793521,-1.28486 0.808141,-0.44908 3.085837,-1.71716 5.061554,-2.81794 1.975715,-1.1008 3.851025,-2.1355 4.167345,-2.29932 2.37528,-1.2302 4.34322,-2.29466 4.47256,-2.41921 0.0847,-0.0815 1.2521,-0.70501 2.59431,-1.38549 3.20574,-1.62525 6.9387,-3.80645 6.80846,-3.97823 -0.0568,-0.075 -0.6556,0.17138 -1.33061,0.54744 -0.675,0.37607 -1.9398,1.05811 -2.81066,1.51568 -0.87087,0.45756 -3.33977,1.80505 -5.48646,2.99441 -2.14668,1.18936 -4.74255,2.58613 -5.76859,3.10394 -1.02604,0.51778 -2.412231,1.25163 -3.080424,1.63075 -2.159805,1.22544 -7.710228,4.12114 -8.30679,4.33372 -0.874302,0.31154 -2.415283,-0.37098 -4.968611,-2.20077 -2.585488,-1.8528 -8.757619,-6.44614 -10.344545,-7.69848 -0.59627,-0.47055 -1.905804,-1.43483 -2.910075,-2.14285 -1.004271,-0.70802 -2.345148,-1.66287 -2.979727,-2.12189 -0.634577,-0.45903 -1.166775,-0.74014 -1.182658,-0.6247 -0.01588,0.11545 1.526145,1.35532 3.426732,2.75527 1.900587,1.39995 4.161738,3.09098 5.024778,3.75786 4.198091,3.24385 9.855453,7.29138 11.175927,7.99577 1.552616,0.82821 2.113161,0.88035 3.643963,0.3389 z m -1.423392,-0.88067 c 0.01984,-0.14416 -0.206799,-0.29553 -0.503632,-0.33638 -0.296833,-0.0408 -0.483029,0.0537 -0.413766,0.21016 0.06927,0.15642 0.295897,0.30778 0.503633,0.33637 0.207736,0.0286 0.393929,-0.066 0.413765,-0.21015 z m 0.361173,-1.15754 c 0.858044,-0.13138 2.59767,-0.85002 4.511344,-1.86364 3.84015,-2.03403 11.150445,-6.04928 11.357785,-6.23839 0.084,-0.0766 0.86236,-0.49282 1.72972,-0.92494 0.86736,-0.43211 1.96627,-0.99424 2.44202,-1.24915 0.47575,-0.25492 1.72391,-0.91617 2.77369,-1.46945 1.7515,-0.9231 3.13608,-1.8792 2.47059,-1.706 -0.40713,0.10595 -7.64599,3.9965 -16.186758,8.69962 -4.0766,2.24484 -7.671621,4.01889 -8.041073,3.96805 -0.188997,-0.026 -0.359126,0.0653 -0.378061,0.20296 -0.05979,0.43453 -1.841581,0.35951 -2.837223,-0.11946 -0.525629,-0.25286 -1.614501,-0.91247 -2.419718,-1.4658 -0.805217,-0.55333 -1.886469,-1.29582 -2.40278,-1.64997 -0.516312,-0.35415 -0.998933,-0.59828 -1.072491,-0.54252 -0.273853,0.20761 4.279264,3.4153 5.999666,4.22679 0.344849,0.16266 0.633681,0.307 0.641852,0.32075 0.0082,0.0137 0.643316,-0.0712 1.411437,-0.18885 z m -0.810701,-3.33964 c 0.0078,-0.0567 -0.162754,-0.12736 -0.378998,-0.15711 -0.216243,-0.0297 -0.408891,0.0602 -0.428103,0.19979 -0.01921,0.13963 0.151335,0.21034 0.378997,0.15711 0.227666,-0.0533 0.420307,-0.14313 0.428104,-0.19979 z m -7.939784,-1.68312 c -0.267364,-0.29414 -2.006067,-1.6332 -3.863787,-2.97568 -1.857721,-1.34249 -4.501129,-3.2944 -5.87424,-4.33758 -2.676275,-2.03323 -2.70262,-2.0494 -2.752121,-1.68963 -0.01799,0.13075 0.817315,0.82936 1.856232,1.55247 3.497999,2.4347 6.261014,4.45898 6.611364,4.84375 0.36733,0.40339 4.151175,3.10891 4.376778,3.12948 0.07249,0.007 -0.08686,-0.22866 -0.354226,-0.52281 z m 7.888071,0.11789 c 0.03807,-0.27667 -0.448968,-0.4621 -0.631893,-0.24061 -0.110707,0.13406 -0.01741,0.26904 0.207349,0.29996 0.224751,0.0309 0.415797,0.004 0.424544,-0.0593 z m -0.342523,-0.90747 c -0.170199,-0.0975 -0.465078,-0.13808 -0.655286,-0.0902 -0.190208,0.0479 -0.05095,0.1277 0.309452,0.17729 0.360406,0.0496 0.516037,0.0103 0.345834,-0.0871 z m 1.571672,-1.21086 c 0.883371,-0.31998 1.97386,-0.8009 2.42331,-1.06872 0.449454,-0.26783 2.771637,-1.47997 5.160411,-2.69366 2.388773,-1.21369 5.601933,-2.87912 7.140363,-3.70096 1.53842,-0.82184 3.37685,-1.77697 4.08542,-2.12251 4.73254,-2.3079 5.75274,-2.88279 5.5621,-3.13427 -0.12724,-0.16784 -1.37169,0.31839 -3.19413,1.248 -1.64212,0.83764 -3.96275,2.01129 -5.15695,2.60814 -2.43271,1.21583 -3.87539,1.95538 -8.456302,4.33491 -1.740183,0.90392 -3.67661,1.9081 -4.303173,2.2315 -5.177504,2.67232 -5.592315,2.63851 -10.310347,-0.84034 -1.867066,-1.37669 -4.927033,-3.59478 -6.799929,-4.92909 -6.21382,-4.42695 -6.04121,-4.26916 -6.271887,-5.73318 -0.142352,-0.90342 -0.331568,-1.2936 -0.619843,-1.27816 -0.577143,0.0309 -1.190445,1.28532 -0.919899,1.88149 0.11629,0.25625 3.154623,2.59804 6.751851,5.20396 10.18728,7.37991 11.585614,8.3275 12.478332,8.45598 0.453479,0.0654 1.547304,-0.14312 2.430673,-0.46309 z m -1.392342,-0.84477 c 1.110569,-0.22796 5.624561,-2.37373 9.612493,-4.56939 1.112526,-0.61253 3.317653,-1.78991 4.900293,-2.61642 1.58264,-0.82651 3.11763,-1.64219 3.4111,-1.81263 0.29348,-0.17044 1.93971,-0.99816 3.65831,-1.83939 3.44067,-1.68414 3.51221,-1.77801 3.19655,-4.19403 -0.20647,-1.58033 -0.97247,-2.76954 -2.78907,-4.33002 -2.61912,-2.24985 -3.48599,-2.5961 -4.26408,-1.70316 -0.68087,0.78139 -2.21621,1.31485 -4.37495,1.52012 -2.200318,0.20923 -2.488036,0.13788 -1.08434,-0.26888 1.11184,-0.3222 2.18158,-1.45836 2.31995,-2.464 0.0711,-0.51687 -0.4767,-0.37893 -3.843809,0.96796 -1.304745,0.5219 -2.45501,0.93754 -2.556143,0.92363 -0.101133,-0.0139 -0.429823,0.18122 -0.730426,0.43364 -0.572259,0.48055 -1.54028,0.51865 -1.476917,0.0581 0.08444,-0.61371 -1.089884,-1.00301 -2.32386,-0.77038 -0.663837,0.12514 -1.582042,0.11635 -2.040453,-0.0195 -1.030956,-0.30562 -1.973488,0.42833 -2.159292,1.68143 -0.157498,1.06214 -1.401517,1.86962 -2.365077,1.53512 -0.844015,-0.29299 -1.075498,-0.16605 -2.085579,1.14357 -0.651163,0.84427 -2.001458,3.3873 -2.072415,3.903 -0.04064,0.29539 0.687872,-0.0144 2.690553,-1.14408 1.253618,-0.70716 2.328984,-1.2202 2.389699,-1.14012 0.06072,0.0801 0.05672,0.17177 -0.0089,0.20374 -0.0656,0.032 -1.130066,0.62083 -2.365473,1.30857 -2.341775,1.30366 -3.442578,2.24386 -3.551167,3.03307 -0.134894,0.98039 -0.92971,2.11996 -1.430549,2.05105 -0.803593,-0.11057 -1.837678,-1.78787 -1.547205,-2.50959 0.147958,-0.3676 0.129779,-0.62328 -0.04603,-0.64747 -0.159792,-0.022 -0.309464,0.0976 -0.332605,0.26583 -0.02314,0.16819 -0.103317,0.22502 -0.178157,0.12629 -0.07484,-0.0987 0.09,-0.42327 0.36631,-0.72122 0.276316,-0.29795 0.553873,-0.91588 0.616796,-1.37319 0.211137,-1.53453 1.591122,-4.02805 3.167788,-5.72393 1.41229,-1.51909 1.517491,-1.70782 1.191618,-2.13767 -0.325874,-0.42986 -0.310463,-0.52538 0.174543,-1.082 0.292592,-0.33578 0.747277,-0.58089 1.010411,-0.54468 0.313902,0.0432 0.667581,-0.27152 1.028476,-0.91517 0.384971,-0.68658 0.759837,-1.00398 1.249058,-1.05761 0.531264,-0.0582 0.707271,-0.22907 0.733448,-0.71194 0.01895,-0.34942 -0.04721,-0.64655 -0.147023,-0.66028 -0.72278,-0.0995 -13.213555,5.72853 -15.056559,7.02512 -0.806558,0.56744 -1.051746,0.93801 -1.262651,1.90834 -0.291152,1.33954 -0.05924,4.67405 0.356632,5.12777 0.147189,0.16059 1.472185,1.14565 2.944434,2.18904 1.472248,1.04338 4.974538,3.56479 7.782867,5.60314 2.808329,2.03834 5.33058,3.79706 5.605001,3.90829 0.274418,0.11124 0.511721,0.21793 0.527336,0.23712 0.01563,0.0192 0.537187,-0.0696 1.159048,-0.1972 z m -4.396983,-4.49055 c 0.02183,-0.21734 0.178369,-0.55635 0.347871,-0.75336 0.375565,-0.43653 0.318622,-0.0227 -0.09016,0.65527 -0.196095,0.32523 -0.283878,0.35864 -0.25771,0.0981 z m 2.378319,0.17145 c 0.0546,-0.30363 0.125245,-0.35719 0.180149,-0.13658 0.04968,0.19963 0.0093,0.42442 -0.08981,0.49954 -0.09908,0.0751 -0.139738,-0.0882 -0.09033,-0.36296 z m 0.786341,0.10819 c 0.0546,-0.30362 0.125246,-0.35718 0.18015,-0.13658 0.04968,0.19964 0.0093,0.42442 -0.08981,0.49954 -0.09908,0.0751 -0.139738,-0.0882 -0.09033,-0.36296 z m -2.374688,-0.30453 c 0.01984,-0.14416 0.174746,-0.42331 0.344247,-0.62033 0.169502,-0.19701 0.291953,-0.24025 0.272118,-0.0961 -0.01984,0.14416 -0.174745,0.4233 -0.344246,0.62031 -0.169503,0.19703 -0.291954,0.24027 -0.272119,0.0961 z m -1.186704,-0.98677 c 0.0546,-0.30362 0.125245,-0.35718 0.180147,-0.13657 0.04968,0.19963 0.0093,0.42442 -0.08981,0.49953 -0.09908,0.0751 -0.139739,-0.0882 -0.09033,-0.36296 z m -2.944984,-1.83416 c -0.242715,-0.20044 -0.235204,-0.37569 0.03069,-0.71614 0.203249,-0.26023 0.33546,-0.30526 0.312804,-0.10654 -0.02161,0.18931 0.08874,0.28754 0.245164,0.21828 0.334672,-0.14819 0.320998,0.17556 -0.02465,0.58343 -0.144717,0.17077 -0.372375,0.17924 -0.56401,0.0209 z m -0.658091,-0.92312 c 0.213851,-0.41875 0.418855,-0.72105 0.455568,-0.67177 0.139644,0.18742 -0.418805,1.4917 -0.626467,1.46312 -0.119857,-0.0165 -0.04295,-0.3726 0.170902,-0.79135 z m 12.666742,1.75647 c -0.06927,-0.15642 -0.001,-0.26722 0.151651,-0.24622 0.152672,0.021 0.261355,0.15615 0.241519,0.30032 -0.01984,0.14416 -0.08807,0.25495 -0.151651,0.2462 -0.06357,-0.009 -0.172257,-0.14388 -0.241519,-0.3003 z m 1.834353,-0.67592 c -0.172466,-0.27756 -0.17166,-0.43069 0.0021,-0.40678 0.316778,0.0436 0.617685,0.59169 0.4109,0.74846 -0.07506,0.0569 -0.260921,-0.0969 -0.413046,-0.34168 z m 0.74106,-0.57218 c -0.06927,-0.15642 -0.008,-0.26818 0.136184,-0.24835 0.144163,0.0198 0.318781,0.16406 0.388043,0.32048 0.06927,0.15642 0.008,0.26817 -0.136184,0.24833 -0.144163,-0.0198 -0.318781,-0.16404 -0.388043,-0.32046 z m 1.30574,-0.75512 c -0.222939,-0.35877 -0.195238,-0.42747 0.153064,-0.37955 0.233894,0.0322 0.40092,0.23544 0.371167,0.45168 -0.02976,0.21625 -0.09863,0.38705 -0.153066,0.37956 -0.05443,-0.007 -0.221454,-0.21074 -0.371165,-0.45169 z m -20.935174,-3.13181 c 0.02858,-0.20774 0.168013,-0.42909 0.309847,-0.49189 0.141828,-0.0627 0.163669,0.11337 0.04852,0.39152 -0.24426,0.59001 -0.433011,0.64288 -0.358367,0.10037 z m 0.666806,0.13121 c 0.134,-0.24496 0.30058,-0.37027 0.370177,-0.27846 0.06959,0.0919 -0.04004,0.29222 -0.243634,0.44538 -0.294222,0.22132 -0.320186,0.18707 -0.126543,-0.16692 z m -1.668055,-0.61857 c 0.01721,-0.12511 0.233864,-0.4329 0.48144,-0.68398 0.434281,-0.4404 0.44199,-0.43629 0.218781,0.11671 -0.230513,0.57113 -0.75974,0.99985 -0.700214,0.56722 z m 22.81293,3.07205 c -0.308703,-0.2656 -0.296876,-0.30031 0.08557,-0.25122 0.244049,0.0316 0.500451,0.18496 0.569713,0.34138 0.159379,0.35994 -0.187611,0.31219 -0.655285,-0.0902 z m -23.258133,-3.71852 c 0.01867,-0.13566 0.160454,-0.30267 0.315084,-0.37113 0.161216,-0.0714 0.190682,0.0399 0.06908,0.26082 -0.23673,0.4301 -0.436037,0.48734 -0.384161,0.11031 z m 24.247658,3.32054 c -0.06923,-0.15642 -0.008,-0.26818 0.136181,-0.24834 0.144162,0.0198 0.318785,0.16404 0.38805,0.32047 0.06923,0.15641 0.0079,0.26816 -0.13619,0.24833 -0.144162,-0.0198 -0.318775,-0.16404 -0.388041,-0.32046 z m 0.822406,-0.15392 c -0.06923,-0.15642 -0.008,-0.26819 0.136183,-0.24835 0.144161,0.0198 0.31878,0.16406 0.38805,0.32048 0.0692,0.15641 0.008,0.26816 -0.136193,0.24833 -0.144161,-0.0198 -0.318775,-0.16404 -0.38804,-0.32046 z m -26.183699,-3.88751 c -0.2193,-0.49528 0.115295,-0.54773 0.415195,-0.0651 0.172467,0.27755 0.17166,0.43069 -0.0021,0.40678 -0.153305,-0.0211 -0.339176,-0.17486 -0.413048,-0.34168 z M 72.55748,156.5036 c 0.01984,-0.14417 0.164047,-0.31879 0.320468,-0.38805 0.156417,-0.0692 0.26818,-0.008 0.248339,0.13618 -0.01984,0.14416 -0.164047,0.31878 -0.320469,0.38805 -0.156416,0.0692 -0.268179,0.008 -0.248338,-0.13618 z m 27.911,3.79106 c -0.0738,-0.16682 -0.0627,-0.35759 0.0248,-0.42394 0.21359,-0.16192 0.67929,0.23924 0.63674,0.5485 -0.0461,0.33497 -0.49553,0.25035 -0.66154,-0.12454 z m -28.363263,-4.38622 c 0.01741,-0.12652 0.25016,-0.36491 0.517231,-0.52977 0.440306,-0.27179 0.448715,-0.24877 0.09019,0.24679 -0.40892,0.56522 -0.662506,0.68334 -0.607418,0.28298 z m 24.006822,2.40243 c -0.212426,-1.2365 0.383285,-6.22452 0.779229,-6.52468 0.222666,-0.16881 0.232988,0.44522 0.03493,2.07751 -0.154626,1.27442 -0.301658,3.00537 -0.326712,3.84656 -0.05066,1.70122 -0.255085,1.95312 -0.487447,0.60061 z m 5.259351,1.32457 c -0.0692,-0.15641 -9.8e-4,-0.26721 0.15166,-0.24621 0.15267,0.021 0.26135,0.15615 0.24152,0.30031 -0.0198,0.14416 -0.0881,0.25496 -0.15166,0.24621 -0.0636,-0.009 -0.17225,-0.14389 -0.24152,-0.30031 z m 0.73721,-0.25759 c -0.257,-0.41415 -0.24217,-0.47552 0.1034,-0.42797 0.22189,0.0305 0.46506,-0.0694 0.54039,-0.22202 0.082,-0.16626 0.26478,-0.0675 0.45576,0.24626 0.28498,0.46821 0.27429,0.49974 -0.10066,0.29731 -0.27285,-0.14729 -0.46832,-0.0837 -0.55915,0.18173 -0.12648,0.36973 -0.16794,0.36263 -0.43969,-0.0753 z m -31.727704,-4.52479 c 0.01867,-0.13566 0.161919,-0.30332 0.31834,-0.37259 0.156417,-0.0692 0.259102,0.058 0.228178,0.28271 -0.03092,0.22476 -0.174177,0.39241 -0.31834,0.37258 -0.144161,-0.0198 -0.246843,-0.14705 -0.228178,-0.2827 z m 18.425958,1.91857 c 0.08181,-0.67516 2.459963,-5.47043 2.696812,-5.43785 0.285809,0.0393 0.08002,0.60288 -1.32313,3.62341 -0.915213,1.97017 -1.483524,2.72082 -1.373682,1.81444 z m 14.833396,1.82288 c -0.21931,-0.49528 0.11533,-0.54773 0.41519,-0.0651 0.17246,0.27755 0.17166,0.43068 -0.002,0.40677 -0.15331,-0.0211 -0.33917,-0.17485 -0.41304,-0.34167 z m 0.89851,-0.30373 c -0.0829,-0.10932 -0.13393,-0.32067 -0.11343,-0.46965 0.0226,-0.16423 0.14255,-0.13196 0.30475,0.082 0.14713,0.19407 0.19817,0.40541 0.11343,0.46963 -0.0847,0.0642 -0.22186,0.0273 -0.30475,-0.082 z m -11.692663,-2.96646 c 0.163742,-0.52831 0.343068,-1.28061 0.398503,-1.67176 0.06675,-0.47119 0.313909,-0.7862 0.732299,-0.93347 0.521161,-0.18344 0.565921,-0.16959 0.256171,0.0793 -0.206435,0.16585 -0.442672,0.77902 -0.524974,1.36261 -0.1883,1.33479 -0.549475,2.2079 -0.89387,2.16052 -0.161334,-0.0222 -0.148802,-0.4142 0.03187,-0.99716 z m 12.519473,2.45704 c -0.0692,-0.15641 -9.9e-4,-0.26721 0.15164,-0.24621 0.15268,0.021 0.26136,0.15615 0.24152,0.30031 -0.0198,0.14416 -0.0881,0.25496 -0.15164,0.24621 -0.0636,-0.009 -0.17227,-0.14389 -0.24152,-0.30031 z m 0.72741,-0.43406 c 0.0198,-0.14417 0.15402,-0.24589 0.29818,-0.22605 0.14416,0.0198 0.24588,0.15401 0.22604,0.29817 -0.0198,0.14417 -0.15401,0.24589 -0.29817,0.22605 -0.14416,-0.0198 -0.24588,-0.15401 -0.22605,-0.29817 z m 1.14301,-0.50397 c -0.17247,-0.27756 -0.17167,-0.43069 0.002,-0.40677 0.31678,0.0436 0.61769,0.59168 0.4109,0.74844 -0.0751,0.0569 -0.26092,-0.0969 -0.41304,-0.34167 z m -7.968336,-1.64191 c -0.361761,-0.89185 -0.382878,-2.58498 -0.03164,-2.53666 0.41889,0.0576 0.67614,1.37708 0.451798,2.3173 -0.175771,0.73678 -0.204261,0.75164 -0.420158,0.21936 z m 8.709396,1.06972 c -0.0692,-0.15641 -0.008,-0.26817 0.13618,-0.24833 0.14416,0.0198 0.31878,0.16404 0.38804,0.32046 0.0692,0.15642 0.008,0.26819 -0.13618,0.24835 -0.14417,-0.0198 -0.31879,-0.16406 -0.38804,-0.32048 z m -5.04716,-1.99928 c -0.60431,-1.33041 -0.63772,-2.52084 -0.0422,-1.50527 0.43723,0.74569 0.90331,2.41299 0.71454,2.55609 -0.0798,0.0605 -0.3823,-0.4124 -0.67229,-1.05082 z m 5.64351,1.54719 c -0.0692,-0.15641 -0.008,-0.26817 0.13619,-0.24834 0.14416,0.0198 0.31877,0.16405 0.38804,0.32047 0.0692,0.15642 0.008,0.26818 -0.13618,0.24834 -0.14417,-0.0198 -0.31879,-0.16405 -0.38805,-0.32047 z m -19.98253,-3.26174 c 0.07399,-0.53773 0.487099,-1.02313 0.830536,-0.97587 0.452293,0.0622 0.417108,0.31852 -0.116958,0.8519 -0.448639,0.44807 -0.765751,0.50316 -0.713578,0.12397 z m 21.40129,2.65572 c -0.0692,-0.15641 -9.8e-4,-0.26721 0.15166,-0.24621 0.15267,0.021 0.26135,0.15615 0.24152,0.30031 -0.0198,0.14416 -0.0881,0.25496 -0.15166,0.24621 -0.0636,-0.009 -0.17225,-0.14389 -0.24152,-0.30031 z m 0.71377,-0.29595 c -0.17246,-0.27756 -0.17166,-0.43069 0.002,-0.40677 0.31678,0.0436 0.61769,0.59168 0.4109,0.74845 -0.0751,0.0569 -0.26092,-0.0969 -0.41305,-0.34167 z m 0.7102,-0.29833 c -0.0842,-0.19014 -0.006,-0.45722 0.17382,-0.59349 0.45804,-0.34725 0.66604,0.0301 0.29058,0.5271 -0.22848,0.30246 -0.35203,0.32012 -0.46437,0.0664 z m -5.43676,-1.88079 c -0.14919,-0.1968 -0.24764,-0.52944 -0.21878,-0.73919 0.0417,-0.30274 0.1471,-0.26868 0.51143,0.16515 0.47143,0.56142 0.55971,1.01179 0.18831,0.96069 -0.11534,-0.0159 -0.33176,-0.18988 -0.48096,-0.38667 z m 3.14277,-0.39188 c -1.03146,-0.76086 -1.85518,-1.54371 -1.83048,-1.73964 0.0288,-0.23136 0.19734,-0.27293 0.47959,-0.11868 0.71578,0.39118 3.41541,2.83759 3.38391,3.06652 -0.0388,0.28171 0.0925,0.35974 -2.03302,-1.2082 z m -29.345548,8.39104 c 0.25401,-0.22211 0.642123,-1.15503 0.862474,-2.07317 0.220354,-0.91812 0.693227,-2.34197 1.050831,-3.16411 0.624332,-1.43535 0.632563,-1.51182 0.206937,-1.92297 -0.636181,-0.61455 -0.910822,-0.48771 -1.820874,0.84095 -0.924001,1.34901 -1.701217,4.62938 -1.398135,5.90105 0.210411,0.88285 0.459162,0.97754 1.098765,0.41825 z m -11.03938,-4.72384 c -0.18343,-0.64256 -0.159497,-0.79719 0.941027,-6.08004 1.819188,-8.73266 3.736485,-16.70536 4.11568,-17.11423 0.738277,-0.79608 1.914892,-1.28777 10.379221,-4.33733 4.705274,-1.69524 10.135875,-3.65298 12.067999,-4.35053 3.847411,-1.38902 4.567061,-1.3959 5.354571,-0.0512 0.37079,0.63315 0.37149,1.17057 0.005,4.04134 -0.23233,1.82109 -0.45127,4.1484 -0.48654,5.17179 l -0.0641,1.86071 0.38532,-2.61774 c 0.2119,-1.43977 0.47167,-3.90236 0.57722,-5.47245 0.21584,-3.21056 -0.0136,-3.83057 -1.59745,-4.31635 -0.708722,-0.21738 -1.311382,-0.11856 -2.989293,0.49003 -1.155886,0.41927 -4.501836,1.61064 -7.435444,2.64749 -2.933607,1.03686 -5.46351,1.95419 -5.622008,2.03855 -0.158497,0.0843 -2.183871,0.82876 -4.50083,1.65426 -5.478517,1.95192 -6.182095,2.28292 -6.645428,3.12631 -0.212832,0.3874 -0.9196,3.15495 -1.570597,6.15011 -0.650997,2.99516 -1.623853,7.4283 -2.161903,9.85143 -1.53413,6.909 -1.633792,7.65395 -1.035002,7.73633 0.303362,0.0418 0.382358,-0.0782 0.282336,-0.42853 z m 0.954253,-1.70805 c 0.10434,-1.24363 0.194504,-1.39162 1.539625,-2.52869 1.499075,-1.26715 4.527147,-2.88083 9.050214,-4.82292 1.483091,-0.6368 2.893199,-1.27696 3.133572,-1.42258 0.240373,-0.14561 1.100376,-0.49999 1.911117,-0.7875 1.081244,-0.38344 1.495122,-0.67253 1.553055,-1.0848 0.04334,-0.30915 0.302025,-0.87618 0.574629,-1.26009 0.476148,-0.67055 0.467898,-0.73474 -0.209644,-1.6313 -1.853572,-2.45274 -1.331056,-5.05224 1.128416,-5.61386 4.994651,-1.14052 7.61041,-2.08753 8.10617,-2.93475 0.460494,-0.78697 1.136239,-1.14311 1.955127,-1.03044 0.624198,0.0859 1.681004,1.6704 1.584044,2.37505 -0.03815,0.27726 0.0585,0.52171 0.21485,0.54322 0.19639,0.027 0.4443,-1.32492 0.80238,-4.37579 0.43243,-3.68438 0.4574,-4.54268 0.1509,-5.18722 -0.49119,-1.03289 -1.654315,-1.18086 -3.631744,-0.46204 -0.83355,0.30301 -3.033218,1.09936 -4.888149,1.76966 -1.854932,0.67032 -3.502189,1.28708 -3.660572,1.3706 -0.158383,0.0835 -3.052611,1.11968 -6.431621,2.30257 -7.438585,2.60405 -8.140663,2.91344 -8.647153,3.81064 -0.431314,0.76402 -1.83301,6.88776 -4.576503,19.99388 -0.415379,1.98433 -0.441277,2.423 -0.139719,2.36657 0.258896,-0.0485 0.403495,-0.46638 0.481008,-1.39022 z m 12.404912,-9.86742 c 1.772701,-0.52364 2.43191,-0.58421 2.245396,-0.20631 -0.08872,0.17973 -0.763875,0.39759 -1.500358,0.48412 -1.81891,0.21369 -2.079715,0.11644 -0.745038,-0.27781 z m -3.778381,-1.55827 c 0.154048,-0.1054 0.768427,-0.24688 1.365285,-0.31441 0.596859,-0.0675 2.181359,-0.28915 3.521109,-0.49248 1.519721,-0.23065 2.515804,-0.26432 2.648327,-0.0895 0.24089,0.31775 -0.565865,0.47113 -4.607419,0.8759 -3.010986,0.30157 -3.341482,0.30388 -2.927302,0.0205 z m 3.326734,-3.08756 c -0.04403,-0.0995 0.19374,-0.2154 0.528389,-0.2575 0.923954,-0.11622 2.317323,0.12056 2.280583,0.38758 -0.03711,0.26967 -2.686396,0.14703 -2.808977,-0.13004 z m -0.137477,-2.71894 c -0.704654,-0.21663 -2.036192,-0.58424 -2.958972,-0.81693 -0.938939,-0.23676 -1.604776,-0.52629 -1.511993,-0.65748 0.183679,-0.2597 0.85573,-0.14047 3.51961,0.62444 3.236317,0.92927 3.48155,1.021 3.304108,1.23586 -0.194676,0.23573 -0.486074,0.18792 -2.352752,-0.3859 z m 3.128818,-2.71805 c -1.091643,-0.78375 -1.453737,-1.40725 -0.580829,-1.00016 0.866577,0.40415 1.886409,1.14384 2.032781,1.47442 0.19874,0.44884 -0.470836,0.23013 -1.451952,-0.47426 z m 1.034621,-2.60442 c -0.908609,-1.03289 -1.539879,-1.90268 -1.40282,-1.93287 0.312393,-0.0688 2.268276,1.81985 3.144578,3.0365 1.159873,1.61036 -0.0018,0.87426 -1.741758,-1.10363 z m 2.768263,0.0737 c -0.597433,-1.11476 -0.342208,-1.4249 0.400871,-0.48713 0.375476,0.47386 0.669491,0.95744 0.653366,1.07463 -0.06008,0.43669 -0.694956,0.0829 -1.054237,-0.5875 z m 5.678892,-1.69721 c -0.233566,-2.14547 -0.23068,-2.5022 0.01995,-2.46772 0.247097,0.034 0.740188,2.49689 0.642313,3.20823 -0.101207,0.73556 -0.557061,0.22583 -0.662261,-0.74051 z m 3.28988,-1.99149 c 0.715509,-3.14434 1.175539,-3.92827 0.866275,-1.47619 -0.288332,2.28615 -0.686284,3.61126 -1.068709,3.55864 -0.16922,-0.0233 -0.09694,-0.76682 0.202434,-2.08245 z m 2.045195,1.76885 c 0.08628,-0.62707 1.086698,-2.28318 1.249488,-2.06843 0.15363,0.20265 -0.65543,1.9835 -1.047243,2.30514 -0.160432,0.1317 -0.240101,0.0384 -0.202245,-0.23671 z m -14.183107,21.63991 c 0.04431,-0.22753 0.140968,-0.13073 0.231886,0.23221 0.187118,0.74696 1.074443,0.94318 1.515966,0.33523 0.487345,-0.67103 0.06596,-1.38618 -0.894672,-1.51835 -0.574425,-0.079 -1.125034,0.10545 -1.805985,0.60513 -0.538791,0.39536 -0.994931,0.83013 -1.013647,0.96616 -0.01872,0.13603 -0.249853,0.36373 -0.513633,0.50601 -0.308253,0.16625 -0.437852,0.43723 -0.362751,0.75846 0.101545,0.43432 0.290407,0.36916 1.441854,-0.49745 0.728754,-0.54848 1.359196,-1.17281 1.400982,-1.3874 z m -2.418276,0.56659 c 0.536183,-0.45985 1.240594,-1.14569 1.565359,-1.52411 0.550779,-0.64175 0.567794,-0.73579 0.253058,-1.39865 -0.185584,-0.39084 -0.497192,-0.73261 -0.692463,-0.75947 -0.4789,-0.0659 -1.125542,0.55524 -0.962166,0.92421 0.198738,0.44883 0.561834,0.41213 0.790272,-0.0799 0.112182,-0.24163 0.09581,-0.0936 -0.03636,0.32884 -0.132211,0.42248 -0.274032,0.9023 -0.315166,1.06625 -0.04112,0.16395 -0.219075,0.21867 -0.395426,0.12162 -0.191529,-0.10539 -0.425215,0.0833 -0.580348,0.46881 -0.142839,0.3549 -0.442499,0.75885 -0.665907,0.89768 -0.357899,0.22239 -0.396585,0.72736 -0.05929,0.77377 0.06798,0.009 0.562289,-0.35924 1.098471,-0.81908 z m 5.404003,-2.29007 c 0.443574,-0.37838 0.825115,-0.83666 0.847874,-1.01841 0.028,-0.22333 -0.05853,-0.21434 -0.266812,0.0278 -0.264677,0.30764 -0.300021,0.29468 -0.250358,-0.0918 0.03194,-0.2475 -0.188101,-0.62796 -0.488686,-0.84543 -0.490132,-0.3546 -0.516492,-0.34674 -0.255491,0.0762 0.174087,0.28208 0.186559,0.69115 0.03103,1.01805 -0.190104,0.39959 -0.303709,0.44775 -0.422623,0.1792 -0.08945,-0.20202 -0.07763,-0.54678 0.02627,-0.76614 0.150356,-0.31746 0.126685,-0.33294 -0.115995,-0.0759 -0.230733,0.2444 -0.414558,0.23732 -0.755655,-0.0291 -0.435539,-0.34016 -0.433465,-0.34993 0.06146,-0.28968 0.352381,0.0424 0.439332,-0.0337 0.27876,-0.2456 -0.232305,-0.30642 -1.140137,-0.24671 -1.168463,0.0769 -0.02954,0.33758 0.521968,1.08259 1.00631,1.35937 0.294515,0.1683 0.361764,0.31317 0.165933,0.35745 -0.446452,0.10095 -1.274547,-0.52957 -1.50193,-1.14358 -0.255099,-0.68886 0.16016,-1.10314 1.082883,-1.0804 0.58995,0.0146 0.768956,-0.10069 0.751597,-0.48383 -0.02098,-0.46292 0.01995,-0.45173 0.514782,0.14079 0.677597,0.81129 1.954157,1.70101 2.569814,1.79106 0.392592,0.057 0.401172,0.10082 0.05177,0.25983 -0.360163,0.16395 -0.359916,0.22365 0.0017,0.4227 0.243997,0.13432 0.621519,0.0795 0.897371,-0.12923 0.261925,-0.19857 0.699555,-0.3303 0.972511,-0.29275 0.824984,0.11351 1.24054,-0.74117 0.749402,-1.54131 -0.335002,-0.54577 -0.519861,-0.6396 -0.917669,-0.46583 -0.737484,0.32216 -0.868089,0.79625 -0.243044,0.88225 0.300338,0.0413 0.529841,0.19308 0.510005,0.33725 -0.04991,0.36274 -1.959122,0.066 -2.798657,-0.43494 -0.37969,-0.22658 -1.011267,-0.80231 -1.403504,-1.27942 -0.589415,-0.71695 -0.750325,-0.79993 -0.927341,-0.47831 -0.117793,0.21403 -0.394804,0.3643 -0.615575,0.33392 -0.655698,-0.0902 -1.586375,0.79275 -1.699098,1.612 -0.123355,0.89654 0.980748,2.2953 1.913028,2.42358 0.326789,0.045 0.953036,-0.22667 1.39834,-0.60652 z m 8.330383,-0.11997 c 0.849386,-0.9423 1.18041,-1.93365 0.584201,-1.74957 -0.191762,0.0592 -0.575504,0.1533 -0.852762,0.2091 -0.410794,0.0827 -0.495623,0.27539 -0.458288,1.04121 0.03826,0.78475 -0.0185,0.90437 -0.344091,0.72517 -0.245282,-0.13501 -0.409554,-0.0718 -0.44287,0.17034 -0.09764,0.70965 0.706759,0.4991 1.51381,-0.39625 z m 7.985585,0.1645 c 0.60507,-0.65245 0.7566,-1.59992 0.29637,-1.85321 -0.23586,-0.12986 -0.58123,0.20901 -1.08063,1.06019 -0.4037,0.68805 -0.74862,1.35737 -0.76651,1.48737 -0.0503,0.36546 1.00688,-0.1079 1.55076,-0.69436 z m -8.746126,-1.82728 c 0.475787,-0.25662 0.448505,-1.12244 -0.03748,-1.18931 -0.435704,-0.0599 -0.983783,1.16424 -0.880725,1.96719 l 0.09354,0.72879 0.186547,-0.63155 c 0.102595,-0.34736 0.38975,-0.74117 0.638111,-0.87512 z m -1.29904,0.2024 c 0.09339,-0.67875 -0.216403,-1.2658 -1.769399,-3.35306 -1.035437,-1.39165 -1.965826,-2.4295 -2.067527,-2.30635 -0.361529,0.43776 0.385869,1.9431 1.627144,3.27722 0.692799,0.74462 1.305739,1.60056 1.362091,1.9021 0.103586,0.55428 0.453542,1.26425 0.635514,1.28929 0.05443,0.007 0.149914,-0.35666 0.212181,-0.8092 z m 10.274376,-1.79293 c 0.13152,-0.27646 0.18906,-0.56871 0.12782,-0.64946 -0.0612,-0.0807 -1.23122,0.26332 -2.60003,0.76457 -3.970801,1.45409 -4.324872,1.63905 -4.416805,2.3072 -0.0787,0.57196 0.103365,0.53553 3.283265,-0.65706 2.10895,-0.79094 3.45592,-1.45038 3.60572,-1.76525 z m -15.020307,0.37587 c 0.266557,-0.56029 0.751049,-0.58871 1.146362,-0.0672 0.311459,0.41083 1.130758,0.0166 1.213381,-0.58393 0.123255,-0.8958 -1.484936,-0.78911 -2.373727,0.15748 -0.494182,0.52632 -0.923483,0.51332 -0.849317,-0.0257 0.02975,-0.21624 -0.06386,-0.40939 -0.208017,-0.42923 -0.420287,-0.0578 -0.380445,0.52526 0.06647,0.97274 0.562035,0.56275 0.727538,0.55879 1.004852,-0.0241 z m 16.472277,1.59875 c 0.0496,-0.3604 -0.0278,-0.67151 -0.17195,-0.69135 -0.14416,-0.0198 -0.30268,0.25882 -0.35227,0.61922 -0.0496,0.36041 0.0278,0.67152 0.17195,0.69136 0.14416,0.0198 0.30268,-0.25882 0.35227,-0.61923 z m -16.117293,-2.72293 c 0.533925,-0.30046 0.84248,-1.2701 0.332281,-1.04418 -0.16328,0.0723 -0.439711,-0.0246 -0.614297,-0.21527 -0.428618,-0.46816 -0.843397,0.0272 -0.493831,0.58972 0.140968,0.22687 0.163275,0.52513 0.04957,0.66281 -0.286079,0.34641 0.116194,0.35025 0.726272,0.007 z m -2.524913,-1.17348 c 0.02008,-0.9789 1.161575,-2.69716 1.413633,-2.12791 0.07221,0.16309 0.0012,0.35411 -0.157755,0.4245 -0.567825,0.25143 -0.419664,0.91994 0.203283,0.91724 0.887283,-0.004 1.227998,-1.5264 0.426869,-1.90754 -0.904555,-0.43035 -1.922477,0.64571 -2.145728,2.26827 -0.09807,0.71278 -0.08405,1.30892 0.03117,1.32478 0.115215,0.0159 0.21805,-0.38885 0.228525,-0.89934 z m 1.388095,1.02441 c -0.05283,-0.0609 -0.371623,-0.29158 -0.708413,-0.51282 -0.577386,-0.37927 -0.586499,-0.37497 -0.159641,0.0755 0.371518,0.39198 1.18445,0.80162 0.868047,0.43742 z m 7.616304,0.22983 c 0.239105,-0.7163 0.176431,-1.10547 -0.345104,-2.14266 -0.588752,-1.17089 -1.053008,-1.7783 -2.883681,-3.77285 -0.372435,-0.40578 -1.018563,-1.12565 -1.435846,-1.59971 -0.848376,-0.96384 -2.023177,-1.27369 -2.650721,-0.69915 -0.349253,0.31976 0.02745,0.93018 2.881728,4.66972 1.805926,2.36603 3.476538,4.32843 3.712475,4.3609 0.28101,0.0387 0.529752,-0.24288 0.721149,-0.81625 z m 5.180947,-0.51156 c 4.11287,-1.44386 4.35123,-1.65678 3.06783,-2.74035 -0.63481,-0.53599 -0.82028,-0.59358 -1.02758,-0.31915 -0.13914,0.18418 -0.93826,0.48905 -1.77585,0.67748 -1.8175,0.4089 -1.94345,0.40474 -1.44911,-0.0479 0.31308,-0.28664 0.30055,-0.35927 -0.0708,-0.41036 -0.736909,-0.10139 -2.346509,0.50926 -2.401814,0.91121 -0.0395,0.28708 0.07359,0.32629 0.493074,0.17095 0.658525,-0.24387 0.850482,-0.23037 0.810934,0.0571 -0.01648,0.1198 -0.346563,0.33505 -0.73351,0.47836 -0.522891,0.19363 -0.732839,0.4735 -0.817658,1.08995 -0.114707,0.83367 0.0033,1.20168 0.402841,1.25666 0.118562,0.0163 1.694288,-0.48947 3.501623,-1.12395 z m 4.04693,1.02749 c 0.13151,-0.31241 0.27732,-0.83318 0.32392,-1.15728 0.13375,-0.92807 0.5451,-0.62672 0.67382,0.49333 l 0.11695,1.01762 0.56322,-0.91545 c 0.72838,-1.18395 0.75549,-1.48429 0.20461,-2.26699 -0.60127,-0.85428 -1.32667,-0.98951 -1.03144,-0.19229 0.11464,0.30956 0.32223,0.57849 0.46132,0.59763 0.13909,0.0191 0.23342,0.17634 0.20962,0.34934 -0.0337,0.24463 -0.1036,0.23501 -0.31454,-0.0433 -0.1492,-0.19681 -0.48357,-0.38703 -0.74306,-0.42273 -0.38314,-0.0527 -0.50175,0.15271 -0.63115,1.09315 -0.0876,0.63695 -0.25664,1.3348 -0.37549,1.55079 -0.11885,0.21601 -0.0994,0.4088 0.0434,0.42844 0.14277,0.0197 0.36723,-0.21988 0.49878,-0.53229 z m -8.433539,-3.50354 c -0.09349,-0.25247 -0.664052,-1.06731 -1.267905,-1.81076 -0.603854,-0.74345 -1.534906,-1.95833 -2.069,-2.69973 l -0.971085,-1.348 2.405839,-0.83882 c 2.202757,-0.76802 2.814264,-1.19844 2.302758,-1.62087 -0.36528,-0.30167 -6.167,1.71712 -6.207714,2.16006 -0.0212,0.23052 0.802202,1.37611 1.829758,2.54573 1.027555,1.16963 2.28309,2.68211 2.790077,3.36109 0.56978,0.76305 1.004949,1.1344 1.139531,0.9724 0.119755,-0.14414 0.141238,-0.46864 0.04774,-0.7211 z m -7.687385,-2.01396 c -0.01047,-0.27998 -0.08684,-0.59848 -0.169692,-0.70778 -0.281053,-0.37073 -1.119884,-0.51186 -1.272593,-0.21406 -0.197464,0.38504 0.710991,1.58337 1.135052,1.49723 0.179452,-0.0365 0.3177,-0.29535 0.307226,-0.57534 z m 10.550454,1.17433 c 1.11382,-0.38175 2.34794,-0.64064 2.74249,-0.57531 l 0.71735,0.11879 -0.70443,-0.77997 c -0.82914,-0.91804 -0.70419,-1.22234 0.18409,-0.44832 0.5578,0.48604 0.62246,0.4972 0.67484,0.11647 0.0319,-0.23161 -0.15769,-0.60088 -0.42124,-0.82062 -0.26355,-0.21972 -0.46333,-0.51865 -0.44395,-0.66426 0.0195,-0.1456 -0.5113,-1.07802 -1.17927,-2.07201 -1.27851,-1.90252 -2.761197,-3.30025 -3.084975,-2.90819 -0.380492,0.46073 0.03711,1.49345 1.327065,3.28182 0.72498,1.00511 1.30172,1.9469 1.28164,2.09286 -0.0201,0.14597 -0.63768,-0.5405 -1.372437,-1.52548 -1.505071,-2.01763 -1.948594,-2.13877 -3.429983,-0.93683 -0.883762,0.71705 -1.020259,1.11009 -0.83463,2.40332 0.13689,0.95366 1.639263,3.29089 2.161585,3.36275 0.196192,0.027 1.268025,-0.26325 2.381845,-0.645 z m -3.309187,-2.6875 c -0.06927,-0.15642 -0.001,-0.26722 0.151651,-0.24621 0.152671,0.021 0.261355,0.15614 0.24152,0.3003 -0.01984,0.14417 -0.08808,0.25496 -0.151652,0.24621 -0.06357,-0.009 -0.172257,-0.14388 -0.241519,-0.3003 z m 0.38721,-0.71211 c -0.08777,-0.19823 -0.07906,-0.42146 0.01936,-0.49608 0.26686,-0.2023 0.475161,0.1779 0.29616,0.54057 -0.125432,0.25414 -0.187143,0.24543 -0.315527,-0.0444 z m 0.587358,-1.07341 c 0.08062,-0.16334 0.293155,-0.32442 0.472303,-0.35795 0.200318,-0.0374 0.242418,0.0904 0.109332,0.3322 -0.248384,0.45129 -0.803803,0.47588 -0.581635,0.0258 z m -10.097199,2.43866 c -0.02878,-0.47378 0.134232,-0.96384 0.424537,-1.27696 0.259178,-0.27947 0.357636,-0.52376 0.218795,-0.54287 -0.138839,-0.0191 -0.158289,-0.26215 -0.04322,-0.5401 0.165087,-0.39877 0.07864,-0.52535 -0.409812,-0.60014 l -0.618964,-0.0953 0.802017,-0.491 c 0.904316,-0.55362 1.043045,-0.83837 0.448319,-0.9202 -0.805044,-0.11077 -1.859985,0.98937 -2.012643,2.09886 -0.07907,0.57469 -0.03585,1.13402 0.09606,1.24296 0.135449,0.1119 0.279062,-0.0871 0.329986,-0.45723 0.08491,-0.61712 0.570019,-1.09115 0.802638,-0.78431 0.05821,0.0768 -0.076,0.62598 -0.298229,1.22044 -0.423636,1.13323 -0.408937,1.81563 0.04045,1.87746 0.153669,0.0211 0.247031,-0.28935 0.220136,-0.73213 z m 6.664769,-5.00485 c 2.161796,-0.73487 3.87544,-1.46057 3.808094,-1.61265 -0.200653,-0.45315 -0.733289,-0.40757 -2.880917,0.24654 -1.122747,0.34196 -2.887148,0.87285 -3.920896,1.17976 -1.155379,0.34302 -1.901256,0.71583 -1.9359,0.96762 -0.101885,0.74049 0.93755,0.57575 4.929619,-0.78127 z m 4.168744,-2.46931 c 0.05042,0.21568 0.30231,0.41731 0.559748,0.4481 0.378786,0.0451 0.34456,-0.087 -0.179228,-0.69323 -0.547958,-0.63422 -0.741782,-0.71494 -1.26301,-0.52598 -0.338647,0.12278 -0.720234,0.34108 -0.847974,0.48512 -0.507638,0.57246 -0.254345,0.68603 0.668642,0.2998 0.798382,-0.33408 0.986371,-0.33653 1.061822,-0.0138 z M 71.930778,128.0601 c 0.01866,-0.13565 -0.08401,-0.26288 -0.228177,-0.28271 -0.144163,-0.0198 -0.287415,0.14782 -0.318339,0.37257 -0.03092,0.22475 0.07175,0.35198 0.228177,0.28271 0.156417,-0.0692 0.299675,-0.23692 0.318339,-0.37257 z m -1.023517,-0.38172 c 0.230521,-0.10494 0.350171,-0.28175 0.26589,-0.39293 -0.206857,-0.27286 -0.99561,-0.0706 -1.042102,0.26733 -0.0458,0.3329 0.224673,0.37668 0.776216,0.12557 z m -0.64686,-1.06572 c 0.02975,-0.21624 -0.07388,-0.3365 -0.230305,-0.26724 -0.156416,0.0692 -0.308748,0.30286 -0.338501,0.5191 -0.02975,0.21624 0.07388,0.3365 0.230307,0.26724 0.156417,-0.0692 0.308746,-0.30285 0.338499,-0.5191 z m -3.953997,-0.37897 c 0.01984,-0.14417 -0.08189,-0.27834 -0.226049,-0.29818 -0.144163,-0.0198 -0.278343,0.0819 -0.298179,0.22605 -0.01984,0.14416 0.08189,0.27834 0.22605,0.29817 0.144163,0.0198 0.278343,-0.0819 0.298178,-0.22604 z m 0.806503,-0.0383 c 0.03092,-0.22475 -0.07176,-0.35196 -0.228177,-0.28271 -0.156417,0.0692 -0.299675,0.23692 -0.31834,0.37258 -0.01867,0.13566 0.08402,0.26287 0.228178,0.28271 0.144163,0.0198 0.287415,-0.14783 0.318339,-0.37258 z m 2.621707,-0.007 c 0.09258,-0.18757 0.0078,-0.29939 -0.197793,-0.26091 -0.197896,0.0371 -0.432707,0.21505 -0.521813,0.39559 -0.09258,0.18757 -0.0078,0.29939 0.197793,0.26091 0.197896,-0.0371 0.432707,-0.21505 0.521813,-0.39559 z m -0.06645,-1.09414 c 0.01984,-0.14416 -0.01595,-0.26927 -0.07952,-0.27801 -0.06357,-0.009 -0.204714,0.092 -0.313647,0.22391 -0.108936,0.13191 -0.07314,0.25701 0.07952,0.27802 0.15267,0.021 0.293811,-0.0798 0.313647,-0.22392 z m -0.163606,-1.64273 c 0.344911,-0.41765 0.03691,-0.55852 -0.382185,-0.17482 -0.241019,0.22067 -0.281596,0.36832 -0.107792,0.39224 0.153307,0.0211 0.373796,-0.0768 0.489977,-0.21742 z m -0.01206,-1.44794 c 0.04923,-0.35778 -0.02248,-0.60092 -0.159348,-0.54033 -0.13687,0.0606 -0.280353,0.33914 -0.318854,0.61896 -0.0385,0.27981 0.03321,0.52296 0.159348,0.54031 0.126143,0.0174 0.269627,-0.26116 0.318854,-0.61894 z m 39.453472,26.25553 c 0.0582,-0.42304 0.3069,-0.45273 0.92817,-0.11079 0.60442,0.33266 0.40509,0.69485 -0.32699,0.59413 -0.40773,-0.0561 -0.63484,-0.2387 -0.60118,-0.48334 z m 5.40428,-0.20708 c -2.24589,-0.81137 -3.55118,-1.75843 -1.60957,-1.16785 1.69566,0.51578 4.55974,1.67383 4.79436,1.93854 0.32386,0.36538 -0.77852,0.0986 -3.18479,-0.77069 z m -3.51231,-4.49057 c 0.21595,-0.16371 0.58935,-0.12002 1.16966,0.13681 l 0.85244,0.37733 -1.16967,-0.13681 c -0.82657,-0.0968 -1.07661,-0.20739 -0.85243,-0.37734 z m -1.77783,-2.89049 c -0.0672,-0.15183 0.15646,-0.30059 0.4971,-0.33057 1.87195,-0.16478 8.04974,-0.60596 8.912,-0.63646 0.56806,-0.0201 0.99181,0.0708 0.97283,0.20865 -0.0185,0.13433 -0.60498,0.24791 -1.30334,0.25241 -1.48815,0.01 -5.10376,0.38174 -6.78229,0.6981 -1.3701,0.25823 -2.12486,0.19509 -2.2963,-0.19212 z m -2.42944,-2.27839 c 0.16882,-0.34339 3.83463,-1.39424 4.01834,-1.15191 0.10609,0.13994 -3.65984,1.53508 -4.01264,1.48654 -0.0877,-0.0121 -0.0903,-0.16265 -0.006,-0.33464 z m -1.58102,-2.25459 c 0.11914,-0.21808 3.86922,-2.39887 6.1736,-3.59011 0.67326,-0.34804 1.71207,-0.95626 2.30847,-1.35159 0.59639,-0.39535 1.18098,-0.70551 1.29907,-0.68926 0.1181,0.0162 0.58046,-0.22645 1.02747,-0.53931 0.77244,-0.54066 1.49692,-0.6193 1.01941,-0.11066 -0.12357,0.13162 -2.2421,1.36268 -4.70783,2.73568 -2.46573,1.37299 -4.8796,2.81216 -5.36415,3.19814 -0.79654,0.63453 -2.0481,0.88191 -1.75604,0.34711 z m -1.08505,-2.11838 c 0.0611,-0.41452 3.20073,-2.50213 3.51998,-2.34072 0.26562,0.13426 -2.96535,2.75088 -3.33413,2.70013 -0.12883,-0.0177 -0.21246,-0.17946 -0.18585,-0.35941 z m -0.32149,-2.44792 c -0.16884,-0.60112 -0.0781,-0.73614 1.75307,-2.60864 2.14387,-2.19226 2.57606,-1.99993 0.51005,0.22696 -0.96155,1.03642 -1.83339,2.10568 -1.93742,2.37612 -0.17423,0.45295 -0.19992,0.45339 -0.3257,0.006 z"
       id="path7588" />
  </g>
</svg>
